<?xml version="1.0" encoding="UTF-8"?> <svg xmlns="http://www.w3.org/2000/svg" viewBox="0 0 1400.00 380.42" data-guides="{&quot;vertical&quot;:[],&quot;horizontal&quot;:[]}"><defs></defs><path fill="#fff8e9" stroke="none" fill-opacity="1" stroke-width="0" stroke-opacity="1" class="cls-1" id="tSvg77ab5539a3" title="Path 1" d="M0.1392 0C0.1392 94.4374 0.1392 188.8747 0.1392 283.3121C4.4541 285.4169 8.3481 290.0476 8.6638 298.467C8.4533 299.0984 28.9756 292.7839 30.449 291.7314C26.7655 291.521 55.7071 287.3113 51.6027 283.8383C52.9708 284.0488 72.3354 280.5758 72.8616 276.7871C78.6499 286.8903 100.3298 298.5722 95.3834 279.8391C98.4354 285.7326 114.9585 276.2608 116.7476 278.5762C115.4847 272.6826 137.9013 275.3137 138.8485 279.3129C135.7964 269.2096 160.0021 281.9439 160.0021 270.262C160.0021 276.7871 183.3659 288.9951 183.3659 285.5222C183.3659 276.4713 203.4672 253.1076 203.4672 265.4209C203.4672 266.789 226.41 283.4173 226.41 276.3661C226.41 274.156 244.1959 290.5738 244.1959 264.7894C244.1959 255.4229 263.0343 260.1588 263.0343 269.1044C263.0343 271.6302 279.5573 290.0476 279.5573 278.5762C279.5573 276.1556 304.184 269.5253 304.184 285.3117C304.184 297.7303 328.9159 294.6782 328.9159 295.4149C328.9159 299.5194 352.2797 300.9928 352.2797 303.5186C352.2797 300.1508 375.1173 288.048 375.1173 295.3097C375.1173 294.6782 396.3762 294.6782 396.3762 284.2592C396.3762 279.6286 418.5823 291.9419 418.5823 282.6806C418.5823 280.0496 440.4727 280.1548 440.4727 274.577C440.4727 282.5754 462.5735 286.0484 462.5735 288.9951C462.5735 279.9443 485.4111 259.9483 485.4111 275.1032C485.4111 282.1544 505.5124 296.8883 505.5124 296.3621C505.5124 283.733 527.7185 309.5174 527.7185 293.8363C527.7185 289.5214 549.1879 297.7303 549.1879 297.9407C549.1879 286.9955 569.0787 304.4658 569.0787 309.7279C569.0787 324.988 592.4424 302.4662 592.4424 305.2025C592.4424 307.9388 614.1223 292.2577 614.1223 308.7807C614.1223 316.5686 632.4345 340.3534 632.4345 325.5142C632.4345 335.407 654.0091 327.8295 654.0091 329.4082C654.0091 324.2513 678.9516 332.5654 678.9516 320.7783C678.9516 325.3037 698.2109 328.882 698.2109 333.8283C698.2109 326.4614 721.1537 341.932 721.1537 332.4602C721.1537 336.6699 742.9388 333.3021 742.9388 335.0912C742.9388 333.9336 762.9349 337.1961 762.9349 345.6155C762.9349 340.2481 783.8781 348.7727 783.8781 349.9304C783.8781 350.3514 803.8741 355.403 803.8741 360.4546C803.8741 352.7719 825.133 369.8212 825.133 364.4538C825.133 359.6127 846.4972 358.6655 846.4972 367.2954C846.4972 366.0325 868.8085 366.5587 868.8085 361.2966C868.8085 365.822 890.0675 361.507 890.0675 364.1381C890.0675 369.7159 911.0107 367.5058 911.0107 374.0309C911.0107 375.9252 932.4801 376.8724 932.4801 377.8196C932.4801 389.1857 954.2652 359.5074 954.2652 368.6635C954.2652 364.6643 975.8399 375.6095 975.8399 378.2406C975.8399 382.4502 997.204 354.2453 997.204 367.6111C997.204 375.399 1018.463 365.7167 1018.463 363.1909C1018.463 353.2981 1044.984 372.2417 1044.984 375.0833C1044.984 381.7136 1067.5058 347.9308 1067.5058 357.1921C1067.5058 370.7684 1091.0801 353.9296 1091.0801 351.509C1091.0801 349.4042 1111.3919 338.7747 1111.3919 337.1961C1111.3919 343.8263 1133.8085 331.8287 1133.8085 331.513C1133.8085 330.3553 1158.0142 318.9892 1158.0142 338.9852C1158.0142 337.3013 1179.3783 319.1997 1179.3783 319.4102C1179.3783 322.7779 1202.0054 334.7755 1202.0054 331.092C1202.0054 332.6707 1224.2115 333.9336 1224.2115 334.7755C1224.2115 337.3013 1248.2068 334.7755 1248.2068 333.9336C1248.2068 332.4602 1267.887 366.8744 1267.887 351.4038C1267.887 344.0368 1289.7774 370.0317 1289.7774 365.1905C1289.7774 363.8224 1315.3513 350.1409 1316.509 351.509C1319.0348 348.1413 1334.9263 352.351 1337.6626 348.7727C1342.0828 356.4554 1360.5002 344.6683 1362.3946 341.511C1364.7099 363.4014 1381.4434 340.7743 1384.6007 331.4078C1388.5999 340.1429 1396.0721 341.8267 1399.7556 340.6691C1399.7556 227.1127 1399.7556 113.5564 1399.7556 0C933.2168 0 466.678 0 0.1392 0Z"></path></svg> 