<?xml version="1.0" encoding="UTF-8"?> <svg xmlns="http://www.w3.org/2000/svg" width="222" height="58" viewBox="0 0 222 58" fill="none"><path d="M28.7877 6.07733C28.6437 6.29333 28.5717 6.36533 28.4277 6.36533C28.2837 6.36533 28.2117 6.22133 28.2117 6.07733C28.2117 4.49333 25.5477 2.54933 23.0277 2.54933C19.0677 2.54933 15.3957 3.77333 12.2277 6.65333C7.83571 10.6493 4.27171 16.1213 4.27171 22.9613C4.27171 25.4813 4.99171 27.6413 6.14371 29.2613C7.72771 31.4933 10.2477 32.5373 12.8037 32.5373C17.1957 32.5373 20.7957 29.6933 22.6317 26.8133C22.9917 26.2733 23.0997 25.9133 23.0997 25.6973C23.0997 25.3733 22.9917 25.3733 22.9917 25.1933C22.9917 25.0853 23.0997 25.0493 23.1717 25.0493C23.3157 25.0493 23.3517 25.2293 23.9997 25.6973C24.6117 26.1653 25.0077 26.2013 25.0077 26.5253C25.0077 26.8853 24.6837 27.3893 24.3957 27.7853C21.7317 31.5293 16.4757 33.5813 11.3637 33.5813C8.15971 33.5813 4.81171 32.6453 2.93971 30.3413C1.49971 28.5413 0.707711 26.1653 0.707711 23.6813C0.707711 16.8053 5.17171 10.5053 11.3637 5.96933C15.6117 2.83733 20.6157 0.965327 25.3317 0.965327C29.0757 0.965327 30.5157 3.34133 30.5157 3.77333C30.5157 4.42133 29.3637 5.06933 28.7877 6.07733ZM49.2484 29.3333C46.9444 31.1333 43.8484 33.2933 40.8964 33.2933C39.1324 33.2933 38.0884 32.4293 38.0884 30.3413C35.6404 31.8533 33.1564 33.0413 31.3564 33.0413C29.1244 33.0413 28.1884 31.3133 28.1884 29.0813C28.1884 23.6813 34.8484 16.6253 40.4284 16.6253C42.3364 16.6253 44.4244 17.7413 45.0724 20.0453C45.4324 20.0453 46.0084 20.1893 46.0084 20.8373C46.0084 23.0693 44.2084 24.6533 42.8404 26.0933C42.4084 26.5253 41.7604 27.1013 41.1844 27.6773C40.8244 28.6133 40.7524 29.4773 40.7524 30.0533C40.7524 30.7733 40.9684 31.9253 42.7684 31.9253C44.7844 31.9253 46.9444 30.4853 48.9604 28.9733C51.1204 27.3173 52.4164 25.7333 53.8564 23.9333C54.0004 23.7173 54.0724 23.7173 54.1444 23.7173C54.2164 23.7173 54.2884 23.7893 54.2884 23.8613C54.2884 23.9333 54.2884 23.9333 54.2164 24.0773C52.4164 26.5253 50.4724 28.3973 49.2484 29.3333ZM40.3204 17.4893C35.5684 17.4893 31.1764 24.2573 31.1764 29.0093C31.1764 30.2333 31.5004 31.8173 33.1564 31.8173C35.1004 31.8173 37.1164 30.4493 38.1604 29.6213C38.7364 27.6053 39.8884 25.1573 40.8964 23.7893C41.7604 22.5653 43.3444 20.6213 44.4964 20.1893C43.8484 18.5333 42.1924 17.4893 40.3204 17.4893ZM41.4364 26.8853C44.2444 24.0773 45.0724 22.4933 45.0724 21.9173C45.0724 21.7013 44.9284 21.6293 44.7844 21.6293C44.1364 21.6293 42.4084 24.8693 41.4364 26.8853ZM58.5473 35.9213C55.4153 36.9653 52.2473 37.8653 49.5113 38.8373C42.0593 41.4653 34.7153 46.3613 34.7153 52.1573C34.7153 54.6053 35.7593 56.5493 38.9993 56.5493C43.6073 56.5493 48.9713 52.8773 53.3633 45.0653C53.3633 45.0653 56.2433 40.0253 58.5473 35.9213ZM71.9393 29.3333C69.2033 31.6373 65.7113 33.3653 61.2113 34.9853C58.5833 39.3053 55.0553 44.8853 55.0553 44.8853C50.3393 52.4453 43.7153 57.8453 37.4513 57.8453C33.5273 57.8453 32.0153 54.8573 32.0153 52.6253C32.0153 44.5613 42.8513 40.3853 49.3313 38.1533C52.8593 36.9653 55.9913 36.0293 59.0153 35.0573C59.8073 33.6533 61.9313 29.8373 61.9313 29.8373C58.6193 32.5013 55.6313 33.1853 53.4713 33.1853C52.1393 33.1853 50.6273 32.3573 50.6273 30.8453C50.6273 26.5973 56.2433 21.9173 56.2433 18.5333C56.2433 17.8853 55.8833 17.5973 55.2353 17.5973C54.2273 17.5973 53.5073 17.9573 52.6433 18.5333C52.4273 18.6773 52.3553 18.7493 52.2833 18.7493C52.2113 18.7493 52.1393 18.6773 52.1393 18.6053C52.1393 18.5333 52.1393 18.4613 52.3553 18.3173C53.5073 17.5253 54.8753 16.7333 56.3153 16.7333C57.7553 16.7333 58.8353 17.4533 58.8353 19.0373C58.8353 21.4133 53.3993 27.4253 53.3993 30.1613C53.3993 31.3853 54.0473 31.9973 55.1993 31.9973C57.2513 31.9973 60.7073 30.2693 62.5073 28.7573L66.3953 21.2693C67.6193 18.9653 67.8353 17.8133 68.9873 17.6693C69.7073 17.5973 70.6433 17.5253 71.0033 17.5253C71.1473 17.5253 71.2193 17.6693 71.2193 17.7413C71.2193 18.1013 69.0953 21.4133 67.9793 23.3573C67.9793 23.3573 64.0913 30.2693 61.7513 34.1573C65.0993 32.9693 68.2673 31.4933 71.6513 28.9733C73.8113 27.3173 75.1073 25.7333 76.5473 23.9333C76.6913 23.7173 76.7633 23.7173 76.8353 23.7173C76.9073 23.7173 76.9793 23.7893 76.9793 23.8613C76.9793 23.9333 76.9793 23.9333 76.9073 24.0773C75.1073 26.5253 73.1633 28.3973 71.9393 29.3333ZM93.9671 29.3333C91.6631 31.1333 88.5671 33.2933 85.6151 33.2933C83.8511 33.2933 82.8071 32.4293 82.8071 30.3413C80.3591 31.8533 77.8751 33.0413 76.0751 33.0413C73.8431 33.0413 72.9071 31.3133 72.9071 29.0813C72.9071 23.6813 79.5671 16.6253 85.1471 16.6253C87.0551 16.6253 89.1431 17.7413 89.7911 20.0453C90.1511 20.0453 90.7271 20.1893 90.7271 20.8373C90.7271 23.0693 88.9271 24.6533 87.5591 26.0933C87.1271 26.5253 86.4791 27.1013 85.9031 27.6773C85.5431 28.6133 85.4711 29.4773 85.4711 30.0533C85.4711 30.7733 85.6871 31.9253 87.4871 31.9253C89.5031 31.9253 91.6631 30.4853 93.6791 28.9733C95.8391 27.3173 97.1351 25.7333 98.5751 23.9333C98.7191 23.7173 98.7911 23.7173 98.8631 23.7173C98.9351 23.7173 99.0071 23.7893 99.0071 23.8613C99.0071 23.9333 99.0071 23.9333 98.9351 24.0773C97.1351 26.5253 95.1911 28.3973 93.9671 29.3333ZM85.0391 17.4893C80.2871 17.4893 75.8951 24.2573 75.8951 29.0093C75.8951 30.2333 76.2191 31.8173 77.8751 31.8173C79.8191 31.8173 81.8351 30.4493 82.8791 29.6213C83.4551 27.6053 84.6071 25.1573 85.6151 23.7893C86.4791 22.5653 88.0631 20.6213 89.2151 20.1893C88.5671 18.5333 86.9111 17.4893 85.0391 17.4893ZM86.1551 26.8853C88.9631 24.0773 89.7911 22.4933 89.7911 21.9173C89.7911 21.7013 89.6471 21.6293 89.5031 21.6293C88.8551 21.6293 87.1271 24.8693 86.1551 26.8853ZM101.898 28.5053C98.2981 32.3213 95.7061 33.0053 94.7701 33.0053C93.6181 33.0053 92.3941 32.6453 92.3941 31.2053C92.3941 29.6213 93.3301 29.3693 94.1941 28.6493C95.3101 27.7133 95.8141 27.1013 96.0301 27.1013C96.0661 27.1013 96.1381 27.1373 96.1381 27.2093C96.1381 27.2813 96.0301 27.4613 95.8501 27.6413C94.9861 28.3973 94.5541 29.1893 94.5541 30.0533C94.5541 30.9893 95.1661 31.6373 96.1021 31.6373C97.3261 31.6373 99.7381 30.0173 102.222 27.3893C104.742 24.7253 106.578 22.4573 107.766 20.7293C108.63 19.4693 108.918 18.3173 109.71 17.5973C109.962 17.3453 110.61 17.0933 111.366 16.8053C111.906 16.5893 112.374 16.2653 112.554 16.2653C112.698 16.2653 112.77 16.3013 112.77 16.4813C112.77 16.8413 111.33 18.3893 110.358 20.3693C108.702 23.6813 107.046 27.0293 107.046 29.3693C107.046 30.6293 107.334 31.8173 109.134 31.8173C111.294 31.8173 113.778 30.4853 115.722 28.9733C117.882 27.3173 119.178 25.7333 120.618 23.9333C120.762 23.7173 120.834 23.7173 120.906 23.7173C120.978 23.7173 121.05 23.7893 121.05 23.8613C121.05 23.9333 121.05 23.9333 120.978 24.0773C119.178 26.5253 117.234 28.3973 116.01 29.3333C114.066 30.8453 110.682 33.0413 107.154 33.0413C105.138 33.0413 103.986 31.7813 103.986 30.0893C103.986 28.1093 105.03 26.0933 107.046 22.4933C106.002 23.7533 103.806 26.4893 101.898 28.5053ZM125.561 18.0653C125.561 19.6133 122.645 24.6173 122.645 24.6173C123.545 24.6893 124.193 24.7253 124.877 24.7253C126.785 24.7253 128.873 24.3293 130.961 23.3933C131.933 21.8093 133.949 18.7853 134.489 18.0653C135.101 17.2373 136.037 17.0573 136.865 16.9133C137.477 16.8053 138.125 16.5893 138.485 16.5893C138.629 16.5893 138.665 16.6613 138.665 16.7333C138.665 16.9493 137.693 17.2013 135.641 19.9373C132.869 23.6453 130.421 28.1093 130.421 30.4133C130.421 31.6013 130.925 32.3933 132.365 32.3933C133.949 32.3933 136.505 30.8453 138.953 28.9733C141.113 27.3173 142.409 25.7333 143.849 23.9333C143.993 23.7173 144.065 23.7173 144.137 23.7173C144.209 23.7173 144.281 23.7893 144.281 23.8613C144.281 23.9333 144.281 23.9333 144.209 24.0773C142.409 26.5253 140.465 28.3973 139.241 29.3333C136.505 31.5653 133.661 33.6893 130.493 33.6893C128.477 33.6893 127.577 32.6813 127.577 31.0613C127.577 29.3333 128.693 27.1733 130.385 24.5093C128.189 25.3733 126.209 25.6973 121.997 25.9133C121.349 27.2813 118.793 31.6373 118.073 32.8253C117.821 33.2213 116.957 33.2573 116.021 33.4013C115.409 33.5093 115.013 33.9053 114.797 33.9053C114.653 33.9053 114.581 33.8693 114.581 33.7253C114.581 33.5813 115.157 33.0413 116.165 31.3853C116.849 30.3053 118.145 28.1453 119.189 26.2013C119.045 25.1933 118.757 24.7613 118.757 24.4373C118.757 24.2573 118.973 24.0413 119.009 24.0413C119.261 24.0413 119.765 24.2213 120.269 24.2573C121.889 21.3773 122.789 19.5413 122.789 18.4613C122.789 17.5253 122.501 17.3093 122.069 17.3093C121.349 17.3093 120.269 17.9573 119.405 18.5333C119.189 18.6773 119.117 18.7493 119.045 18.7493C118.973 18.7493 118.901 18.6773 118.901 18.6053C118.901 18.5333 118.901 18.4613 119.117 18.3173C119.405 18.1013 121.853 16.3013 123.437 16.3013C124.877 16.3013 125.561 17.0573 125.561 18.0653ZM161.256 29.3333C158.952 31.1333 155.856 33.2933 152.904 33.2933C151.14 33.2933 150.096 32.4293 150.096 30.3413C147.648 31.8533 145.164 33.0413 143.364 33.0413C141.132 33.0413 140.196 31.3133 140.196 29.0813C140.196 23.6813 146.856 16.6253 152.436 16.6253C154.344 16.6253 156.432 17.7413 157.08 20.0453C157.44 20.0453 158.016 20.1893 158.016 20.8373C158.016 23.0693 156.216 24.6533 154.848 26.0933C154.416 26.5253 153.768 27.1013 153.192 27.6773C152.832 28.6133 152.76 29.4773 152.76 30.0533C152.76 30.7733 152.976 31.9253 154.776 31.9253C156.792 31.9253 158.952 30.4853 160.968 28.9733C163.128 27.3173 164.424 25.7333 165.864 23.9333C166.008 23.7173 166.08 23.7173 166.152 23.7173C166.224 23.7173 166.296 23.7893 166.296 23.8613C166.296 23.9333 166.296 23.9333 166.224 24.0773C164.424 26.5253 162.48 28.3973 161.256 29.3333ZM152.328 17.4893C147.576 17.4893 143.184 24.2573 143.184 29.0093C143.184 30.2333 143.508 31.8173 145.164 31.8173C147.108 31.8173 149.124 30.4493 150.168 29.6213C150.744 27.6053 151.896 25.1573 152.904 23.7893C153.768 22.5653 155.352 20.6213 156.504 20.1893C155.856 18.5333 154.2 17.4893 152.328 17.4893ZM153.444 26.8853C156.252 24.0773 157.08 22.4933 157.08 21.9173C157.08 21.7013 156.936 21.6293 156.792 21.6293C156.144 21.6293 154.416 24.8693 153.444 26.8853ZM184.991 29.3693C184.991 30.6293 185.351 31.8173 187.151 31.8173C189.311 31.8173 191.795 30.4853 193.739 28.9733C195.899 27.3173 197.195 25.7333 198.635 23.9333C198.779 23.7173 198.851 23.7173 198.923 23.7173C198.995 23.7173 199.067 23.7893 199.067 23.8613C199.067 23.9333 199.067 23.9333 198.995 24.0773C197.195 26.5253 195.251 28.3973 194.027 29.3333C192.083 30.8453 188.699 33.0413 185.171 33.0413C183.155 33.0413 181.967 31.7813 181.967 30.0893C181.967 28.3613 182.831 26.5253 184.091 24.1133C183.119 25.2653 181.931 26.5613 180.311 28.3253C177.467 31.4213 175.127 32.8613 173.399 32.8613C172.175 32.8613 171.203 32.2493 171.203 30.5573C171.203 28.8293 171.815 26.2373 173.687 22.6373C172.751 23.8973 171.095 26.4893 169.187 28.5053C165.587 32.3213 162.995 33.0053 162.059 33.0053C160.907 33.0053 159.683 32.6453 159.683 31.2053C159.683 29.6213 160.619 29.3693 161.483 28.6493C162.599 27.7133 163.103 27.1013 163.319 27.1013C163.355 27.1013 163.427 27.1373 163.427 27.2093C163.427 27.2813 163.319 27.4613 163.139 27.6413C162.275 28.3973 161.843 29.1893 161.843 30.0533C161.843 30.9893 162.455 31.6373 163.391 31.6373C164.615 31.6373 167.027 30.0173 169.511 27.3893C172.031 24.7253 173.255 22.4573 174.371 20.7293C175.199 19.4333 175.451 18.2813 176.243 17.5613C176.495 17.3093 177.359 16.9133 178.115 16.6613C178.547 16.5173 178.691 16.3013 178.871 16.3013C178.979 16.3013 179.015 16.3733 179.015 16.5173C179.015 16.8773 177.935 18.3893 176.963 20.3693C175.343 23.6813 174.227 27.5693 174.227 29.9093C174.227 31.0253 174.947 31.2053 175.307 31.2053C176.387 31.2053 178.043 30.1253 179.987 28.0373C181.211 26.7413 183.803 23.7533 185.423 21.2693C186.251 19.9733 187.043 18.2813 187.799 17.5253C188.051 17.2733 188.555 17.0213 189.311 16.7333C189.851 16.5173 190.679 16.3373 190.859 16.3373C191.003 16.3373 191.075 16.4813 191.075 16.6613C191.075 17.0213 189.383 18.3893 188.375 20.3693C186.683 23.6813 184.991 27.0293 184.991 29.3693ZM216.065 29.3333C213.761 31.1333 210.665 33.2933 207.713 33.2933C205.949 33.2933 204.905 32.4293 204.905 30.3413C202.457 31.8533 199.973 33.0413 198.173 33.0413C195.941 33.0413 195.005 31.3133 195.005 29.0813C195.005 23.6813 201.665 16.6253 207.245 16.6253C209.153 16.6253 211.241 17.7413 211.889 20.0453C212.249 20.0453 212.825 20.1893 212.825 20.8373C212.825 23.0693 211.025 24.6533 209.657 26.0933C209.225 26.5253 208.577 27.1013 208.001 27.6773C207.641 28.6133 207.569 29.4773 207.569 30.0533C207.569 30.7733 207.785 31.9253 209.585 31.9253C211.601 31.9253 213.761 30.4853 215.777 28.9733C217.937 27.3173 219.233 25.7333 220.673 23.9333C220.817 23.7173 220.889 23.7173 220.961 23.7173C221.033 23.7173 221.105 23.7893 221.105 23.8613C221.105 23.9333 221.105 23.9333 221.033 24.0773C219.233 26.5253 217.289 28.3973 216.065 29.3333ZM207.137 17.4893C202.385 17.4893 197.993 24.2573 197.993 29.0093C197.993 30.2333 198.317 31.8173 199.973 31.8173C201.917 31.8173 203.933 30.4493 204.977 29.6213C205.553 27.6053 206.705 25.1573 207.713 23.7893C208.577 22.5653 210.161 20.6213 211.313 20.1893C210.665 18.5333 209.009 17.4893 207.137 17.4893ZM208.253 26.8853C211.061 24.0773 211.889 22.4933 211.889 21.9173C211.889 21.7013 211.745 21.6293 211.601 21.6293C210.953 21.6293 209.225 24.8693 208.253 26.8853Z" fill="#2F2402"></path></svg> 