<?xml version="1.0" encoding="UTF-8"?> <svg xmlns="http://www.w3.org/2000/svg" width="288" height="68" viewBox="0 0 288 68" fill="none"><path d="M15.8122 10.4468C22.0042 10.4468 40.5442 11.2748 46.9522 11.2748C50.3362 11.2748 52.3162 10.3388 52.5322 9.18677C52.5682 8.97077 52.7122 8.53877 52.8922 8.53877C53.1082 8.53877 53.1802 8.75477 53.1802 8.86277C53.1802 10.3748 49.3282 13.0388 45.1522 13.0388H43.9282C40.1842 19.2308 35.7202 29.4908 34.1002 33.4148C33.2362 35.5028 32.6242 37.3748 32.6242 38.8148C32.6242 39.8228 33.0562 41.4068 35.2162 41.4068C36.7642 41.4068 39.5722 40.3988 42.1642 38.4548C44.3242 36.7988 45.6202 35.2148 47.0602 33.4148C47.2042 33.1988 47.2762 33.1988 47.3482 33.1988C47.4202 33.1988 47.4922 33.2708 47.4922 33.3428C47.4922 33.4148 47.4922 33.4148 47.4202 33.5588C45.6202 36.0068 43.6762 37.8788 42.4522 38.8148C40.0762 40.6148 36.6562 42.9188 33.2722 42.9188C30.8242 42.9188 29.3842 41.7308 29.3842 39.7868C29.3842 38.4548 30.2122 35.8628 31.0762 33.7748C33.5962 27.6548 37.7002 19.5908 40.9762 12.9668C38.3122 12.8948 35.0002 12.7868 31.5442 12.6788C27.9442 21.0308 21.2122 35.5388 18.6562 40.6508C17.7922 42.4148 17.2522 42.1988 15.5962 42.5228C14.6602 42.7028 14.3002 42.9188 14.0482 42.9188C13.9042 42.9188 13.7962 42.9188 13.7962 42.7028C13.7962 42.4868 14.4442 41.7668 15.1282 40.5428C19.1242 33.4508 24.7402 21.7508 28.7002 12.5708C25.5682 12.4628 22.5082 12.3548 19.9162 12.2828C17.6122 17.4668 14.8402 23.1908 13.0042 26.7188C10.2322 31.9388 8.14423 36.0068 6.09223 40.1468C5.04823 42.2348 4.68823 42.1628 3.21223 42.3428C1.62823 42.5228 1.19623 42.9548 0.728227 42.9548C0.548227 42.9548 0.476227 42.8468 0.476227 42.7748C0.476227 42.5588 0.800227 42.4508 1.70023 41.1908C3.39223 38.8148 4.72423 36.6548 6.48823 33.4148C9.87223 27.2228 14.5882 19.0508 17.0362 12.2108C15.9922 12.1748 15.1282 12.1748 14.4442 12.1748C11.0242 12.1748 8.75623 13.1108 7.67623 14.1908C7.24423 14.6228 7.02823 14.9108 6.88423 14.9108C6.74023 14.9108 6.66823 14.8388 6.66823 14.6948C6.66823 14.5508 6.95623 14.1908 7.46023 13.6868C9.40423 11.7068 12.1762 10.4468 15.8122 10.4468ZM55.905 26.1068C58.641 26.1068 60.369 27.9788 60.369 30.8588C60.369 37.4468 53.421 42.9188 47.985 42.9188C45.285 42.9188 43.377 40.9748 43.377 38.2748C43.377 32.0828 50.469 26.1068 55.905 26.1068ZM54.861 26.8988C50.937 26.8988 46.437 33.0188 46.437 37.8788C46.437 40.2188 47.553 41.9828 49.101 41.9828C53.061 41.9828 57.453 35.7548 57.453 30.8948C57.453 28.5908 56.481 26.8988 54.861 26.8988ZM77.5975 21.4628C75.2935 21.4628 74.7175 20.0228 74.7175 18.7988C74.7175 18.2948 74.8615 17.7908 75.0775 17.2148C75.2215 16.8548 76.3015 16.2788 76.7335 16.2788C76.8055 16.2788 76.8055 16.3508 76.8055 16.3508C76.8055 16.4228 76.4455 17.1428 76.4455 17.9348C76.4455 19.5908 77.7415 20.4548 79.2535 20.4548C80.3335 20.4548 82.5655 20.0228 84.4375 17.2868C84.5815 17.1428 85.0135 16.7828 85.5175 16.5668C85.8775 16.4228 86.0935 16.3508 86.1655 16.3508H86.2375C86.2375 16.7828 81.8455 21.4628 77.5975 21.4628ZM85.9855 38.8148C83.2495 41.1188 79.4695 42.7388 77.3095 42.7388C75.8695 42.7388 75.0415 41.8388 75.0415 40.7228C75.0415 40.0028 75.1855 39.2468 75.5455 38.3108C74.1775 39.6068 70.9735 42.9548 67.1935 42.9548C65.6455 42.9548 63.6655 42.1628 63.6655 39.7508C63.6655 36.2948 69.3535 30.3548 69.3535 27.9428C69.3535 27.2948 69.2815 26.7908 68.6335 26.7908C67.6255 26.7908 66.8335 27.4388 65.9695 28.0148C65.7535 28.1588 65.6815 28.2308 65.6095 28.2308C65.5375 28.2308 65.4655 28.1588 65.4655 28.0868C65.4655 28.0148 65.4655 27.9428 65.6815 27.7988C66.8335 27.0068 68.5615 25.7828 70.0015 25.7828C71.4415 25.7828 72.0895 26.4308 72.0895 27.7988C72.0895 30.0308 66.5455 36.4748 66.5455 39.2468C66.5455 40.6868 67.2295 41.4068 68.8495 41.4068C70.9735 41.4068 73.8895 39.2108 76.1215 37.0508C77.4535 34.2428 79.8295 29.8868 80.6935 28.4468C81.3415 27.3668 81.9895 26.3228 82.4935 26.3228C82.8895 26.3228 84.1855 26.7188 84.1855 27.4748C84.1855 28.5908 81.2695 31.3628 79.8295 33.9548C78.9295 35.5748 77.6335 37.5908 77.6335 39.7148C77.6335 40.6508 78.2095 41.4428 79.3615 41.4428C80.9095 41.4428 83.6815 40.1108 85.6975 38.4548C87.8575 36.7988 89.1535 35.2148 90.5935 33.4148C90.7375 33.1988 90.8095 33.1988 90.8815 33.1988C90.9535 33.1988 91.0255 33.2708 91.0255 33.3428C91.0255 33.4148 91.0255 33.4148 90.9535 33.5588C89.1535 36.0068 87.2095 37.8788 85.9855 38.8148ZM126.821 8.46677C127.505 7.24277 130.889 0.94277 136.325 0.94277C138.845 0.94277 140.717 2.34677 143.561 2.34677C146.765 2.34677 147.017 1.15877 147.413 1.15877C147.485 1.15877 147.521 1.23077 147.521 1.33877C147.521 1.41077 145.973 3.96677 141.941 3.96677C138.629 3.96677 137.693 2.77877 135.065 2.77877C132.113 2.77877 129.845 4.11077 128.081 10.1948C125.921 17.5748 124.805 22.2188 120.737 30.3548C117.965 35.9348 111.917 42.9908 105.797 42.9908C103.349 42.9908 101.909 41.8388 101.909 39.3188C101.909 33.2708 109.325 26.4308 114.437 26.4308C117.389 26.4308 117.965 28.6988 117.965 28.8428C117.965 28.9868 117.605 29.1308 117.173 29.4188C116.885 29.5628 116.381 30.0668 116.237 30.0668C116.165 30.0668 116.093 29.9948 116.093 29.7068C116.093 29.3468 115.445 27.4388 113.285 27.4388C108.605 27.4388 104.717 34.2068 104.717 38.9588C104.717 40.8308 105.797 41.6948 107.453 41.6948C112.385 41.6948 116.525 34.3868 118.505 30.0308C122.717 20.8148 123.833 13.7588 126.821 8.46677ZM144.805 38.8148C142.501 40.6148 139.405 42.7748 136.453 42.7748C134.689 42.7748 133.645 41.9108 133.645 39.8228C131.197 41.3348 128.713 42.5228 126.913 42.5228C124.681 42.5228 123.745 40.7948 123.745 38.5628C123.745 33.1628 130.405 26.1068 135.985 26.1068C137.893 26.1068 139.981 27.2228 140.629 29.5268C140.989 29.5268 141.565 29.6708 141.565 30.3188C141.565 32.5508 139.765 34.1348 138.397 35.5748C137.965 36.0068 137.317 36.5828 136.741 37.1588C136.381 38.0948 136.309 38.9588 136.309 39.5348C136.309 40.2548 136.525 41.4068 138.325 41.4068C140.341 41.4068 142.501 39.9668 144.517 38.4548C146.677 36.7988 147.973 35.2148 149.413 33.4148C149.557 33.1988 149.629 33.1988 149.701 33.1988C149.773 33.1988 149.845 33.2708 149.845 33.3428C149.845 33.4148 149.845 33.4148 149.773 33.5588C147.973 36.0068 146.029 37.8788 144.805 38.8148ZM135.877 26.9708C131.125 26.9708 126.733 33.7388 126.733 38.4908C126.733 39.7148 127.057 41.2988 128.713 41.2988C130.657 41.2988 132.673 39.9308 133.717 39.1028C134.293 37.0868 135.445 34.6388 136.453 33.2708C137.317 32.0468 138.901 30.1028 140.053 29.6708C139.405 28.0148 137.749 26.9708 135.877 26.9708ZM136.993 36.3668C139.801 33.5588 140.629 31.9748 140.629 31.3988C140.629 31.1828 140.485 31.1108 140.341 31.1108C139.693 31.1108 137.965 34.3508 136.993 36.3668ZM161.844 38.8148C158.676 41.1188 155.436 43.1348 151.332 43.1348C148.596 43.1348 145.752 42.0548 145.752 38.4188C145.752 32.1908 154.14 26.1068 158.028 26.1068C159.18 26.1068 159.9 26.9708 159.9 28.1948C159.9 29.0588 159.828 29.2748 158.532 29.9948C158.1 30.2108 157.74 30.3548 157.524 30.3548C157.452 30.3548 157.38 30.3548 157.38 30.2828C157.38 30.2108 157.524 29.9948 157.524 29.4908C157.524 28.1228 156.516 27.5468 155.868 27.5468C152.844 27.5468 148.704 34.0988 148.704 38.3108C148.704 40.7948 149.964 42.1988 152.628 42.1988C155.508 42.1988 158.82 40.4708 161.556 38.4548C163.716 36.7988 165.012 35.2148 166.452 33.4148C166.596 33.1988 166.668 33.1988 166.74 33.1988C166.812 33.1988 166.884 33.2708 166.884 33.3428C166.884 33.4148 166.884 33.4148 166.812 33.5588C165.012 36.0068 163.068 37.8788 161.844 38.8148ZM171.372 27.5468C171.372 28.5908 170.868 29.8508 170.328 30.8588C171.408 29.9228 174.684 26.4668 176.736 26.4668C177.528 26.4668 178.068 27.1508 178.068 28.1588C178.068 29.5268 177.312 31.2548 177.312 31.2548C177.312 31.2548 182.208 26.2148 185.664 26.2148C186.816 26.2148 187.788 26.9348 187.788 28.0148C187.788 31.0388 179.76 37.3748 179.76 46.8068C179.76 50.0468 181.488 53.7548 185.52 53.7548C189.516 53.7548 194.592 49.4708 196.752 46.3028C196.896 46.0868 196.968 46.0868 197.04 46.0868C197.112 46.0868 197.184 46.1588 197.184 46.2308C197.184 46.3028 197.184 46.3028 197.112 46.4468C194.016 50.6228 188.76 54.7988 184.224 54.7988C180.264 54.7988 177.312 51.7028 177.312 47.2388C177.312 38.6708 184.224 31.8668 184.224 29.0228C184.224 28.5188 183.936 28.0868 183.36 28.0868C181.344 28.0868 178.14 31.0388 176.52 32.7308C175.692 33.5948 174.792 34.6748 173.496 34.6748C173.424 34.6748 173.388 34.6388 173.388 34.5668C173.388 34.1708 173.892 34.1708 174.036 33.7388C174.036 33.7388 175.512 30.4988 175.512 29.3468C175.512 28.9148 175.296 28.3388 174.684 28.3388C173.316 28.3388 171.264 30.3908 169.824 32.3348C168.024 34.7108 166.224 38.3828 164.424 42.0188C164.136 42.5948 163.128 42.1988 162.3 42.4868C161.616 42.7388 161.292 42.9188 161.112 42.9188C161.004 42.9188 160.932 42.8108 160.932 42.7388C160.932 42.6668 161.076 42.5588 161.256 42.3068C162.264 40.8308 165 36.0428 166.44 33.4148C167.916 30.7868 168.6 28.7708 168.6 27.9428C168.6 27.0068 168.312 26.7908 167.88 26.7908C167.16 26.7908 166.08 27.4388 165.216 28.0148C165 28.1588 164.928 28.2308 164.856 28.2308C164.784 28.2308 164.712 28.1588 164.712 28.0868C164.712 28.0148 164.712 27.9428 164.928 27.7988C165.216 27.5828 167.664 25.7828 169.248 25.7828C170.688 25.7828 171.372 26.5388 171.372 27.5468ZM210.864 38.8148C208.56 40.6148 205.464 42.7748 202.512 42.7748C200.748 42.7748 199.704 41.9108 199.704 39.8228C197.256 41.3348 194.772 42.5228 192.972 42.5228C190.74 42.5228 189.804 40.7948 189.804 38.5628C189.804 33.1628 196.464 26.1068 202.044 26.1068C203.952 26.1068 206.04 27.2228 206.688 29.5268C207.048 29.5268 207.624 29.6708 207.624 30.3188C207.624 32.5508 205.824 34.1348 204.456 35.5748C204.024 36.0068 203.376 36.5828 202.8 37.1588C202.44 38.0948 202.368 38.9588 202.368 39.5348C202.368 40.2548 202.584 41.4068 204.384 41.4068C206.4 41.4068 208.56 39.9668 210.576 38.4548C212.736 36.7988 214.032 35.2148 215.472 33.4148C215.616 33.1988 215.688 33.1988 215.76 33.1988C215.832 33.1988 215.904 33.2708 215.904 33.3428C215.904 33.4148 215.904 33.4148 215.832 33.5588C214.032 36.0068 212.088 37.8788 210.864 38.8148ZM201.936 26.9708C197.184 26.9708 192.792 33.7388 192.792 38.4908C192.792 39.7148 193.116 41.2988 194.772 41.2988C196.716 41.2988 198.732 39.9308 199.776 39.1028C200.352 37.0868 201.504 34.6388 202.512 33.2708C203.376 32.0468 204.96 30.1028 206.112 29.6708C205.464 28.0148 203.808 26.9708 201.936 26.9708ZM203.052 36.3668C205.86 33.5588 206.688 31.9748 206.688 31.3988C206.688 31.1828 206.544 31.1108 206.4 31.1108C205.752 31.1108 204.024 34.3508 203.052 36.3668ZM218.795 37.9868C215.195 41.8028 212.603 42.4868 211.667 42.4868C210.515 42.4868 209.291 42.1268 209.291 40.6868C209.291 39.1028 210.227 38.8508 211.091 38.1308C212.207 37.1948 212.711 36.5828 212.927 36.5828C212.963 36.5828 213.035 36.6188 213.035 36.6908C213.035 36.7628 212.927 36.9428 212.747 37.1228C211.883 37.8788 211.451 38.6708 211.451 39.5348C211.451 40.4708 212.063 41.1188 212.999 41.1188C214.223 41.1188 216.635 39.4988 219.119 36.8708C221.639 34.2068 223.475 31.9388 224.663 30.2108C225.527 28.9508 225.815 27.7988 226.607 27.0788C226.859 26.8268 227.507 26.5748 228.263 26.2868C228.803 26.0708 229.271 25.7468 229.451 25.7468C229.595 25.7468 229.667 25.7828 229.667 25.9628C229.667 26.3228 228.227 27.8708 227.255 29.8508C225.599 33.1628 223.943 36.5108 223.943 38.8508C223.943 40.1108 224.231 41.2988 226.031 41.2988C228.191 41.2988 230.675 39.9668 232.619 38.4548C234.779 36.7988 236.075 35.2148 237.515 33.4148C237.659 33.1988 237.731 33.1988 237.803 33.1988C237.875 33.1988 237.947 33.2708 237.947 33.3428C237.947 33.4148 237.947 33.4148 237.875 33.5588C236.075 36.0068 234.131 37.8788 232.907 38.8148C230.963 40.3268 227.579 42.5228 224.051 42.5228C222.035 42.5228 220.883 41.2628 220.883 39.5708C220.883 37.5908 221.927 35.5748 223.943 31.9748C222.899 33.2348 220.703 35.9708 218.795 37.9868ZM242.206 45.4028C239.074 46.4468 235.906 47.3468 233.17 48.3188C225.718 50.9468 218.374 55.8428 218.374 61.6388C218.374 64.0868 219.418 66.0308 222.658 66.0308C227.266 66.0308 232.63 62.3588 237.022 54.5468C237.022 54.5468 239.902 49.5068 242.206 45.4028ZM255.598 38.8148C252.862 41.1188 249.37 42.8468 244.87 44.4668C242.242 48.7868 238.714 54.3668 238.714 54.3668C233.998 61.9268 227.374 67.3268 221.11 67.3268C217.186 67.3268 215.674 64.3388 215.674 62.1068C215.674 54.0428 226.51 49.8668 232.99 47.6348C236.518 46.4468 239.65 45.5108 242.674 44.5388C243.466 43.1348 245.59 39.3188 245.59 39.3188C242.278 41.9828 239.29 42.6668 237.13 42.6668C235.798 42.6668 234.286 41.8388 234.286 40.3268C234.286 36.0788 239.902 31.3988 239.902 28.0148C239.902 27.3668 239.542 27.0788 238.894 27.0788C237.886 27.0788 237.166 27.4388 236.302 28.0148C236.086 28.1588 236.014 28.2308 235.942 28.2308C235.87 28.2308 235.798 28.1588 235.798 28.0868C235.798 28.0148 235.798 27.9428 236.014 27.7988C237.166 27.0068 238.534 26.2148 239.974 26.2148C241.414 26.2148 242.494 26.9348 242.494 28.5188C242.494 30.8948 237.058 36.9068 237.058 39.6428C237.058 40.8668 237.706 41.4788 238.858 41.4788C240.91 41.4788 244.366 39.7508 246.166 38.2388L250.054 30.7508C251.278 28.4468 251.494 27.2948 252.646 27.1508C253.366 27.0788 254.302 27.0068 254.662 27.0068C254.806 27.0068 254.878 27.1508 254.878 27.2228C254.878 27.5828 252.754 30.8948 251.638 32.8388C251.638 32.8388 247.75 39.7508 245.41 43.6388C248.758 42.4508 251.926 40.9748 255.31 38.4548C257.47 36.7988 258.766 35.2148 260.206 33.4148C260.35 33.1988 260.422 33.1988 260.494 33.1988C260.566 33.1988 260.638 33.2708 260.638 33.3428C260.638 33.4148 260.638 33.4148 260.566 33.5588C258.766 36.0068 256.822 37.8788 255.598 38.8148ZM278.777 26.5028C279.173 26.5028 280.325 26.7188 280.325 27.4748C280.325 28.8428 277.517 31.1468 276.329 33.7388C275.573 35.4308 274.385 38.3108 274.385 39.6788C274.385 40.8668 275.321 41.3708 276.041 41.3708C277.697 41.3708 280.649 40.1108 282.665 38.4548C284.825 36.7988 286.121 35.2148 287.561 33.4148C287.705 33.1988 287.777 33.1988 287.849 33.1988C287.921 33.1988 287.993 33.2708 287.993 33.3428C287.993 33.4148 287.993 33.4148 287.921 33.5588C286.121 36.0068 284.177 37.8788 282.953 38.8148C280.217 41.1188 276.365 42.8108 274.205 42.8108C272.801 42.8108 271.793 42.0548 271.793 40.7588C271.793 38.7428 273.449 35.6828 274.421 33.6668C273.845 33.9548 272.909 34.0988 272.369 34.0988C271.685 34.0988 270.821 33.8828 270.821 33.8828C270.029 38.4548 265.169 42.6668 260.813 42.6668C258.113 42.6308 257.033 41.2988 257.033 38.6348C257.033 35.1788 260.921 29.6348 262.217 27.7988C262.433 27.4748 262.685 27.3668 262.937 27.3308C264.953 26.9708 265.637 26.5028 266.429 26.5028C266.645 26.5028 266.681 26.6468 266.681 26.7908C266.681 26.9348 265.565 27.1508 264.521 28.5548C263.189 30.3548 259.841 35.1068 259.841 38.5628C259.841 40.5428 260.597 41.6948 262.361 41.6948C265.817 41.6948 268.553 37.0148 268.553 34.6388C268.553 34.0268 268.553 33.4508 268.049 32.8748C267.617 32.5868 266.429 31.7948 266.429 31.5788C266.429 31.1468 266.969 31.0748 267.437 30.7868C268.265 30.2828 268.589 29.9588 268.805 29.9588C268.985 29.9588 269.057 30.5348 269.237 30.7868C269.705 31.4708 270.821 33.3428 272.945 33.3428C273.557 33.3428 274.349 33.1988 274.745 32.9828C275.609 31.1828 277.625 26.5028 278.777 26.5028Z" fill="white"></path></svg> 