<?xml version="1.0" encoding="UTF-8"?> <svg xmlns="http://www.w3.org/2000/svg" width="289" height="112" viewBox="0 0 289 112" fill="none"><path d="M46.2536 2.44677C52.4456 2.44677 70.9856 3.27477 77.3936 3.27477C80.7776 3.27477 82.7576 2.33877 82.9736 1.18677C83.0096 0.970772 83.1536 0.538771 83.3336 0.538771C83.5496 0.538771 83.6216 0.754772 83.6216 0.862771C83.6216 2.37477 79.7696 5.03877 75.5936 5.03877H74.3696C70.6256 11.2308 66.1616 21.4908 64.5416 25.4148C63.6776 27.5028 63.0656 29.3748 63.0656 30.8148C63.0656 31.8228 63.4976 33.4068 65.6576 33.4068C67.2056 33.4068 70.0136 32.3988 72.6056 30.4548C74.7656 28.7988 76.0616 27.2148 77.5016 25.4148C77.6456 25.1988 77.7176 25.1988 77.7896 25.1988C77.8616 25.1988 77.9336 25.2708 77.9336 25.3428C77.9336 25.4148 77.9336 25.4148 77.8616 25.5588C76.0616 28.0068 74.1176 29.8788 72.8936 30.8148C70.5176 32.6148 67.0976 34.9188 63.7136 34.9188C61.2656 34.9188 59.8256 33.7308 59.8256 31.7868C59.8256 30.4548 60.6536 27.8628 61.5176 25.7748C64.0376 19.6548 68.1416 11.5908 71.4176 4.96677C68.7536 4.89477 65.4416 4.78677 61.9856 4.67877C58.3856 13.0308 51.6536 27.5388 49.0976 32.6508C48.2336 34.4148 47.6936 34.1988 46.0376 34.5228C45.1016 34.7028 44.7416 34.9188 44.4896 34.9188C44.3456 34.9188 44.2376 34.9188 44.2376 34.7028C44.2376 34.4868 44.8856 33.7668 45.5696 32.5428C49.5656 25.4508 55.1816 13.7508 59.1416 4.57077C56.0096 4.46277 52.9496 4.35477 50.3576 4.28277C48.0536 9.46677 45.2816 15.1908 43.4456 18.7188C40.6736 23.9388 38.5856 28.0068 36.5336 32.1468C35.4896 34.2348 35.1296 34.1628 33.6536 34.3428C32.0696 34.5228 31.6376 34.9548 31.1696 34.9548C30.9896 34.9548 30.9176 34.8468 30.9176 34.7748C30.9176 34.5588 31.2416 34.4508 32.1416 33.1908C33.8336 30.8148 35.1656 28.6548 36.9296 25.4148C40.3136 19.2228 45.0296 11.0508 47.4776 4.21077C46.4336 4.17477 45.5696 4.17477 44.8856 4.17477C41.4656 4.17477 39.1976 5.11077 38.1176 6.19077C37.6856 6.62277 37.4696 6.91077 37.3256 6.91077C37.1816 6.91077 37.1096 6.83877 37.1096 6.69477C37.1096 6.55077 37.3976 6.19077 37.9016 5.68677C39.8456 3.70677 42.6176 2.44677 46.2536 2.44677ZM86.3464 18.1068C89.0824 18.1068 90.8104 19.9788 90.8104 22.8588C90.8104 29.4468 83.8624 34.9188 78.4264 34.9188C75.7264 34.9188 73.8184 32.9748 73.8184 30.2748C73.8184 24.0828 80.9104 18.1068 86.3464 18.1068ZM85.3024 18.8988C81.3784 18.8988 76.8784 25.0188 76.8784 29.8788C76.8784 32.2188 77.9944 33.9828 79.5424 33.9828C83.5024 33.9828 87.8944 27.7548 87.8944 22.8948C87.8944 20.5908 86.9224 18.8988 85.3024 18.8988ZM108.039 13.4628C105.735 13.4628 105.159 12.0228 105.159 10.7988C105.159 10.2948 105.303 9.79077 105.519 9.21477C105.663 8.85477 106.743 8.27877 107.175 8.27877C107.247 8.27877 107.247 8.35077 107.247 8.35077C107.247 8.42277 106.887 9.14277 106.887 9.93477C106.887 11.5908 108.183 12.4548 109.695 12.4548C110.775 12.4548 113.007 12.0228 114.879 9.28677C115.023 9.14277 115.455 8.78277 115.959 8.56677C116.319 8.42277 116.535 8.35077 116.607 8.35077H116.679C116.679 8.78277 112.287 13.4628 108.039 13.4628ZM116.427 30.8148C113.691 33.1188 109.911 34.7388 107.751 34.7388C106.311 34.7388 105.483 33.8388 105.483 32.7228C105.483 32.0028 105.627 31.2468 105.987 30.3108C104.619 31.6068 101.415 34.9548 97.6349 34.9548C96.0869 34.9548 94.1069 34.1628 94.1069 31.7508C94.1069 28.2948 99.7949 22.3548 99.7949 19.9428C99.7949 19.2948 99.7229 18.7908 99.0749 18.7908C98.0669 18.7908 97.2749 19.4388 96.4109 20.0148C96.1949 20.1588 96.1229 20.2308 96.0509 20.2308C95.9789 20.2308 95.9069 20.1588 95.9069 20.0868C95.9069 20.0148 95.9069 19.9428 96.1229 19.7988C97.2749 19.0068 99.0029 17.7828 100.443 17.7828C101.883 17.7828 102.531 18.4308 102.531 19.7988C102.531 22.0308 96.9869 28.4748 96.9869 31.2468C96.9869 32.6868 97.6709 33.4068 99.2909 33.4068C101.415 33.4068 104.331 31.2108 106.563 29.0508C107.895 26.2428 110.271 21.8868 111.135 20.4468C111.783 19.3668 112.431 18.3228 112.935 18.3228C113.331 18.3228 114.627 18.7188 114.627 19.4748C114.627 20.5908 111.711 23.3628 110.271 25.9548C109.371 27.5748 108.075 29.5908 108.075 31.7148C108.075 32.6508 108.651 33.4428 109.803 33.4428C111.351 33.4428 114.123 32.1108 116.139 30.4548C118.299 28.7988 119.595 27.2148 121.035 25.4148C121.179 25.1988 121.251 25.1988 121.323 25.1988C121.395 25.1988 121.467 25.2708 121.467 25.3428C121.467 25.4148 121.467 25.4148 121.395 25.5588C119.595 28.0068 117.651 29.8788 116.427 30.8148ZM150.314 6.33477C150.314 10.5468 140.414 21.8508 140.414 28.5468C140.414 31.7868 142.106 33.3348 144.698 33.3348C149.666 33.3348 155.318 27.7188 159.674 21.3828C162.626 14.8308 165.11 10.1508 166.55 7.09077C167.126 5.83077 167.63 5.21877 168.926 4.82277C170.618 4.28277 171.59 3.95877 172.058 3.95877C172.274 3.95877 172.346 4.10277 172.346 4.24677C172.346 4.49877 171.59 4.53477 170.942 5.50677C169.358 7.91877 164.534 16.1268 162.302 21.3108C159.962 26.7108 159.206 28.5468 159.206 30.9948C159.206 32.2188 159.746 33.4068 161.114 33.4068C162.482 33.4068 164.786 32.3988 167.378 30.4548C169.538 28.7988 170.834 27.2148 172.274 25.4148C172.418 25.1988 172.49 25.1988 172.562 25.1988C172.634 25.1988 172.706 25.2708 172.706 25.3428C172.706 25.4148 172.706 25.4148 172.634 25.5588C170.834 28.0068 168.89 29.8788 167.666 30.8148C165.29 32.6148 161.834 34.7028 159.17 34.7028C156.938 34.7028 155.786 33.6228 155.786 31.2108C155.786 29.2668 157.442 26.3148 158.018 25.0188H157.982C153.806 29.8428 148.478 34.9548 143.078 34.9548C139.622 34.9548 137.138 33.1908 137.138 29.4108C137.138 23.1108 147.182 10.2228 147.182 6.29877C147.182 5.29077 146.678 3.88677 145.274 3.88677C144.302 3.88677 142.862 4.03077 140.702 6.19077C140.27 6.62277 140.054 6.91077 139.91 6.91077C139.766 6.91077 139.694 6.83877 139.694 6.69477C139.694 6.55077 139.982 6.19077 140.486 5.68677C142.862 3.23877 144.95 2.44677 146.822 2.44677C148.55 2.44677 150.314 3.77877 150.314 6.33477ZM172.704 25.2708C179.004 23.7588 179.832 21.5628 179.832 20.0868C179.832 19.6188 179.544 19.0788 178.896 19.0788C176.736 19.0788 174.36 22.0308 172.704 25.2708ZM173.172 34.9188C170.652 34.9188 168.312 33.5508 168.312 30.6348C168.312 24.0108 176.844 18.1068 180.552 18.1068C181.488 18.1068 182.424 18.7188 182.424 19.9068C182.424 20.8788 180.192 24.6948 172.38 26.0268C171.876 27.0348 171.228 28.3668 171.228 30.5988C171.228 32.9028 172.776 33.9828 174.72 33.9828C177.132 33.9828 180.912 32.3268 183.36 30.4548C185.52 28.7988 186.816 27.2148 188.256 25.4148C188.4 25.1988 188.472 25.1988 188.544 25.1988C188.616 25.1988 188.688 25.2708 188.688 25.3428C188.688 25.4148 188.688 25.4148 188.616 25.5588C186.816 28.0068 184.872 29.8788 183.648 30.8148C180.912 33.0468 177.132 34.9188 173.172 34.9188ZM191.58 29.9868C187.98 33.8028 185.388 34.4868 184.452 34.4868C183.3 34.4868 182.076 34.1268 182.076 32.6868C182.076 31.1028 183.012 30.8508 183.876 30.1308C184.992 29.1948 185.496 28.5828 185.712 28.5828C185.748 28.5828 185.82 28.6188 185.82 28.6908C185.82 28.7628 185.712 28.9428 185.532 29.1228C184.668 29.8788 184.236 30.6708 184.236 31.5348C184.236 32.4708 184.848 33.1188 185.784 33.1188C187.008 33.1188 189.42 31.4988 191.904 28.8708C194.424 26.2068 196.26 23.9388 197.448 22.2108C198.312 20.9508 198.6 19.7988 199.392 19.0788C199.644 18.8268 200.292 18.5748 201.048 18.2868C201.588 18.0708 202.056 17.7468 202.236 17.7468C202.38 17.7468 202.452 17.7828 202.452 17.9628C202.452 18.3228 201.012 19.8708 200.04 21.8508C198.384 25.1628 196.728 28.5108 196.728 30.8508C196.728 32.1108 197.016 33.2988 198.816 33.2988C200.976 33.2988 203.46 31.9668 205.404 30.4548C207.564 28.7988 208.86 27.2148 210.3 25.4148C210.444 25.1988 210.516 25.1988 210.588 25.1988C210.66 25.1988 210.732 25.2708 210.732 25.3428C210.732 25.4148 210.732 25.4148 210.66 25.5588C208.86 28.0068 206.916 29.8788 205.692 30.8148C203.748 32.3268 200.364 34.5228 196.836 34.5228C194.82 34.5228 193.668 33.2628 193.668 31.5708C193.668 29.5908 194.712 27.5748 196.728 23.9748C195.684 25.2348 193.488 27.9708 191.58 29.9868ZM210.743 25.2708C217.043 23.7588 217.871 21.5628 217.871 20.0868C217.871 19.6188 217.583 19.0788 216.935 19.0788C214.775 19.0788 212.399 22.0308 210.743 25.2708ZM211.211 34.9188C208.691 34.9188 206.351 33.5508 206.351 30.6348C206.351 24.0108 214.883 18.1068 218.591 18.1068C219.527 18.1068 220.463 18.7188 220.463 19.9068C220.463 20.8788 218.231 24.6948 210.419 26.0268C209.915 27.0348 209.267 28.3668 209.267 30.5988C209.267 32.9028 210.815 33.9828 212.759 33.9828C215.171 33.9828 218.951 32.3268 221.399 30.4548C223.559 28.7988 224.855 27.2148 226.295 25.4148C226.439 25.1988 226.511 25.1988 226.583 25.1988C226.655 25.1988 226.727 25.2708 226.727 25.3428C226.727 25.4148 226.727 25.4148 226.655 25.5588C224.855 28.0068 222.911 29.8788 221.687 30.8148C218.951 33.0468 215.171 34.9188 211.211 34.9188ZM243.407 30.8148C239.735 33.7668 235.955 35.4948 233.795 35.4948C232.607 35.4948 231.491 34.7748 231.491 33.4788C231.491 29.0868 237.863 25.2348 237.863 22.4268C237.863 20.6268 236.603 20.3388 235.955 20.3388C233.723 20.3388 229.511 24.3348 226.523 28.0068C226.523 28.0068 224.543 31.4988 223.319 33.7668C216.983 45.6468 214.247 51.7308 207.227 64.2948C205.139 68.0388 200.711 68.4708 200.423 68.4708C200.243 68.4708 200.099 68.4708 200.099 68.3268C200.099 67.9668 200.675 68.2188 201.971 67.2108C203.195 66.2748 208.019 59.2908 222.059 33.4788C225.587 26.9988 226.811 24.2628 226.811 22.7508C226.811 21.2748 226.487 20.6988 226.091 20.4108C225.911 20.2668 225.803 20.2308 225.803 20.1588C225.803 20.0148 226.163 19.8708 226.451 19.6548C227.315 19.0068 227.243 18.7188 227.891 18.7188C228.539 18.7188 229.115 19.5108 229.115 21.2388C229.115 22.3908 228.539 24.1908 227.963 25.2708C233.183 20.0868 236.603 18.1428 238.979 18.1428C239.699 18.1428 241.031 18.5748 241.031 20.6628C241.031 24.4068 234.011 29.9508 234.011 32.4708C234.011 33.6948 234.659 34.0548 235.595 34.0548C237.755 34.0548 241.535 31.6788 243.119 30.4548C245.279 28.7988 246.575 27.2148 248.015 25.4148C248.195 25.1988 248.231 25.1988 248.303 25.1988C248.375 25.1988 248.447 25.2708 248.447 25.3428C248.447 25.4148 248.483 25.4148 248.375 25.5588C246.575 28.0068 244.631 29.8788 243.407 30.8148ZM256.35 7.91877C257.214 7.91877 257.61 8.74677 257.61 9.46677C257.61 10.6548 256.602 11.6628 255.558 11.6628C254.766 11.6628 254.226 10.9428 254.226 10.0428C254.226 9.17877 255.306 7.91877 256.35 7.91877ZM252.93 19.5468C252.93 22.5708 247.458 28.4028 247.458 31.4268C247.458 32.8668 248.646 33.4068 250.158 33.4068C251.67 33.4068 254.19 31.9668 256.206 30.4548C258.366 28.7988 259.662 27.2148 261.102 25.4148C261.246 25.1988 261.318 25.1988 261.39 25.1988C261.462 25.1988 261.534 25.2708 261.534 25.3428C261.534 25.4148 261.534 25.4148 261.462 25.5588C259.662 28.0068 257.718 29.8788 256.494 30.8148C254.622 32.3268 251.094 34.6308 248.07 34.6308C246.054 34.6308 244.578 33.7308 244.578 31.8588C244.578 28.2588 250.158 21.9228 250.158 19.9428C250.158 19.0068 249.87 18.7908 249.438 18.7908C248.718 18.7908 247.638 19.4388 246.774 20.0148C246.558 20.1588 246.486 20.2308 246.414 20.2308C246.342 20.2308 246.27 20.1588 246.27 20.0868C246.27 20.0148 246.27 19.9428 246.486 19.7988C246.774 19.5828 249.222 17.7828 250.806 17.7828C252.246 17.7828 252.93 18.5388 252.93 19.5468ZM38.7991 73.8148C37.7191 74.6788 33.7591 77.6308 30.3751 77.6308C27.4231 77.6308 26.9191 75.6148 26.9191 71.7988C26.9191 70.0708 27.1351 68.1988 27.3511 66.6868C24.7591 66.9748 23.8951 67.0468 23.0311 67.0468C20.3671 67.0468 17.7031 66.2548 16.1911 66.2548C15.9031 66.2548 15.6871 66.2548 15.4711 66.3268C11.4391 70.9348 7.8391 74.8228 5.7511 76.5508C4.8871 77.1988 4.0231 77.4148 2.6551 77.5588C2.0791 77.6308 1.4311 77.8108 0.711101 77.8108C0.495101 77.8108 0.279102 77.7748 0.279102 77.5588C0.279102 77.2708 0.567101 77.2708 0.855101 77.1988C1.5031 76.9828 2.5111 76.3348 3.1591 75.7588C9.2071 70.5028 16.4071 63.7348 28.9351 49.1188C31.5271 46.0948 31.6711 46.3108 33.6151 45.5188C34.0471 45.3748 34.8391 44.8708 35.1991 44.8708C35.3791 44.8708 35.4871 45.0508 35.4871 45.2308C35.4871 45.8788 34.8391 47.0668 34.6951 47.4628C33.3631 50.9188 31.4551 58.9108 30.5911 65.3908C33.1831 64.6348 35.4151 62.6548 35.7751 62.6548C35.9191 62.6548 35.9911 62.7268 35.9911 62.8708C35.9911 63.1948 33.1471 65.1388 30.5191 66.0388C30.3031 67.9108 30.1591 69.5668 30.1591 70.9348C30.1591 75.1108 30.9871 76.2988 32.3551 76.2988C33.8671 76.2988 36.4951 74.9668 38.5111 73.4548C40.6711 71.7988 41.9671 70.2148 43.4071 68.4148C43.5511 68.1988 43.6231 68.1988 43.6951 68.1988C43.7671 68.1988 43.8391 68.2708 43.8391 68.3428C43.8391 68.4148 43.8391 68.4148 43.7671 68.5588C41.9671 71.0068 40.0231 72.8788 38.7991 73.8148ZM16.6231 65.0308H17.8471C20.6551 65.0308 23.5351 65.8948 26.0551 65.8948C26.4151 65.8948 26.9191 65.8948 27.4951 65.8228C28.4311 58.4068 31.0951 48.6148 31.0951 48.4708C31.0951 48.3268 31.0591 48.2548 30.9871 48.2548C30.8431 48.2548 30.2671 48.8308 29.7991 49.4068L16.6231 65.0308ZM53.828 56.4628C51.524 56.4628 50.948 55.0228 50.948 53.7988C50.948 53.2948 51.092 52.7908 51.308 52.2148C51.452 51.8548 52.532 51.2788 52.964 51.2788C53.036 51.2788 53.036 51.3508 53.036 51.3508C53.036 51.4228 52.676 52.1428 52.676 52.9348C52.676 54.5908 53.972 55.4548 55.484 55.4548C56.564 55.4548 58.796 55.0228 60.668 52.2868C60.812 52.1428 61.244 51.7828 61.748 51.5668C62.108 51.4228 62.324 51.3508 62.396 51.3508H62.468C62.468 51.7828 58.076 56.4628 53.828 56.4628ZM62.216 73.8148C59.48 76.1188 55.7 77.7388 53.54 77.7388C52.1 77.7388 51.272 76.8388 51.272 75.7228C51.272 75.0028 51.416 74.2468 51.776 73.3108C50.408 74.6068 47.204 77.9548 43.424 77.9548C41.876 77.9548 39.896 77.1628 39.896 74.7508C39.896 71.2948 45.584 65.3548 45.584 62.9428C45.584 62.2948 45.512 61.7908 44.864 61.7908C43.856 61.7908 43.064 62.4388 42.2 63.0148C41.984 63.1588 41.912 63.2308 41.84 63.2308C41.768 63.2308 41.696 63.1588 41.696 63.0868C41.696 63.0148 41.696 62.9428 41.912 62.7988C43.064 62.0068 44.792 60.7828 46.232 60.7828C47.672 60.7828 48.32 61.4308 48.32 62.7988C48.32 65.0308 42.776 71.4748 42.776 74.2468C42.776 75.6868 43.46 76.4068 45.08 76.4068C47.204 76.4068 50.12 74.2108 52.352 72.0508C53.684 69.2428 56.06 64.8868 56.924 63.4468C57.572 62.3668 58.22 61.3228 58.724 61.3228C59.12 61.3228 60.416 61.7188 60.416 62.4748C60.416 63.5908 57.5 66.3628 56.06 68.9548C55.16 70.5748 53.864 72.5908 53.864 74.7148C53.864 75.6508 54.44 76.4428 55.592 76.4428C57.14 76.4428 59.912 75.1108 61.928 73.4548C64.088 71.7988 65.384 70.2148 66.824 68.4148C66.968 68.1988 67.04 68.1988 67.112 68.1988C67.184 68.1988 67.256 68.2708 67.256 68.3428C67.256 68.4148 67.256 68.4148 67.184 68.5588C65.384 71.0068 63.44 72.8788 62.216 73.8148ZM48.514 108.159C44.698 108.159 40.666 105.099 40.666 100.311C40.666 89.5828 56.074 84.1828 64.534 81.5188C65.146 81.3388 66.118 81.0148 66.37 81.0148C66.586 81.0148 66.694 81.1228 66.694 81.2668C66.694 81.6628 65.974 81.8068 65.326 82.0228C57.586 84.5068 43.294 88.2868 43.294 99.2668C43.294 103.551 46.498 106.719 50.638 106.719C55.57 106.719 59.422 101.895 62.914 95.8468C67.234 88.3228 70.474 82.4548 77.314 71.0068H77.278C74.254 74.2108 69.61 77.3428 65.902 77.3428C63.814 77.3428 62.842 75.7588 62.842 73.5988C62.842 68.3788 69.646 60.6388 74.758 60.6388C77.566 60.6388 79.438 62.8708 80.59 65.3908L80.806 64.9588C81.31 63.9508 81.49 64.2388 81.994 64.0948C82.066 64.0948 82.354 63.9508 82.498 63.9508C82.57 63.9508 82.714 64.0948 82.714 64.1668C82.714 64.3108 82.642 64.4548 82.498 64.5988C82.21 64.9588 81.778 65.8948 81.274 66.7588C81.346 66.9028 81.49 67.3348 81.49 67.4788C81.49 67.6228 81.418 67.7668 81.274 67.7668C81.202 67.7668 81.058 67.4068 80.986 67.2628C80.986 67.3348 65.758 95.5948 65.758 95.5948C62.914 100.851 55.714 108.159 48.514 108.159ZM80.302 65.8228C79.222 63.8788 77.422 61.9348 74.83 61.9348C71.266 61.9348 65.83 67.9828 65.83 73.6708C65.83 74.7508 66.694 76.0468 67.846 76.0468C71.95 76.0468 77.782 69.7468 77.854 69.6748C78.718 68.8108 79.582 67.1908 80.302 65.8228ZM106.297 61.5028C106.693 61.5028 107.845 61.7188 107.845 62.4748C107.845 63.8428 105.037 66.1468 103.849 68.7388C103.093 70.4308 101.905 73.3108 101.905 74.6788C101.905 75.8668 102.841 76.3708 103.561 76.3708C105.217 76.3708 108.169 75.1108 110.185 73.4548C112.345 71.7988 113.641 70.2148 115.081 68.4148C115.225 68.1988 115.297 68.1988 115.369 68.1988C115.441 68.1988 115.513 68.2708 115.513 68.3428C115.513 68.4148 115.513 68.4148 115.441 68.5588C113.641 71.0068 111.697 72.8788 110.473 73.8148C107.737 76.1188 103.885 77.8108 101.725 77.8108C100.321 77.8108 99.3129 77.0548 99.3129 75.7588C99.3129 73.7428 100.969 70.6828 101.941 68.6668C101.365 68.9548 100.429 69.0988 99.8889 69.0988C99.2049 69.0988 98.3409 68.8828 98.3409 68.8828C97.5489 73.4548 92.6889 77.6668 88.3329 77.6668C85.6329 77.6308 84.5529 76.2988 84.5529 73.6348C84.5529 70.1788 88.4409 64.6348 89.7369 62.7988C89.9529 62.4748 90.2049 62.3668 90.4569 62.3308C92.4729 61.9708 93.1569 61.5028 93.9489 61.5028C94.1649 61.5028 94.2009 61.6468 94.2009 61.7908C94.2009 61.9348 93.0849 62.1508 92.0409 63.5548C90.7089 65.3548 87.3609 70.1068 87.3609 73.5628C87.3609 75.5428 88.1169 76.6948 89.8809 76.6948C93.3369 76.6948 96.0729 72.0148 96.0729 69.6388C96.0729 69.0268 96.0729 68.4508 95.5689 67.8748C95.1369 67.5868 93.9489 66.7948 93.9489 66.5788C93.9489 66.1468 94.4889 66.0748 94.9569 65.7868C95.7849 65.2828 96.1089 64.9588 96.3249 64.9588C96.5049 64.9588 96.5769 65.5348 96.7569 65.7868C97.2249 66.4708 98.3409 68.3428 100.465 68.3428C101.077 68.3428 101.869 68.1988 102.265 67.9828C103.129 66.1828 105.145 61.5028 106.297 61.5028ZM120.004 62.5468C120.004 64.0948 117.088 69.0988 117.088 69.0988C117.988 69.1708 118.636 69.2068 119.32 69.2068C121.228 69.2068 123.316 68.8108 125.404 67.8748C126.376 66.2908 128.392 63.2668 128.932 62.5468C129.544 61.7188 130.48 61.5388 131.308 61.3948C131.92 61.2868 132.568 61.0708 132.928 61.0708C133.072 61.0708 133.108 61.1428 133.108 61.2148C133.108 61.4308 132.136 61.6828 130.084 64.4188C127.312 68.1268 124.864 72.5908 124.864 74.8948C124.864 76.0828 125.368 76.8748 126.808 76.8748C128.392 76.8748 130.948 75.3268 133.396 73.4548C135.556 71.7988 136.852 70.2148 138.292 68.4148C138.436 68.1988 138.508 68.1988 138.58 68.1988C138.652 68.1988 138.724 68.2708 138.724 68.3428C138.724 68.4148 138.724 68.4148 138.652 68.5588C136.852 71.0068 134.908 72.8788 133.684 73.8148C130.948 76.0468 128.104 78.1708 124.936 78.1708C122.92 78.1708 122.02 77.1628 122.02 75.5428C122.02 73.8148 123.136 71.6548 124.828 68.9908C122.632 69.8548 120.652 70.1788 116.44 70.3948C115.792 71.7628 113.236 76.1188 112.516 77.3068C112.264 77.7028 111.4 77.7388 110.464 77.8828C109.852 77.9908 109.456 78.3868 109.24 78.3868C109.096 78.3868 109.024 78.3508 109.024 78.2068C109.024 78.0628 109.6 77.5228 110.608 75.8668C111.292 74.7868 112.588 72.6268 113.632 70.6828C113.488 69.6748 113.2 69.2428 113.2 68.9188C113.2 68.7388 113.416 68.5228 113.452 68.5228C113.704 68.5228 114.208 68.7028 114.712 68.7388C116.332 65.8588 117.232 64.0228 117.232 62.9428C117.232 62.0068 116.944 61.7908 116.512 61.7908C115.792 61.7908 114.712 62.4388 113.848 63.0148C113.632 63.1588 113.56 63.2308 113.488 63.2308C113.416 63.2308 113.344 63.1588 113.344 63.0868C113.344 63.0148 113.344 62.9428 113.56 62.7988C113.848 62.5828 116.296 60.7828 117.88 60.7828C119.32 60.7828 120.004 61.5388 120.004 62.5468ZM166.515 75.1228C166.935 75.4828 167.335 75.8028 167.715 76.0828C168.055 76.3228 168.405 76.5428 168.765 76.7428C169.125 76.9428 169.445 77.0428 169.725 77.0428V77.3428H168.045C167.285 77.3428 166.615 77.2028 166.035 76.9228C165.455 76.6228 164.905 76.2728 164.385 75.8728L161.415 73.5328C160.335 74.9928 159.215 76.0428 158.055 76.6828C156.915 77.3028 155.645 77.6128 154.245 77.6128C153.345 77.6128 152.535 77.4828 151.815 77.2228C151.115 76.9428 150.515 76.5828 150.015 76.1428C149.535 75.6828 149.165 75.1528 148.905 74.5528C148.645 73.9528 148.515 73.3328 148.515 72.6928C148.515 71.3128 148.865 70.1428 149.565 69.1828C150.265 68.2028 151.435 67.3228 153.075 66.5428C152.115 65.7428 151.375 64.9528 150.855 64.1728C150.335 63.3928 150.075 62.5828 150.075 61.7428C150.075 61.1628 150.185 60.6128 150.405 60.0928C150.625 59.5728 150.935 59.1228 151.335 58.7428C151.735 58.3428 152.195 58.0328 152.715 57.8128C153.255 57.5728 153.845 57.4528 154.485 57.4528C155.245 57.4528 155.915 57.5828 156.495 57.8428C157.075 58.1028 157.565 58.4428 157.965 58.8628C158.365 59.2828 158.665 59.7728 158.865 60.3328C159.065 60.8728 159.165 61.4228 159.165 61.9828C159.165 62.7228 158.935 63.4928 158.475 64.2928C158.015 65.0928 157.215 65.8228 156.075 66.4828C156.995 67.2428 157.945 68.0328 158.925 68.8528C159.905 69.6728 160.875 70.4628 161.835 71.2228C162.235 70.4228 162.555 69.6228 162.795 68.8228C163.055 68.0228 163.255 67.2928 163.395 66.6328C163.555 65.9528 163.655 65.3628 163.695 64.8628C163.755 64.3628 163.785 64.0028 163.785 63.7828C163.785 63.5228 163.685 63.2928 163.485 63.0928C163.285 62.8728 163.065 62.7628 162.825 62.7628V62.4628H165.915V62.7628C165.715 62.7628 165.505 62.8628 165.285 63.0628C165.085 63.2428 164.965 63.4728 164.925 63.7528C164.805 64.7928 164.635 65.8028 164.415 66.7828C164.235 67.6228 163.995 68.5028 163.695 69.4228C163.395 70.3428 163.025 71.1428 162.585 71.8228C162.985 72.2028 163.415 72.5828 163.875 72.9628C164.335 73.3428 164.785 73.7128 165.225 74.0728L166.515 75.1228ZM151.935 61.6528C152.075 62.3528 152.465 63.0428 153.105 63.7228C153.745 64.4028 154.435 65.0528 155.175 65.6728C155.955 65.3528 156.555 64.8728 156.975 64.2328C157.395 63.5728 157.605 62.9328 157.605 62.3128C157.605 61.8328 157.525 61.3628 157.365 60.9028C157.225 60.4428 157.005 60.0328 156.705 59.6728C156.425 59.2928 156.055 58.9928 155.595 58.7728C155.155 58.5328 154.635 58.4128 154.035 58.4128C153.375 58.4128 152.845 58.6728 152.445 59.1928C152.065 59.7128 151.875 60.3328 151.875 61.0528C151.875 61.1528 151.875 61.2528 151.875 61.3528C151.875 61.4528 151.895 61.5528 151.935 61.6528ZM155.115 76.5628C156.095 76.5628 157.065 76.2228 158.025 75.5428C159.005 74.8628 159.895 73.9828 160.695 72.9028C159.595 71.9828 158.475 71.0528 157.335 70.1128C156.195 69.1528 155.075 68.2228 153.975 67.3228C152.755 67.9028 151.855 68.6228 151.275 69.4828C150.695 70.3428 150.405 71.2128 150.405 72.0928C150.405 72.6328 150.525 73.1628 150.765 73.6828C151.005 74.2028 151.335 74.6728 151.755 75.0928C152.175 75.5128 152.675 75.8628 153.255 76.1428C153.835 76.4028 154.455 76.5428 155.115 76.5628ZM216.444 73.8148C215.364 74.6788 211.404 77.6308 208.02 77.6308C205.068 77.6308 204.564 75.6148 204.564 71.7988C204.564 70.0708 204.78 68.1988 204.996 66.6868C202.404 66.9748 201.54 67.0468 200.676 67.0468C198.012 67.0468 195.348 66.2548 193.836 66.2548C193.548 66.2548 193.332 66.2548 193.116 66.3268C189.084 70.9348 185.484 74.8228 183.396 76.5508C182.532 77.1988 181.668 77.4148 180.3 77.5588C179.724 77.6308 179.076 77.8108 178.356 77.8108C178.14 77.8108 177.924 77.7748 177.924 77.5588C177.924 77.2708 178.212 77.2708 178.5 77.1988C179.148 76.9828 180.156 76.3348 180.804 75.7588C186.852 70.5028 194.052 63.7348 206.58 49.1188C209.172 46.0948 209.316 46.3108 211.26 45.5188C211.692 45.3748 212.484 44.8708 212.844 44.8708C213.024 44.8708 213.132 45.0508 213.132 45.2308C213.132 45.8788 212.484 47.0668 212.34 47.4628C211.008 50.9188 209.1 58.9108 208.236 65.3908C210.828 64.6348 213.06 62.6548 213.42 62.6548C213.564 62.6548 213.636 62.7268 213.636 62.8708C213.636 63.1948 210.792 65.1388 208.164 66.0388C207.948 67.9108 207.804 69.5668 207.804 70.9348C207.804 75.1108 208.632 76.2988 210 76.2988C211.512 76.2988 214.14 74.9668 216.156 73.4548C218.316 71.7988 219.612 70.2148 221.052 68.4148C221.196 68.1988 221.268 68.1988 221.34 68.1988C221.412 68.1988 221.484 68.2708 221.484 68.3428C221.484 68.4148 221.484 68.4148 221.412 68.5588C219.612 71.0068 217.668 72.8788 216.444 73.8148ZM194.268 65.0308H195.492C198.3 65.0308 201.18 65.8948 203.7 65.8948C204.06 65.8948 204.564 65.8948 205.14 65.8228C206.076 58.4068 208.74 48.6148 208.74 48.4708C208.74 48.3268 208.704 48.2548 208.632 48.2548C208.488 48.2548 207.912 48.8308 207.444 49.4068L194.268 65.0308ZM226.001 62.5468C226.001 64.0948 223.085 69.0988 223.085 69.0988C223.985 69.1708 224.633 69.2068 225.317 69.2068C227.225 69.2068 229.313 68.8108 231.401 67.8748C232.373 66.2908 234.389 63.2668 234.929 62.5468C235.541 61.7188 236.477 61.5388 237.305 61.3948C237.917 61.2868 238.565 61.0708 238.925 61.0708C239.069 61.0708 239.105 61.1428 239.105 61.2148C239.105 61.4308 238.133 61.6828 236.081 64.4188C233.309 68.1268 230.861 72.5908 230.861 74.8948C230.861 76.0828 231.365 76.8748 232.805 76.8748C234.389 76.8748 236.945 75.3268 239.393 73.4548C241.553 71.7988 242.849 70.2148 244.289 68.4148C244.433 68.1988 244.505 68.1988 244.577 68.1988C244.649 68.1988 244.721 68.2708 244.721 68.3428C244.721 68.4148 244.721 68.4148 244.649 68.5588C242.849 71.0068 240.905 72.8788 239.681 73.8148C236.945 76.0468 234.101 78.1708 230.933 78.1708C228.917 78.1708 228.017 77.1628 228.017 75.5428C228.017 73.8148 229.133 71.6548 230.825 68.9908C228.629 69.8548 226.649 70.1788 222.437 70.3948C221.789 71.7628 219.233 76.1188 218.513 77.3068C218.261 77.7028 217.397 77.7388 216.461 77.8828C215.849 77.9908 215.453 78.3868 215.237 78.3868C215.093 78.3868 215.021 78.3508 215.021 78.2068C215.021 78.0628 215.597 77.5228 216.605 75.8668C217.289 74.7868 218.585 72.6268 219.629 70.6828C219.485 69.6748 219.197 69.2428 219.197 68.9188C219.197 68.7388 219.413 68.5228 219.449 68.5228C219.701 68.5228 220.205 68.7028 220.709 68.7388C222.329 65.8588 223.229 64.0228 223.229 62.9428C223.229 62.0068 222.941 61.7908 222.509 61.7908C221.789 61.7908 220.709 62.4388 219.845 63.0148C219.629 63.1588 219.557 63.2308 219.485 63.2308C219.413 63.2308 219.341 63.1588 219.341 63.0868C219.341 63.0148 219.341 62.9428 219.557 62.7988C219.845 62.5828 222.293 60.7828 223.877 60.7828C225.317 60.7828 226.001 61.5388 226.001 62.5468ZM261.696 73.8148C259.392 75.6148 256.296 77.7748 253.344 77.7748C251.58 77.7748 250.536 76.9108 250.536 74.8228C248.088 76.3348 245.604 77.5228 243.804 77.5228C241.572 77.5228 240.636 75.7948 240.636 73.5628C240.636 68.1628 247.296 61.1068 252.876 61.1068C254.784 61.1068 256.872 62.2228 257.52 64.5268C257.88 64.5268 258.456 64.6708 258.456 65.3188C258.456 67.5508 256.656 69.1348 255.288 70.5748C254.856 71.0068 254.208 71.5828 253.632 72.1588C253.272 73.0948 253.2 73.9588 253.2 74.5348C253.2 75.2548 253.416 76.4068 255.216 76.4068C257.232 76.4068 259.392 74.9668 261.408 73.4548C263.568 71.7988 264.864 70.2148 266.304 68.4148C266.448 68.1988 266.52 68.1988 266.592 68.1988C266.664 68.1988 266.736 68.2708 266.736 68.3428C266.736 68.4148 266.736 68.4148 266.664 68.5588C264.864 71.0068 262.92 72.8788 261.696 73.8148ZM252.768 61.9708C248.016 61.9708 243.624 68.7388 243.624 73.4908C243.624 74.7148 243.948 76.2988 245.604 76.2988C247.548 76.2988 249.564 74.9308 250.608 74.1028C251.184 72.0868 252.336 69.6388 253.344 68.2708C254.208 67.0468 255.792 65.1028 256.944 64.6708C256.296 63.0148 254.64 61.9708 252.768 61.9708ZM253.884 71.3668C256.692 68.5588 257.52 66.9748 257.52 66.3988C257.52 66.1828 257.376 66.1108 257.232 66.1108C256.584 66.1108 254.856 69.3508 253.884 71.3668ZM283.415 73.8148C279.743 76.7668 275.963 78.4948 273.803 78.4948C272.615 78.4948 271.499 77.7748 271.499 76.4788C271.499 72.0868 277.871 68.2348 277.871 65.4268C277.871 63.6268 276.611 63.3388 275.963 63.3388C273.731 63.3388 269.519 67.3348 266.531 71.0068C266.531 71.0068 264.551 74.4988 263.327 76.7668C256.991 88.6468 254.255 94.7308 247.235 107.295C245.147 111.039 240.719 111.471 240.431 111.471C240.251 111.471 240.107 111.471 240.107 111.327C240.107 110.967 240.683 111.219 241.979 110.211C243.203 109.275 248.027 102.291 262.067 76.4788C265.595 69.9988 266.819 67.2628 266.819 65.7508C266.819 64.2748 266.495 63.6988 266.099 63.4108C265.919 63.2668 265.811 63.2308 265.811 63.1588C265.811 63.0148 266.171 62.8708 266.459 62.6548C267.323 62.0068 267.251 61.7188 267.899 61.7188C268.547 61.7188 269.123 62.5108 269.123 64.2388C269.123 65.3908 268.547 67.1908 267.971 68.2708C273.191 63.0868 276.611 61.1428 278.987 61.1428C279.707 61.1428 281.039 61.5748 281.039 63.6628C281.039 67.4068 274.019 72.9508 274.019 75.4708C274.019 76.6948 274.667 77.0548 275.603 77.0548C277.763 77.0548 281.543 74.6788 283.127 73.4548C285.287 71.7988 286.583 70.2148 288.023 68.4148C288.203 68.1988 288.239 68.1988 288.311 68.1988C288.383 68.1988 288.455 68.2708 288.455 68.3428C288.455 68.4148 288.491 68.4148 288.383 68.5588C286.583 71.0068 284.639 72.8788 283.415 73.8148Z" fill="#2F2402"></path></svg> 