<?xml version="1.0" encoding="UTF-8"?> <svg xmlns="http://www.w3.org/2000/svg" width="206" height="121" viewBox="0 0 206 121" fill="none"><path d="M43.3226 37.8653C40.8746 39.3053 35.5106 44.7413 35.5106 48.8093C35.5106 50.7893 36.5186 51.4733 36.9506 51.4733C37.0226 51.4733 37.0586 51.5453 37.0586 51.6173C37.0586 51.7613 36.6626 51.7973 36.1586 51.9773C35.4386 52.2293 34.7186 52.6253 34.1426 52.6253C33.7826 52.6253 32.5226 51.6533 32.5226 49.7453C32.5226 44.7773 39.4706 39.6653 42.6026 37.8653H43.3226ZM19.2746 15.9053C21.2906 17.1293 22.6586 19.7933 23.5226 22.1333C25.0346 26.2733 25.7186 31.2413 28.0226 34.6973C29.8946 37.5413 32.1986 39.4853 35.4746 39.4853C38.0666 39.4853 40.0106 38.5493 42.1706 36.8933C42.2426 36.8213 42.3866 36.7493 42.4586 36.7493C42.4586 36.7493 42.5306 36.7493 42.5306 36.8213C42.5306 38.1893 38.2826 40.2773 34.6826 40.2773C30.6146 40.2773 27.8426 39.2333 25.5746 36.5333C22.6946 33.0773 22.8386 30.0173 20.7146 24.2213C19.5986 21.1613 17.9786 18.3533 15.7106 17.5253C13.6946 21.4493 8.83459 30.3053 7.21459 32.9333C6.92659 33.4013 6.53059 33.8693 2.57059 33.8693C2.13859 33.8693 2.06659 33.8693 2.06659 33.6533C2.06659 33.4373 2.93059 33.4373 3.86659 32.2853C5.99059 29.6933 8.18659 26.3453 10.3466 22.5293C12.0026 19.6493 13.5866 16.7333 15.1346 13.8533C16.3226 11.6213 18.0866 8.16533 18.0866 5.57333C18.0866 3.55733 17.2946 2.18933 15.6026 2.18933C15.0626 2.18933 13.1546 2.54933 10.9946 4.70933C10.5626 5.14133 10.3466 5.42933 10.2026 5.42933C10.0586 5.42933 9.98659 5.35733 9.98659 5.21333C9.98659 5.06933 10.2746 4.70933 10.7786 4.20533C13.1546 1.75733 16.1066 0.965327 17.4746 0.965327C20.2826 0.965327 21.3626 2.94533 21.3626 4.78133C21.3626 7.01333 17.3666 14.2493 16.0706 16.6973C20.4986 13.9973 23.1626 12.3413 27.5906 9.42533C32.0186 6.50933 34.7906 4.60133 39.1466 1.79333C39.5426 1.54133 40.2266 1.25333 40.4786 1.25333C40.6946 1.25333 40.9826 1.32533 41.6666 1.64933C42.1346 1.86533 42.5306 1.86533 42.5306 2.04533C42.5306 2.18933 41.9546 2.26133 41.5946 2.40533C41.1266 2.58533 40.6946 2.80133 40.3706 2.98133C35.7986 5.42933 32.7386 7.19333 28.3106 9.96533C24.6026 12.2693 22.5866 13.6013 19.2746 15.8693V15.9053ZM42.5072 33.9053C39.9512 34.0493 36.7832 34.3373 36.5312 34.3373C36.2792 34.3373 36.0632 34.3013 36.0632 34.1213C36.0632 33.9053 36.4952 33.5093 36.8552 33.4733C38.5832 33.3293 40.6712 33.2933 43.0832 33.1853L43.1192 33.1493C41.8592 31.8893 41.6432 29.2973 41.6432 27.1733C41.6432 26.8853 41.7152 25.4093 41.7152 25.4093C41.8232 23.8253 42.0392 22.2413 42.0392 20.8373C42.0392 18.8933 41.4992 17.3093 40.3112 17.3093C39.5912 17.3093 38.5112 17.9573 37.6472 18.5333C37.4312 18.6773 37.3592 18.7493 37.2872 18.7493C37.2152 18.7493 37.1432 18.6773 37.1432 18.6053C37.1432 18.5333 37.1432 18.4613 37.3592 18.3173C37.6472 18.1013 40.0952 16.3013 41.6792 16.3013C43.5512 16.3013 44.5952 17.5613 44.5952 20.6213C44.5952 21.5933 44.4872 22.6373 44.4152 23.7173C44.3792 24.4733 44.2712 26.1293 44.2712 26.8853C44.2712 28.4333 44.3432 30.0173 45.0272 31.0613C47.4752 28.3253 50.0312 25.7333 52.4432 23.5373C55.7912 20.4413 58.8872 18.0653 60.6512 16.3013C60.7952 16.1573 60.9752 15.9053 61.1192 15.9053C61.2632 15.9053 61.2272 16.0493 61.2272 16.1573C61.2272 16.2653 61.0472 17.0213 61.0112 17.5253C60.9752 17.8133 60.0392 18.3893 59.2112 18.9653C54.3872 22.3133 48.1232 28.2893 44.3072 33.1133C49.8872 32.7893 51.1112 32.5373 51.7592 32.5373C52.0112 32.5373 52.1912 32.5373 52.1912 32.7173C52.1912 32.8613 51.8312 33.0053 51.4352 33.1853C51.1472 33.2933 50.9312 33.5453 50.3192 33.5813C48.7352 33.6893 46.3232 33.7253 43.7672 33.8333C40.5632 38.0813 36.5672 45.1373 35.3792 48.5213C33.8672 52.7333 33.3632 55.5053 33.3632 57.7373C33.3632 63.8933 36.1352 65.1893 39.2672 65.1893C42.3992 65.1893 46.3592 62.9933 47.6552 60.9413C47.9432 60.4733 48.0512 60.4373 48.1592 60.4373C48.2312 60.4373 48.3752 60.5093 48.3752 60.5813C48.3752 60.6533 48.3752 60.7253 48.3032 60.8693C46.5752 63.2813 41.3912 66.4133 37.1072 66.4133C33.7592 66.4133 30.9872 64.4693 30.9872 58.7093C30.9872 55.6853 31.8512 52.4453 33.7592 47.8373C35.7392 43.1573 38.8712 38.3333 42.5072 33.9053ZM80.0884 29.3333C76.4164 32.2853 72.6364 34.0133 70.4764 34.0133C69.2884 34.0133 68.1724 33.2933 68.1724 31.9973C68.1724 27.6053 74.5444 23.7533 74.5444 20.9453C74.5444 19.1453 73.2844 18.8573 72.6364 18.8573C70.4044 18.8573 66.1924 22.8533 63.2044 26.5253C63.2044 26.5253 61.2244 30.0173 60.0004 32.2853C53.6644 44.1653 50.9284 50.2493 43.9084 62.8133C41.8204 66.5573 37.3924 66.9893 37.1044 66.9893C36.9244 66.9893 36.7804 66.9893 36.7804 66.8453C36.7804 66.4853 37.3564 66.7373 38.6524 65.7293C39.8764 64.7933 44.7004 57.8093 58.7404 31.9973C62.2684 25.5173 63.4924 22.7813 63.4924 21.2693C63.4924 19.7933 63.1684 19.2173 62.7724 18.9293C62.5924 18.7853 62.4844 18.7493 62.4844 18.6773C62.4844 18.5333 62.8444 18.3893 63.1324 18.1733C63.9964 17.5253 63.9244 17.2373 64.5724 17.2373C65.2204 17.2373 65.7964 18.0293 65.7964 19.7573C65.7964 20.9093 65.2204 22.7093 64.6444 23.7893C69.8644 18.6053 73.2844 16.6613 75.6604 16.6613C76.3804 16.6613 77.7124 17.0933 77.7124 19.1813C77.7124 22.9253 70.6924 28.4693 70.6924 30.9893C70.6924 32.2133 71.3404 32.5733 72.2764 32.5733C74.4364 32.5733 78.2164 30.1973 79.8004 28.9733C81.9604 27.3173 83.2564 25.7333 84.6964 23.9333C84.8764 23.7173 84.9124 23.7173 84.9844 23.7173C85.0564 23.7173 85.1284 23.7893 85.1284 23.8613C85.1284 23.9333 85.1644 23.9333 85.0564 24.0773C83.2564 26.5253 81.3124 28.3973 80.0884 29.3333ZM103.796 29.3693C103.796 30.6293 104.156 31.8173 105.956 31.8173C108.116 31.8173 110.6 30.4853 112.544 28.9733C114.704 27.3173 116 25.7333 117.44 23.9333C117.584 23.7173 117.656 23.7173 117.728 23.7173C117.8 23.7173 117.872 23.7893 117.872 23.8613C117.872 23.9333 117.872 23.9333 117.8 24.0773C116 26.5253 114.056 28.3973 112.832 29.3333C110.888 30.8453 107.504 33.0413 103.976 33.0413C101.96 33.0413 100.772 31.7813 100.772 30.0893C100.772 28.3613 101.636 26.5253 102.896 24.1133C101.924 25.2653 100.736 26.5613 99.1158 28.3253C96.2718 31.4213 93.9318 32.8613 92.2038 32.8613C90.9798 32.8613 90.0078 32.2493 90.0078 30.5573C90.0078 28.8293 90.6198 26.2373 92.4918 22.6373C91.5558 23.8973 89.8998 26.4893 87.9918 28.5053C84.3918 32.3213 81.7998 33.0053 80.8638 33.0053C79.7118 33.0053 78.4878 32.6453 78.4878 31.2053C78.4878 29.6213 79.4238 29.3693 80.2878 28.6493C81.4038 27.7133 81.9078 27.1013 82.1238 27.1013C82.1598 27.1013 82.2318 27.1373 82.2318 27.2093C82.2318 27.2813 82.1238 27.4613 81.9438 27.6413C81.0798 28.3973 80.6478 29.1893 80.6478 30.0533C80.6478 30.9893 81.2598 31.6373 82.1958 31.6373C83.4198 31.6373 85.8318 30.0173 88.3158 27.3893C90.8358 24.7253 92.0598 22.4573 93.1758 20.7293C94.0038 19.4333 94.2558 18.2813 95.0478 17.5613C95.2998 17.3093 96.1638 16.9133 96.9198 16.6613C97.3518 16.5173 97.4958 16.3013 97.6758 16.3013C97.7838 16.3013 97.8198 16.3733 97.8198 16.5173C97.8198 16.8773 96.7398 18.3893 95.7678 20.3693C94.1478 23.6813 93.0318 27.5693 93.0318 29.9093C93.0318 31.0253 93.7518 31.2053 94.1118 31.2053C95.1918 31.2053 96.8478 30.1253 98.7918 28.0373C100.016 26.7413 102.608 23.7533 104.228 21.2693C105.056 19.9733 105.848 18.2813 106.604 17.5253C106.856 17.2733 107.36 17.0213 108.116 16.7333C108.656 16.5173 109.484 16.3373 109.664 16.3373C109.808 16.3373 109.88 16.4813 109.88 16.6613C109.88 17.0213 108.188 18.3893 107.18 20.3693C105.488 23.6813 103.796 27.0293 103.796 29.3693ZM117.877 23.7893C124.177 22.2773 125.005 20.0813 125.005 18.6053C125.005 18.1373 124.717 17.5973 124.069 17.5973C121.909 17.5973 119.533 20.5493 117.877 23.7893ZM118.345 33.4373C115.825 33.4373 113.485 32.0693 113.485 29.1533C113.485 22.5293 122.017 16.6253 125.725 16.6253C126.661 16.6253 127.597 17.2373 127.597 18.4253C127.597 19.3973 125.365 23.2133 117.553 24.5453C117.049 25.5533 116.401 26.8853 116.401 29.1173C116.401 31.4213 117.949 32.5013 119.893 32.5013C122.305 32.5013 126.085 30.8453 128.533 28.9733C130.693 27.3173 131.989 25.7333 133.429 23.9333C133.573 23.7173 133.645 23.7173 133.717 23.7173C133.789 23.7173 133.861 23.7893 133.861 23.8613C133.861 23.9333 133.861 23.9333 133.789 24.0773C131.989 26.5253 130.045 28.3973 128.821 29.3333C126.085 31.5653 122.305 33.4373 118.345 33.4373ZM138.374 18.0653C138.374 19.1093 137.87 20.3693 137.33 21.3773C138.41 20.4413 141.686 16.9853 143.738 16.9853C144.53 16.9853 145.07 17.6693 145.07 18.6773C145.07 20.0453 144.314 21.7733 144.314 21.7733C144.314 21.7733 149.21 16.7333 152.666 16.7333C153.818 16.7333 154.79 17.4533 154.79 18.5333C154.79 21.5573 146.762 27.8933 146.762 37.3253C146.762 40.5653 148.49 44.2733 152.522 44.2733C156.518 44.2733 161.594 39.9893 163.754 36.8213C163.898 36.6053 163.97 36.6053 164.042 36.6053C164.114 36.6053 164.186 36.6773 164.186 36.7493C164.186 36.8213 164.186 36.8213 164.114 36.9653C161.018 41.1413 155.762 45.3173 151.226 45.3173C147.266 45.3173 144.314 42.2213 144.314 37.7573C144.314 29.1893 151.226 22.3853 151.226 19.5413C151.226 19.0373 150.938 18.6053 150.362 18.6053C148.346 18.6053 145.142 21.5573 143.522 23.2493C142.694 24.1133 141.794 25.1933 140.498 25.1933C140.426 25.1933 140.39 25.1573 140.39 25.0853C140.39 24.6893 140.894 24.6893 141.038 24.2573C141.038 24.2573 142.514 21.0173 142.514 19.8653C142.514 19.4333 142.298 18.8573 141.686 18.8573C140.318 18.8573 138.266 20.9093 136.826 22.8533C135.026 25.2293 133.226 28.9013 131.426 32.5373C131.138 33.1133 130.13 32.7173 129.302 33.0053C128.618 33.2573 128.294 33.4373 128.114 33.4373C128.006 33.4373 127.934 33.3293 127.934 33.2573C127.934 33.1853 128.078 33.0773 128.258 32.8253C129.266 31.3493 132.002 26.5613 133.442 23.9333C134.918 21.3053 135.602 19.2893 135.602 18.4613C135.602 17.5253 135.314 17.3093 134.882 17.3093C134.162 17.3093 133.082 17.9573 132.218 18.5333C132.002 18.6773 131.93 18.7493 131.858 18.7493C131.786 18.7493 131.714 18.6773 131.714 18.6053C131.714 18.5333 131.714 18.4613 131.93 18.3173C132.218 18.1013 134.666 16.3013 136.25 16.3013C137.69 16.3013 138.374 17.0573 138.374 18.0653ZM165.374 18.0653C165.374 19.1093 164.87 20.3693 164.33 21.3773C165.41 20.4413 168.686 16.9853 170.738 16.9853C171.53 16.9853 172.07 17.6693 172.07 18.6773C172.07 20.0453 171.314 21.7733 171.314 21.7733C171.314 21.7733 176.21 16.7333 179.666 16.7333C180.818 16.7333 181.79 17.4533 181.79 18.5333C181.79 21.5573 173.762 27.8933 173.762 37.3253C173.762 40.5653 175.49 44.2733 179.522 44.2733C183.518 44.2733 188.594 39.9893 190.754 36.8213C190.898 36.6053 190.97 36.6053 191.042 36.6053C191.114 36.6053 191.186 36.6773 191.186 36.7493C191.186 36.8213 191.186 36.8213 191.114 36.9653C188.018 41.1413 182.762 45.3173 178.226 45.3173C174.266 45.3173 171.314 42.2213 171.314 37.7573C171.314 29.1893 178.226 22.3853 178.226 19.5413C178.226 19.0373 177.938 18.6053 177.362 18.6053C175.346 18.6053 172.142 21.5573 170.522 23.2493C169.694 24.1133 168.794 25.1933 167.498 25.1933C167.426 25.1933 167.39 25.1573 167.39 25.0853C167.39 24.6893 167.894 24.6893 168.038 24.2573C168.038 24.2573 169.514 21.0173 169.514 19.8653C169.514 19.4333 169.298 18.8573 168.686 18.8573C167.318 18.8573 165.266 20.9093 163.826 22.8533C162.026 25.2293 160.226 28.9013 158.426 32.5373C158.138 33.1133 157.13 32.7173 156.302 33.0053C155.618 33.2573 155.294 33.4373 155.114 33.4373C155.006 33.4373 154.934 33.3293 154.934 33.2573C154.934 33.1853 155.078 33.0773 155.258 32.8253C156.266 31.3493 159.002 26.5613 160.442 23.9333C161.918 21.3053 162.602 19.2893 162.602 18.4613C162.602 17.5253 162.314 17.3093 161.882 17.3093C161.162 17.3093 160.082 17.9573 159.218 18.5333C159.002 18.6773 158.93 18.7493 158.858 18.7493C158.786 18.7493 158.714 18.6773 158.714 18.6053C158.714 18.5333 158.714 18.4613 158.93 18.3173C159.218 18.1013 161.666 16.3013 163.25 16.3013C164.69 16.3013 165.374 17.0573 165.374 18.0653ZM195.794 6.43733C196.658 6.43733 197.054 7.26533 197.054 7.98533C197.054 9.17333 196.046 10.1813 195.002 10.1813C194.21 10.1813 193.67 9.46133 193.67 8.56133C193.67 7.69733 194.75 6.43733 195.794 6.43733ZM192.374 18.0653C192.374 21.0893 186.902 26.9213 186.902 29.9453C186.902 31.3853 188.09 31.9253 189.602 31.9253C191.114 31.9253 193.634 30.4853 195.65 28.9733C197.81 27.3173 199.106 25.7333 200.546 23.9333C200.69 23.7173 200.762 23.7173 200.834 23.7173C200.906 23.7173 200.978 23.7893 200.978 23.8613C200.978 23.9333 200.978 23.9333 200.906 24.0773C199.106 26.5253 197.162 28.3973 195.938 29.3333C194.066 30.8453 190.538 33.1493 187.514 33.1493C185.498 33.1493 184.022 32.2493 184.022 30.3773C184.022 26.7773 189.602 20.4413 189.602 18.4613C189.602 17.5253 189.314 17.3093 188.882 17.3093C188.162 17.3093 187.082 17.9573 186.218 18.5333C186.002 18.6773 185.93 18.7493 185.858 18.7493C185.786 18.7493 185.714 18.6773 185.714 18.6053C185.714 18.5333 185.714 18.4613 185.93 18.3173C186.218 18.1013 188.666 16.3013 190.25 16.3013C191.69 16.3013 192.374 17.0573 192.374 18.0653ZM11.3549 72.4253C11.3549 74.1893 7.93487 79.4093 7.35887 80.4893H7.43087L8.04287 79.8773C11.9309 75.8453 18.1949 70.6613 21.0029 70.6613C21.7949 70.6613 22.5869 70.8413 22.5869 71.4173C22.5869 71.8133 22.0829 72.1013 21.4349 72.6053C20.9669 72.9653 20.7869 73.3253 20.5709 73.3253C20.4269 73.3253 20.4269 73.2533 20.4269 73.1093C20.4269 72.8933 19.9589 72.7133 19.2389 72.7133C17.4389 72.7133 15.8189 73.7933 12.3629 76.7093C13.1189 77.6453 13.8029 78.4733 14.3789 80.9213C15.2789 84.6653 15.4949 85.9973 17.4029 85.9973C18.7709 85.9973 21.7949 84.3413 23.4509 82.9733C25.6109 81.3173 26.9069 79.7333 28.3469 77.9333C28.4909 77.7173 28.5629 77.7173 28.6349 77.7173C28.7069 77.7173 28.7789 77.7893 28.7789 77.8613C28.7789 77.9333 28.7789 77.9333 28.7069 78.0773C26.9069 80.5253 24.9629 82.3973 23.7389 83.3333C22.5869 84.3053 20.4629 85.8173 18.3389 86.7173C15.3149 89.3813 11.8589 93.7013 11.8589 96.7613C11.8589 97.7693 12.3269 98.5253 13.0829 98.5253C13.5149 98.5253 13.7309 98.0933 13.8749 98.0933C13.9469 98.0933 13.9829 98.1293 13.9829 98.2013C13.9829 98.4893 12.6509 99.2093 11.8229 99.2093C10.8509 99.2093 9.69887 98.6333 9.69887 96.9053C9.69887 93.4493 14.7029 89.2733 17.4389 87.0413C16.7189 87.2933 15.9989 87.4373 15.3509 87.4373C12.7949 87.4373 12.3989 85.3133 11.7509 82.0733C11.3909 80.3813 10.5629 79.1213 10.0949 78.6893C9.55487 79.1933 8.07887 80.6693 6.27887 82.9373C5.70287 83.9093 5.12687 84.8813 4.29887 86.5733C4.15487 86.8613 2.85887 86.8613 2.21087 86.9333C1.63487 87.0053 1.27487 87.3293 1.05887 87.3293C1.05887 87.3293 0.914867 87.3293 0.914867 87.1853C0.914867 86.8253 2.42687 85.4933 6.38687 77.9333C7.68287 75.4853 8.69087 73.6133 8.69087 72.7493C8.69087 71.8133 8.40287 71.3093 7.82687 71.3093C7.10687 71.3093 6.02687 71.9573 5.16287 72.5333C4.94687 72.6773 4.87487 72.7493 4.80287 72.7493C4.73087 72.7493 4.65887 72.6773 4.65887 72.6053C4.65887 72.5333 4.65887 72.4613 4.87487 72.3173C5.16287 72.1013 7.61087 70.3013 9.19487 70.3013C10.6349 70.3013 11.3549 71.2373 11.3549 72.4253ZM37.2155 70.6253C39.9515 70.6253 41.6795 72.4973 41.6795 75.3773C41.6795 81.9653 34.7315 87.4373 29.2955 87.4373C26.5955 87.4373 24.6875 85.4933 24.6875 82.7933C24.6875 76.6013 31.7795 70.6253 37.2155 70.6253ZM36.1715 71.4173C32.2475 71.4173 27.7475 77.5373 27.7475 82.3973C27.7475 84.7373 28.8635 86.5013 30.4115 86.5013C34.3715 86.5013 38.7635 80.2733 38.7635 75.4133C38.7635 73.1093 37.7915 71.4173 36.1715 71.4173ZM53.4361 72.0653C53.4361 73.6133 50.5201 78.6173 50.5201 78.6173C51.4201 78.6893 52.0681 78.7253 52.7521 78.7253C54.6601 78.7253 56.7481 78.3293 58.8361 77.3933C59.8081 75.8093 61.8241 72.7853 62.3641 72.0653C62.9761 71.2373 63.9121 71.0573 64.7401 70.9133C65.3521 70.8053 66.0001 70.5893 66.3601 70.5893C66.5041 70.5893 66.5401 70.6613 66.5401 70.7333C66.5401 70.9493 65.5681 71.2013 63.5161 73.9373C60.7441 77.6453 58.2961 82.1093 58.2961 84.4133C58.2961 85.6013 58.8001 86.3933 60.2401 86.3933C61.8241 86.3933 64.3801 84.8453 66.8281 82.9733C68.9881 81.3173 70.2841 79.7333 71.7241 77.9333C71.8681 77.7173 71.9401 77.7173 72.0121 77.7173C72.0841 77.7173 72.1561 77.7893 72.1561 77.8613C72.1561 77.9333 72.1561 77.9333 72.0841 78.0773C70.2841 80.5253 68.3401 82.3973 67.1161 83.3333C64.3801 85.5653 61.5361 87.6893 58.3681 87.6893C56.3521 87.6893 55.4521 86.6813 55.4521 85.0613C55.4521 83.3333 56.5681 81.1733 58.2601 78.5093C56.0641 79.3733 54.0841 79.6973 49.8721 79.9133C49.2241 81.2813 46.6681 85.6373 45.9481 86.8253C45.6961 87.2213 44.8321 87.2573 43.8961 87.4013C43.2841 87.5093 42.8881 87.9053 42.6721 87.9053C42.5281 87.9053 42.4561 87.8693 42.4561 87.7253C42.4561 87.5813 43.0321 87.0413 44.0401 85.3853C44.7241 84.3053 46.0201 82.1453 47.0641 80.2013C46.9201 79.1933 46.6321 78.7613 46.6321 78.4373C46.6321 78.2573 46.8481 78.0413 46.8841 78.0413C47.1361 78.0413 47.6401 78.2213 48.1441 78.2573C49.7641 75.3773 50.6641 73.5413 50.6641 72.4613C50.6641 71.5253 50.3761 71.3093 49.9441 71.3093C49.2241 71.3093 48.1441 71.9573 47.2801 72.5333C47.0641 72.6773 46.9921 72.7493 46.9201 72.7493C46.8481 72.7493 46.7761 72.6773 46.7761 72.6053C46.7761 72.5333 46.7761 72.4613 46.9921 72.3173C47.2801 72.1013 49.7281 70.3013 51.3121 70.3013C52.7521 70.3013 53.4361 71.0573 53.4361 72.0653ZM89.1312 83.3333C86.8272 85.1333 83.7312 87.2933 80.7792 87.2933C79.0152 87.2933 77.9712 86.4293 77.9712 84.3413C75.5232 85.8533 73.0392 87.0413 71.2392 87.0413C69.0072 87.0413 68.0712 85.3133 68.0712 83.0813C68.0712 77.6813 74.7312 70.6253 80.3112 70.6253C82.2192 70.6253 84.3072 71.7413 84.9552 74.0453C85.3152 74.0453 85.8912 74.1893 85.8912 74.8373C85.8912 77.0693 84.0912 78.6533 82.7232 80.0933C82.2912 80.5253 81.6432 81.1013 81.0672 81.6773C80.7072 82.6133 80.6352 83.4773 80.6352 84.0533C80.6352 84.7733 80.8512 85.9253 82.6512 85.9253C84.6672 85.9253 86.8272 84.4853 88.8432 82.9733C91.0032 81.3173 92.2992 79.7333 93.7392 77.9333C93.8832 77.7173 93.9552 77.7173 94.0272 77.7173C94.0992 77.7173 94.1712 77.7893 94.1712 77.8613C94.1712 77.9333 94.1712 77.9333 94.0992 78.0773C92.2992 80.5253 90.3552 82.3973 89.1312 83.3333ZM80.2032 71.4893C75.4512 71.4893 71.0592 78.2573 71.0592 83.0093C71.0592 84.2333 71.3832 85.8173 73.0392 85.8173C74.9832 85.8173 76.9992 84.4493 78.0432 83.6213C78.6192 81.6053 79.7712 79.1573 80.7792 77.7893C81.6432 76.5653 83.2272 74.6213 84.3792 74.1893C83.7312 72.5333 82.0752 71.4893 80.2032 71.4893ZM81.3192 80.8853C84.1272 78.0773 84.9552 76.4933 84.9552 75.9173C84.9552 75.7013 84.8112 75.6293 84.6672 75.6293C84.0192 75.6293 82.2912 78.8693 81.3192 80.8853ZM98.7181 72.4253C98.7181 74.1893 95.2981 79.4093 94.7221 80.4893H94.7941L95.4061 79.8773C99.2941 75.8453 105.558 70.6613 108.366 70.6613C109.158 70.6613 109.95 70.8413 109.95 71.4173C109.95 71.8133 109.446 72.1013 108.798 72.6053C108.33 72.9653 108.15 73.3253 107.934 73.3253C107.79 73.3253 107.79 73.2533 107.79 73.1093C107.79 72.8933 107.322 72.7133 106.602 72.7133C104.802 72.7133 103.182 73.7933 99.7261 76.7093C100.482 77.6453 101.166 78.4733 101.742 80.9213C102.642 84.6653 102.858 85.9973 104.766 85.9973C106.134 85.9973 109.158 84.3413 110.814 82.9733C112.974 81.3173 114.27 79.7333 115.71 77.9333C115.854 77.7173 115.926 77.7173 115.998 77.7173C116.07 77.7173 116.142 77.7893 116.142 77.8613C116.142 77.9333 116.142 77.9333 116.07 78.0773C114.27 80.5253 112.326 82.3973 111.102 83.3333C109.95 84.3053 107.826 85.8173 105.702 86.7173C102.678 89.3813 99.2221 93.7013 99.2221 96.7613C99.2221 97.7693 99.6901 98.5253 100.446 98.5253C100.878 98.5253 101.094 98.0933 101.238 98.0933C101.31 98.0933 101.346 98.1293 101.346 98.2013C101.346 98.4893 100.014 99.2093 99.1861 99.2093C98.2141 99.2093 97.0621 98.6333 97.0621 96.9053C97.0621 93.4493 102.066 89.2733 104.802 87.0413C104.082 87.2933 103.362 87.4373 102.714 87.4373C100.158 87.4373 99.7621 85.3133 99.1141 82.0733C98.7541 80.3813 97.9261 79.1213 97.4581 78.6893C96.9181 79.1933 95.4421 80.6693 93.6421 82.9373C93.0661 83.9093 92.4901 84.8813 91.6621 86.5733C91.5181 86.8613 90.2221 86.8613 89.5741 86.9333C88.9981 87.0053 88.6381 87.3293 88.4221 87.3293C88.4221 87.3293 88.2781 87.3293 88.2781 87.1853C88.2781 86.8253 89.7901 85.4933 93.7501 77.9333C95.0461 75.4853 96.0541 73.6133 96.0541 72.7493C96.0541 71.8133 95.7661 71.3093 95.1901 71.3093C94.4701 71.3093 93.3901 71.9573 92.5261 72.5333C92.3101 72.6773 92.2381 72.7493 92.1661 72.7493C92.0941 72.7493 92.0221 72.6773 92.0221 72.6053C92.0221 72.5333 92.0221 72.4613 92.2381 72.3173C92.5261 72.1013 94.9741 70.3013 96.5581 70.3013C97.9981 70.3013 98.7181 71.2373 98.7181 72.4253ZM120.655 72.0653C120.655 73.1093 120.151 74.3693 119.611 75.3773C120.691 74.4413 123.967 70.9853 126.019 70.9853C126.811 70.9853 127.351 71.6693 127.351 72.6773C127.351 74.0453 126.595 75.7733 126.595 75.7733C126.595 75.7733 131.491 70.7333 134.947 70.7333C136.099 70.7333 137.071 71.4533 137.071 72.5333C137.071 75.5573 129.043 81.8933 129.043 91.3253C129.043 94.5653 130.771 98.2733 134.803 98.2733C138.799 98.2733 143.875 93.9893 146.035 90.8213C146.179 90.6053 146.251 90.6053 146.323 90.6053C146.395 90.6053 146.467 90.6773 146.467 90.7493C146.467 90.8213 146.467 90.8213 146.395 90.9653C143.299 95.1413 138.043 99.3173 133.507 99.3173C129.547 99.3173 126.595 96.2213 126.595 91.7573C126.595 83.1893 133.507 76.3853 133.507 73.5413C133.507 73.0373 133.219 72.6053 132.643 72.6053C130.627 72.6053 127.423 75.5573 125.803 77.2493C124.975 78.1133 124.075 79.1933 122.779 79.1933C122.707 79.1933 122.671 79.1573 122.671 79.0853C122.671 78.6893 123.175 78.6893 123.319 78.2573C123.319 78.2573 124.795 75.0173 124.795 73.8653C124.795 73.4333 124.579 72.8573 123.967 72.8573C122.599 72.8573 120.547 74.9093 119.107 76.8533C117.307 79.2293 115.507 82.9013 113.707 86.5373C113.419 87.1133 112.411 86.7173 111.583 87.0053C110.899 87.2573 110.575 87.4373 110.395 87.4373C110.287 87.4373 110.215 87.3293 110.215 87.2573C110.215 87.1853 110.359 87.0773 110.539 86.8253C111.547 85.3493 114.283 80.5613 115.723 77.9333C117.199 75.3053 117.883 73.2893 117.883 72.4613C117.883 71.5253 117.595 71.3093 117.163 71.3093C116.443 71.3093 115.363 71.9573 114.499 72.5333C114.283 72.6773 114.211 72.7493 114.139 72.7493C114.067 72.7493 113.995 72.6773 113.995 72.6053C113.995 72.5333 113.995 72.4613 114.211 72.3173C114.499 72.1013 116.947 70.3013 118.531 70.3013C119.971 70.3013 120.655 71.0573 120.655 72.0653ZM160.147 83.3333C157.843 85.1333 154.747 87.2933 151.795 87.2933C150.031 87.2933 148.987 86.4293 148.987 84.3413C146.539 85.8533 144.055 87.0413 142.255 87.0413C140.023 87.0413 139.087 85.3133 139.087 83.0813C139.087 77.6813 145.747 70.6253 151.327 70.6253C153.235 70.6253 155.323 71.7413 155.971 74.0453C156.331 74.0453 156.907 74.1893 156.907 74.8373C156.907 77.0693 155.107 78.6533 153.739 80.0933C153.307 80.5253 152.659 81.1013 152.083 81.6773C151.723 82.6133 151.651 83.4773 151.651 84.0533C151.651 84.7733 151.867 85.9253 153.667 85.9253C155.683 85.9253 157.843 84.4853 159.859 82.9733C162.019 81.3173 163.315 79.7333 164.755 77.9333C164.899 77.7173 164.971 77.7173 165.043 77.7173C165.115 77.7173 165.187 77.7893 165.187 77.8613C165.187 77.9333 165.187 77.9333 165.115 78.0773C163.315 80.5253 161.371 82.3973 160.147 83.3333ZM151.219 71.4893C146.467 71.4893 142.075 78.2573 142.075 83.0093C142.075 84.2333 142.399 85.8173 144.055 85.8173C145.999 85.8173 148.015 84.4493 149.059 83.6213C149.635 81.6053 150.787 79.1573 151.795 77.7893C152.659 76.5653 154.243 74.6213 155.395 74.1893C154.747 72.5333 153.091 71.4893 151.219 71.4893ZM152.335 80.8853C155.143 78.0773 155.971 76.4933 155.971 75.9173C155.971 75.7013 155.827 75.6293 155.683 75.6293C155.035 75.6293 153.307 78.8693 152.335 80.8853ZM181.866 83.3333C178.194 86.2853 174.414 88.0133 172.254 88.0133C171.066 88.0133 169.95 87.2933 169.95 85.9973C169.95 81.6053 176.322 77.7533 176.322 74.9453C176.322 73.1453 175.062 72.8573 174.414 72.8573C172.182 72.8573 167.97 76.8533 164.982 80.5253C164.982 80.5253 163.002 84.0173 161.778 86.2853C155.442 98.1653 152.706 104.249 145.686 116.813C143.598 120.557 139.17 120.989 138.882 120.989C138.702 120.989 138.558 120.989 138.558 120.845C138.558 120.485 139.134 120.737 140.43 119.729C141.654 118.793 146.478 111.809 160.518 85.9973C164.046 79.5173 165.27 76.7813 165.27 75.2693C165.27 73.7933 164.946 73.2173 164.55 72.9293C164.37 72.7853 164.262 72.7493 164.262 72.6773C164.262 72.5333 164.622 72.3893 164.91 72.1733C165.774 71.5253 165.702 71.2373 166.35 71.2373C166.998 71.2373 167.574 72.0293 167.574 73.7573C167.574 74.9093 166.998 76.7093 166.422 77.7893C171.642 72.6053 175.062 70.6613 177.438 70.6613C178.158 70.6613 179.49 71.0933 179.49 73.1813C179.49 76.9253 172.47 82.4693 172.47 84.9893C172.47 86.2133 173.118 86.5733 174.054 86.5733C176.214 86.5733 179.994 84.1973 181.578 82.9733C183.738 81.3173 185.034 79.7333 186.474 77.9333C186.654 77.7173 186.69 77.7173 186.762 77.7173C186.834 77.7173 186.906 77.7893 186.906 77.8613C186.906 77.9333 186.942 77.9333 186.834 78.0773C185.034 80.5253 183.09 82.3973 181.866 83.3333ZM190.885 79.1933C190.777 79.6613 189.949 80.0573 189.481 80.0573C189.193 80.0573 188.977 79.8053 188.977 79.4453C188.977 79.2293 189.157 78.5813 189.517 77.6813C191.785 72.1013 194.665 66.5573 198.157 61.1933C198.949 60.0053 199.633 58.9973 200.353 58.2053C200.713 57.8453 201.325 57.5573 202.117 57.5573C202.729 57.5573 205.033 58.1333 205.033 58.5293C205.033 58.6373 204.961 58.6733 204.889 58.6733C204.817 58.6733 204.709 58.5653 204.421 58.5653C203.125 58.5653 201.181 60.3293 199.417 62.5613C194.485 68.8253 192.073 74.0093 190.885 79.1933ZM186.061 85.5653C186.061 84.1973 187.537 82.8653 189.013 82.8653C189.805 82.8653 190.345 83.5853 190.345 84.4493C190.345 85.9613 188.401 87.0773 187.393 87.0773C186.529 87.0773 186.061 86.4293 186.061 85.5653Z" fill="#2F2402"></path></svg> 