<?xml version="1.0" encoding="UTF-8"?> <svg xmlns="http://www.w3.org/2000/svg" width="330" height="118" viewBox="0 0 330 118" fill="none"><path d="M329.176 0.368164V87.4249C328.163 88.0717 327.249 89.4946 327.175 92.0817C327.224 92.2758 322.407 90.3354 322.061 90.012C322.926 89.9474 316.132 88.6538 317.096 87.5866C316.775 87.6513 312.229 86.5841 312.106 85.4199C310.747 88.5244 305.658 92.1141 306.819 86.3577C306.103 88.1687 302.224 85.2582 301.804 85.9697C302.101 84.1587 296.839 84.9672 296.617 86.196C297.333 83.0915 291.651 87.0045 291.651 83.4149C291.651 85.4199 286.167 89.1712 286.167 88.104C286.167 85.3229 281.449 78.1436 281.449 81.9273C281.449 82.3477 276.063 87.4573 276.063 85.2905C276.063 84.6114 271.888 89.6563 271.888 81.7332C271.888 78.8551 267.467 80.3103 267.467 83.0591C267.467 83.8353 263.588 89.4946 263.588 85.9697C263.588 85.2259 257.808 83.1885 257.808 88.0394C257.808 91.8554 252.002 90.9175 252.002 91.1439C252.002 92.4051 246.518 92.8579 246.518 93.634C246.518 92.5992 241.157 88.8802 241.157 91.1116C241.157 90.9175 236.167 90.9175 236.167 87.716C236.167 86.2931 230.955 90.0767 230.955 87.2309C230.955 86.4224 225.817 86.4548 225.817 84.7408C225.817 87.1985 220.629 88.2657 220.629 89.1712C220.629 86.3901 215.268 80.2456 215.268 84.9025C215.268 87.0692 210.55 91.5967 210.55 91.435C210.55 87.5543 205.337 95.4773 205.337 90.6588C205.337 89.3329 200.298 91.8554 200.298 91.9201C200.298 88.5568 195.629 93.9251 195.629 95.542C195.629 100.231 190.145 93.3106 190.145 94.1514C190.145 94.9923 185.056 90.1737 185.056 95.251C185.056 97.6441 180.757 104.953 180.757 100.393C180.757 103.433 175.693 101.104 175.693 101.589C175.693 100.005 169.839 102.56 169.839 98.9376C169.839 100.328 165.318 101.428 165.318 102.948C165.318 100.684 159.932 105.438 159.932 102.527C159.932 103.821 154.819 102.786 154.819 103.336C154.819 102.98 150.125 103.983 150.125 106.57C150.125 104.92 145.209 107.54 145.209 107.896C145.209 108.025 140.515 109.577 140.515 111.129C140.515 108.769 135.525 114.008 135.525 112.358C135.525 110.871 130.511 110.58 130.511 113.231C130.511 112.843 125.273 113.005 125.273 111.388C125.273 112.779 120.283 111.453 120.283 112.261C120.283 113.975 115.367 113.296 115.367 115.301C115.367 115.883 110.328 116.174 110.328 116.465C110.328 119.958 105.214 110.838 105.214 113.652C105.214 112.423 100.15 115.786 100.15 116.595C100.15 117.888 95.1353 109.221 95.1353 113.329C95.1353 115.722 90.1451 112.746 90.1451 111.97C90.1451 108.93 83.9199 114.751 83.9199 115.625C83.9199 117.662 78.6333 107.281 78.6333 110.127C78.6333 114.299 73.0998 109.124 73.0998 108.381C73.0998 107.734 68.332 104.468 68.332 103.983C68.332 106.02 63.0702 102.333 63.0702 102.236C63.0702 101.88 57.3884 98.3879 57.3884 104.532C57.3884 104.015 52.3736 98.4525 52.3736 98.5172C52.3736 99.5521 47.0623 103.239 47.0623 102.107C47.0623 102.592 41.8499 102.98 41.8499 103.239C41.8499 104.015 36.2175 103.239 36.2175 102.98C36.2175 102.527 31.598 113.102 31.598 108.348C31.598 106.085 26.4597 114.072 26.4597 112.585C26.4597 112.164 20.4567 107.96 20.185 108.381C19.5921 107.346 15.8619 108.639 15.2196 107.54C14.182 109.901 9.85892 106.279 9.41425 105.308C8.87079 112.035 4.94293 105.082 4.20181 102.204C3.26309 104.888 1.50916 105.405 0.644531 105.05V0.368164H329.176Z" fill="#738257"></path></svg> 