<?xml version="1.0" encoding="UTF-8"?> <svg xmlns="http://www.w3.org/2000/svg" width="391" height="392" viewBox="0 0 391 392" fill="none"><path d="M390.639 106.996V28.0518C389.436 27.4653 388.351 26.175 388.263 23.8289C388.322 23.653 382.603 25.4125 382.193 25.7058C383.219 25.7644 375.155 26.9374 376.298 27.9052C375.917 27.8465 370.521 28.8143 370.375 29.87C368.762 27.0547 362.721 23.7996 364.099 29.0196C363.249 27.3773 358.645 30.0166 358.146 29.3715C358.498 31.0137 352.252 30.2805 351.988 29.1662C352.838 31.9814 346.093 28.433 346.093 31.6882C346.093 29.87 339.583 26.4682 339.583 27.436C339.583 29.958 333.982 36.4682 333.982 33.0371C333.982 32.6559 327.589 28.0225 327.589 29.9873C327.589 30.6031 322.633 26.0284 322.633 33.2131C322.633 35.8231 317.384 34.5034 317.384 32.0108C317.384 31.3069 312.779 26.175 312.779 29.3715C312.779 30.0459 305.917 31.8934 305.917 27.4946C305.917 24.0342 299.026 24.8847 299.026 24.6794C299.026 23.5357 292.516 23.1251 292.516 22.4213C292.516 23.3597 286.152 26.7322 286.152 24.7087C286.152 24.8847 280.228 24.8847 280.228 27.7879C280.228 29.0782 274.04 25.6471 274.04 28.2278C274.04 28.9609 267.941 28.9316 267.941 30.4858C267.941 28.2571 261.782 27.2894 261.782 26.4682C261.782 28.9902 255.419 34.5621 255.419 30.3392C255.419 28.3744 249.818 24.2688 249.818 24.4154C249.818 27.9345 243.63 20.7498 243.63 25.1193C243.63 26.3216 237.647 24.0342 237.647 23.9756C237.647 27.0254 232.105 22.1574 232.105 20.6911C232.105 16.4389 225.595 22.7146 225.595 21.9521C225.595 21.1896 219.554 25.5591 219.554 20.955C219.554 18.7849 214.451 12.1574 214.451 16.2923C214.451 13.5357 208.439 15.6471 208.439 15.2072C208.439 16.6442 201.489 14.3275 201.489 17.6119C201.489 16.3509 196.123 15.3539 196.123 13.9756C196.123 16.0284 189.73 11.7175 189.73 14.3568C189.73 13.1838 183.659 14.1222 183.659 13.6237C183.659 13.9462 178.087 13.0371 178.087 10.6911C178.087 12.1867 172.252 9.81134 172.252 9.48876C172.252 9.37146 166.68 7.96383 166.68 6.55621C166.68 8.69697 160.756 3.94624 160.756 5.44183C160.756 6.79081 154.803 7.05474 154.803 4.65005C154.803 5.00195 148.586 4.85532 148.586 6.3216C148.586 5.06061 142.662 6.26296 142.662 5.52982C142.662 3.97557 136.826 4.5914 136.826 2.77322C136.826 2.24535 130.844 1.98142 130.844 1.71749C130.844 -1.44966 124.774 6.82014 124.774 4.26882C124.774 5.38319 118.762 2.33334 118.762 1.6002C118.762 0.427185 112.809 8.28642 112.809 4.56207C112.809 2.39198 106.885 5.08994 106.885 5.79375C106.885 8.55035 99.495 3.27175 99.495 2.47997C99.495 0.632462 93.2193 10.0459 93.2193 7.4653C93.2193 3.68231 86.6504 8.37439 86.6504 9.04887C86.6504 9.63538 80.9906 12.5973 80.9906 13.0371C80.9906 11.1896 74.7443 14.5328 74.7443 14.6207C74.7443 14.9433 67.9994 18.1105 67.9994 12.5386C67.9994 13.0078 62.0463 18.0518 62.0463 17.9932C62.0463 17.0547 55.7413 13.7116 55.7413 14.738C55.7413 14.2981 49.5536 13.9462 49.5536 13.7116C49.5536 13.0078 42.8674 13.7116 42.8674 13.9462C42.8674 14.3568 37.3836 4.76735 37.3836 9.0782C37.3836 11.131 31.2838 3.88758 31.2838 5.23656C31.2838 5.61779 24.1577 9.43011 23.8352 9.04887C23.1313 9.98729 18.7032 8.81427 17.9408 9.81134C16.7091 7.67058 11.5771 10.955 11.0493 11.8348C10.4041 5.73509 5.74133 12.0401 4.86157 14.6501C3.74719 12.216 1.66507 11.7468 0.638672 12.0694V106.996L390.639 106.996Z" fill="#FFF8E9"></path><rect x="0.638672" y="63.0039" width="390" height="328.95" fill="#FFF8E9"></rect></svg> 