<?xml version="1.0" encoding="UTF-8"?> <svg xmlns="http://www.w3.org/2000/svg" width="245" height="59" viewBox="0 0 245 59" fill="none"><path d="M39.052 29.8265C37.972 30.6905 34.012 33.6425 30.628 33.6425C27.676 33.6425 27.172 31.6265 27.172 27.8105C27.172 26.0825 27.388 24.2105 27.604 22.6985C25.012 22.9865 24.148 23.0585 23.284 23.0585C20.62 23.0585 17.956 22.2665 16.444 22.2665C16.156 22.2665 15.94 22.2665 15.724 22.3385C11.692 26.9465 8.09203 30.8345 6.00403 32.5625C5.14003 33.2105 4.27603 33.4265 2.90803 33.5705C2.33203 33.6425 1.68403 33.8225 0.964031 33.8225C0.748031 33.8225 0.532031 33.7865 0.532031 33.5705C0.532031 33.2825 0.820031 33.2825 1.10803 33.2105C1.75603 32.9945 2.76403 32.3465 3.41203 31.7705C9.46003 26.5145 16.66 19.7465 29.188 5.13049C31.78 2.10649 31.924 2.32249 33.868 1.53049C34.3 1.38649 35.092 0.88249 35.452 0.88249C35.632 0.88249 35.74 1.06249 35.74 1.24249C35.74 1.89049 35.092 3.07849 34.948 3.47449C33.616 6.93049 31.708 14.9225 30.844 21.4025C33.436 20.6465 35.668 18.6665 36.028 18.6665C36.172 18.6665 36.244 18.7385 36.244 18.8825C36.244 19.2065 33.4 21.1505 30.772 22.0505C30.556 23.9225 30.412 25.5785 30.412 26.9465C30.412 31.1225 31.24 32.3105 32.608 32.3105C34.12 32.3105 36.748 30.9785 38.764 29.4665C40.924 27.8105 42.22 26.2265 43.66 24.4265C43.804 24.2105 43.876 24.2105 43.948 24.2105C44.02 24.2105 44.092 24.2825 44.092 24.3545C44.092 24.4265 44.092 24.4265 44.02 24.5705C42.22 27.0185 40.276 28.8905 39.052 29.8265ZM16.876 21.0425H18.1C20.908 21.0425 23.788 21.9065 26.308 21.9065C26.668 21.9065 27.172 21.9065 27.748 21.8345C28.684 14.4185 31.348 4.62649 31.348 4.48249C31.348 4.33849 31.312 4.26649 31.24 4.26649C31.096 4.26649 30.52 4.84249 30.052 5.41849L16.876 21.0425ZM41.4449 31.9865C42.6689 31.9865 44.9729 30.6545 47.3129 27.8825C48.1049 26.9465 48.4289 26.1545 48.4289 25.5785C48.4289 25.2905 48.2849 25.0025 48.0329 24.8225C47.1329 24.3545 45.9809 23.6345 45.9809 22.2305C45.9809 18.4505 50.5889 16.7945 53.3609 16.7945C54.9089 16.7945 55.9889 16.9385 57.1409 16.9385C57.7889 16.9385 58.2569 16.9025 59.3369 16.9025C59.7329 16.9025 59.9129 16.9385 59.9129 17.0825C59.9129 17.2265 59.6249 17.3345 59.3729 17.5505C59.2649 17.6585 59.0489 17.8745 58.6169 18.4505C57.5729 19.8905 56.0609 22.2665 54.7289 24.9665C53.6129 27.2345 52.8929 29.4665 52.8929 30.5825C52.8929 31.5905 53.3249 32.0585 54.2609 32.0585C56.3129 32.0585 59.5529 30.4745 60.7769 29.4665C62.9369 27.8105 64.2329 26.2265 65.6729 24.4265C65.8169 24.2105 65.8889 24.2105 65.9609 24.2105C66.0329 24.2105 66.1049 24.2825 66.1049 24.3545C66.1049 24.4265 66.1049 24.4265 66.0329 24.5705C64.2329 27.0185 62.2889 28.8905 61.0649 29.8265C59.5889 31.0865 54.9809 33.5345 52.1369 33.5345C50.8409 33.5345 49.9049 32.9585 49.9049 31.6625C49.9049 29.5025 51.2009 26.8385 52.7849 24.0305C54.1889 21.5465 56.4209 18.2705 56.4209 17.8025C56.4209 17.4425 55.7729 17.4065 54.7649 17.4065H53.7209C50.8049 17.4065 48.7889 19.6025 48.7889 21.6545C48.7889 23.0585 49.1849 23.8505 50.1569 24.1385C50.5889 24.2825 51.4169 24.2465 51.4169 24.4985C51.4169 24.7145 51.1289 24.7865 50.4449 25.3265C49.8689 25.7945 48.5009 27.3425 46.9889 28.9985C43.3889 32.8145 41.1569 33.4985 40.0769 33.4985C38.5289 33.4985 37.4129 32.2025 37.4129 30.9065C37.4129 30.6185 37.6289 30.4385 37.8809 30.2585C39.2129 29.2865 40.1129 28.3865 40.1849 28.3865C40.3289 28.3865 40.4009 28.4585 40.4009 28.6025C40.4009 28.7465 40.1489 28.8545 39.8609 29.2865C39.7169 29.5025 39.6089 29.7545 39.6089 30.2225C39.6089 31.0865 40.5089 31.9865 41.4449 31.9865ZM70.3647 36.4145C67.2327 37.4585 64.0647 38.3585 61.3287 39.3305C53.8767 41.9585 46.5327 46.8545 46.5327 52.6505C46.5327 55.0985 47.5767 57.0425 50.8167 57.0425C55.4247 57.0425 60.7887 53.3705 65.1807 45.5585C65.1807 45.5585 68.0607 40.5185 70.3647 36.4145ZM83.7567 29.8265C81.0207 32.1305 77.5287 33.8585 73.0287 35.4785C70.4007 39.7985 66.8727 45.3785 66.8727 45.3785C62.1567 52.9385 55.5327 58.3385 49.2687 58.3385C45.3447 58.3385 43.8327 55.3505 43.8327 53.1185C43.8327 45.0545 54.6687 40.8785 61.1487 38.6465C64.6767 37.4585 67.8087 36.5225 70.8327 35.5505C71.6247 34.1465 73.7487 30.3305 73.7487 30.3305C70.4367 32.9945 67.4487 33.6785 65.2887 33.6785C63.9567 33.6785 62.4447 32.8505 62.4447 31.3385C62.4447 27.0905 68.0607 22.4105 68.0607 19.0265C68.0607 18.3785 67.7007 18.0905 67.0527 18.0905C66.0447 18.0905 65.3247 18.4505 64.4607 19.0265C64.2447 19.1705 64.1727 19.2425 64.1007 19.2425C64.0287 19.2425 63.9567 19.1705 63.9567 19.0985C63.9567 19.0265 63.9567 18.9545 64.1727 18.8105C65.3247 18.0185 66.6927 17.2265 68.1327 17.2265C69.5727 17.2265 70.6527 17.9465 70.6527 19.5305C70.6527 21.9065 65.2167 27.9185 65.2167 30.6545C65.2167 31.8785 65.8647 32.4905 67.0167 32.4905C69.0687 32.4905 72.5247 30.7625 74.3247 29.2505L78.2127 21.7625C79.4367 19.4585 79.6527 18.3065 80.8047 18.1625C81.5247 18.0905 82.4607 18.0185 82.8207 18.0185C82.9647 18.0185 83.0367 18.1625 83.0367 18.2345C83.0367 18.5945 80.9127 21.9065 79.7967 23.8505C79.7967 23.8505 75.9087 30.7625 73.5687 34.6505C76.9167 33.4625 80.0847 31.9865 83.4687 29.4665C85.6287 27.8105 86.9247 26.2265 88.3647 24.4265C88.5087 24.2105 88.5807 24.2105 88.6527 24.2105C88.7247 24.2105 88.7967 24.2825 88.7967 24.3545C88.7967 24.4265 88.7967 24.4265 88.7247 24.5705C86.9247 27.0185 84.9807 28.8905 83.7567 29.8265ZM91.6725 28.9985C88.0725 32.8145 85.4805 33.4985 84.5445 33.4985C83.3925 33.4985 82.1685 33.1385 82.1685 31.6985C82.1685 30.1145 83.1045 29.8625 83.9685 29.1425C85.0845 28.2065 85.5885 27.5945 85.8045 27.5945C85.8405 27.5945 85.9125 27.6305 85.9125 27.7025C85.9125 27.7745 85.8045 27.9545 85.6245 28.1345C84.7605 28.8905 84.3285 29.6825 84.3285 30.5465C84.3285 31.4825 84.9405 32.1305 85.8765 32.1305C87.1005 32.1305 89.5125 30.5105 91.9965 27.8825C94.5165 25.2185 96.3525 22.9505 97.5405 21.2225C98.4045 19.9625 98.6925 18.8105 99.4845 18.0905C99.7365 17.8385 100.385 17.5865 101.141 17.2985C101.681 17.0825 102.148 16.7585 102.329 16.7585C102.473 16.7585 102.545 16.7945 102.545 16.9745C102.545 17.3345 101.105 18.8825 100.133 20.8625C98.4765 24.1745 96.8205 27.5225 96.8205 29.8625C96.8205 31.1225 97.1085 32.3105 98.9085 32.3105C101.069 32.3105 103.553 30.9785 105.497 29.4665C107.657 27.8105 108.953 26.2265 110.393 24.4265C110.537 24.2105 110.609 24.2105 110.681 24.2105C110.753 24.2105 110.825 24.2825 110.825 24.3545C110.825 24.4265 110.825 24.4265 110.753 24.5705C108.953 27.0185 107.009 28.8905 105.785 29.8265C103.841 31.3385 100.457 33.5345 96.9285 33.5345C94.9125 33.5345 93.7605 32.2745 93.7605 30.5825C93.7605 28.6025 94.8045 26.5865 96.8205 22.9865C95.7765 24.2465 93.5805 26.9825 91.6725 28.9985ZM128.979 17.5145C129.375 17.5145 130.527 17.7305 130.527 18.4865C130.527 19.8545 127.719 22.1585 126.531 24.7505C125.775 26.4425 124.587 29.3225 124.587 30.6905C124.587 31.8785 125.523 32.3825 126.243 32.3825C127.899 32.3825 130.851 31.1225 132.867 29.4665C135.027 27.8105 136.323 26.2265 137.763 24.4265C137.907 24.2105 137.979 24.2105 138.051 24.2105C138.123 24.2105 138.195 24.2825 138.195 24.3545C138.195 24.4265 138.195 24.4265 138.123 24.5705C136.323 27.0185 134.379 28.8905 133.155 29.8265C130.419 32.1305 126.567 33.8225 124.407 33.8225C123.003 33.8225 121.995 33.0665 121.995 31.7705C121.995 29.7545 123.651 26.6945 124.623 24.6785C124.047 24.9665 123.111 25.1105 122.571 25.1105C121.887 25.1105 121.023 24.8945 121.023 24.8945C120.231 29.4665 115.371 33.6785 111.015 33.6785C108.315 33.6425 107.235 32.3105 107.235 29.6465C107.235 26.1905 111.123 20.6465 112.419 18.8105C112.635 18.4865 112.887 18.3785 113.139 18.3425C115.155 17.9825 115.839 17.5145 116.631 17.5145C116.847 17.5145 116.883 17.6585 116.883 17.8025C116.883 17.9465 115.767 18.1625 114.723 19.5665C113.391 21.3665 110.043 26.1185 110.043 29.5745C110.043 31.5545 110.799 32.7065 112.563 32.7065C116.019 32.7065 118.755 28.0265 118.755 25.6505C118.755 25.0385 118.755 24.4625 118.251 23.8865C117.819 23.5985 116.631 22.8065 116.631 22.5905C116.631 22.1585 117.171 22.0865 117.639 21.7985C118.467 21.2945 118.791 20.9705 119.007 20.9705C119.187 20.9705 119.259 21.5465 119.439 21.7985C119.907 22.4825 121.023 24.3545 123.147 24.3545C123.759 24.3545 124.551 24.2105 124.947 23.9945C125.811 22.1945 127.827 17.5145 128.979 17.5145ZM156.871 29.8625C156.871 31.1225 157.231 32.3105 159.031 32.3105C161.191 32.3105 163.675 30.9785 165.619 29.4665C167.779 27.8105 169.075 26.2265 170.515 24.4265C170.659 24.2105 170.731 24.2105 170.803 24.2105C170.875 24.2105 170.947 24.2825 170.947 24.3545C170.947 24.4265 170.947 24.4265 170.875 24.5705C169.075 27.0185 167.131 28.8905 165.907 29.8265C163.963 31.3385 160.579 33.5345 157.051 33.5345C155.035 33.5345 153.847 32.2745 153.847 30.5825C153.847 28.8545 154.711 27.0185 155.971 24.6065C154.999 25.7585 153.811 27.0545 152.191 28.8185C149.347 31.9145 147.007 33.3545 145.279 33.3545C144.055 33.3545 143.083 32.7425 143.083 31.0505C143.083 29.3225 143.695 26.7305 145.567 23.1305C144.631 24.3905 142.975 26.9825 141.067 28.9985C137.467 32.8145 134.875 33.4985 133.939 33.4985C132.787 33.4985 131.563 33.1385 131.563 31.6985C131.563 30.1145 132.499 29.8625 133.363 29.1425C134.479 28.2065 134.983 27.5945 135.199 27.5945C135.235 27.5945 135.307 27.6305 135.307 27.7025C135.307 27.7745 135.199 27.9545 135.019 28.1345C134.155 28.8905 133.723 29.6825 133.723 30.5465C133.723 31.4825 134.335 32.1305 135.271 32.1305C136.495 32.1305 138.907 30.5105 141.391 27.8825C143.911 25.2185 145.135 22.9505 146.251 21.2225C147.079 19.9265 147.331 18.7745 148.123 18.0545C148.375 17.8025 149.239 17.4065 149.995 17.1545C150.427 17.0105 150.571 16.7945 150.751 16.7945C150.859 16.7945 150.895 16.8665 150.895 17.0105C150.895 17.3705 149.815 18.8825 148.843 20.8625C147.223 24.1745 146.107 28.0625 146.107 30.4025C146.107 31.5185 146.827 31.6985 147.187 31.6985C148.267 31.6985 149.923 30.6185 151.867 28.5305C153.091 27.2345 155.683 24.2465 157.303 21.7625C158.131 20.4665 158.923 18.7745 159.679 18.0185C159.931 17.7665 160.435 17.5145 161.191 17.2265C161.731 17.0105 162.559 16.8305 162.739 16.8305C162.883 16.8305 162.955 16.9745 162.955 17.1545C162.955 17.5145 161.263 18.8825 160.255 20.8625C158.563 24.1745 156.871 27.5225 156.871 29.8625ZM175.453 18.5585C175.453 20.1065 172.537 25.1105 172.537 25.1105C173.437 25.1825 174.085 25.2185 174.769 25.2185C176.677 25.2185 178.765 24.8225 180.853 23.8865C181.825 22.3025 183.841 19.2785 184.381 18.5585C184.993 17.7305 185.929 17.5505 186.757 17.4065C187.369 17.2985 188.017 17.0825 188.377 17.0825C188.521 17.0825 188.557 17.1545 188.557 17.2265C188.557 17.4425 187.585 17.6945 185.533 20.4305C182.761 24.1385 180.313 28.6025 180.313 30.9065C180.313 32.0945 180.817 32.8865 182.257 32.8865C183.841 32.8865 186.397 31.3385 188.845 29.4665C191.005 27.8105 192.301 26.2265 193.741 24.4265C193.885 24.2105 193.957 24.2105 194.029 24.2105C194.101 24.2105 194.173 24.2825 194.173 24.3545C194.173 24.4265 194.173 24.4265 194.101 24.5705C192.301 27.0185 190.357 28.8905 189.133 29.8265C186.397 32.0585 183.553 34.1825 180.385 34.1825C178.369 34.1825 177.469 33.1745 177.469 31.5545C177.469 29.8265 178.585 27.6665 180.277 25.0025C178.081 25.8665 176.101 26.1905 171.889 26.4065C171.241 27.7745 168.685 32.1305 167.965 33.3185C167.713 33.7145 166.849 33.7505 165.913 33.8945C165.301 34.0025 164.905 34.3985 164.689 34.3985C164.545 34.3985 164.473 34.3625 164.473 34.2185C164.473 34.0745 165.049 33.5345 166.057 31.8785C166.741 30.7985 168.037 28.6385 169.081 26.6945C168.937 25.6865 168.649 25.2545 168.649 24.9305C168.649 24.7505 168.865 24.5345 168.901 24.5345C169.153 24.5345 169.657 24.7145 170.161 24.7505C171.781 21.8705 172.681 20.0345 172.681 18.9545C172.681 18.0185 172.393 17.8025 171.961 17.8025C171.241 17.8025 170.161 18.4505 169.297 19.0265C169.081 19.1705 169.009 19.2425 168.937 19.2425C168.865 19.2425 168.793 19.1705 168.793 19.0985C168.793 19.0265 168.793 18.9545 169.009 18.8105C169.297 18.5945 171.745 16.7945 173.329 16.7945C174.769 16.7945 175.453 17.5505 175.453 18.5585ZM212.3 17.5145C212.696 17.5145 213.848 17.7305 213.848 18.4865C213.848 19.8545 211.04 22.1585 209.852 24.7505C209.096 26.4425 207.908 29.3225 207.908 30.6905C207.908 31.8785 208.844 32.3825 209.564 32.3825C211.22 32.3825 214.172 31.1225 216.188 29.4665C218.348 27.8105 219.644 26.2265 221.084 24.4265C221.228 24.2105 221.3 24.2105 221.372 24.2105C221.444 24.2105 221.516 24.2825 221.516 24.3545C221.516 24.4265 221.516 24.4265 221.444 24.5705C219.644 27.0185 217.7 28.8905 216.476 29.8265C213.74 32.1305 209.888 33.8225 207.728 33.8225C206.324 33.8225 205.316 33.0665 205.316 31.7705C205.316 29.7545 206.972 26.6945 207.944 24.6785C207.368 24.9665 206.432 25.1105 205.892 25.1105C205.208 25.1105 204.344 24.8945 204.344 24.8945C203.552 29.4665 198.692 33.6785 194.336 33.6785C191.636 33.6425 190.556 32.3105 190.556 29.6465C190.556 26.1905 194.444 20.6465 195.74 18.8105C195.956 18.4865 196.208 18.3785 196.46 18.3425C198.476 17.9825 199.16 17.5145 199.952 17.5145C200.168 17.5145 200.204 17.6585 200.204 17.8025C200.204 17.9465 199.088 18.1625 198.044 19.5665C196.712 21.3665 193.364 26.1185 193.364 29.5745C193.364 31.5545 194.12 32.7065 195.884 32.7065C199.34 32.7065 202.076 28.0265 202.076 25.6505C202.076 25.0385 202.076 24.4625 201.572 23.8865C201.14 23.5985 199.952 22.8065 199.952 22.5905C199.952 22.1585 200.492 22.0865 200.96 21.7985C201.788 21.2945 202.112 20.9705 202.328 20.9705C202.508 20.9705 202.58 21.5465 202.76 21.7985C203.228 22.4825 204.344 24.3545 206.468 24.3545C207.08 24.3545 207.872 24.2105 208.268 23.9945C209.132 22.1945 211.148 17.5145 212.3 17.5145ZM226.007 18.5585C226.007 20.1065 223.091 25.1105 223.091 25.1105C223.991 25.1825 224.639 25.2185 225.323 25.2185C227.231 25.2185 229.319 24.8225 231.407 23.8865C232.379 22.3025 234.395 19.2785 234.935 18.5585C235.547 17.7305 236.483 17.5505 237.311 17.4065C237.923 17.2985 238.571 17.0825 238.931 17.0825C239.075 17.0825 239.111 17.1545 239.111 17.2265C239.111 17.4425 238.139 17.6945 236.087 20.4305C233.315 24.1385 230.867 28.6025 230.867 30.9065C230.867 32.0945 231.371 32.8865 232.811 32.8865C234.395 32.8865 236.951 31.3385 239.399 29.4665C241.559 27.8105 242.855 26.2265 244.295 24.4265C244.439 24.2105 244.511 24.2105 244.583 24.2105C244.655 24.2105 244.727 24.2825 244.727 24.3545C244.727 24.4265 244.727 24.4265 244.655 24.5705C242.855 27.0185 240.911 28.8905 239.687 29.8265C237.635 31.4825 235.511 33.1025 233.243 33.8225C230.399 36.5225 227.447 40.4105 227.447 43.2545C227.447 44.2625 227.915 45.0185 228.671 45.0185C229.103 45.0185 229.319 44.5865 229.463 44.5865C229.535 44.5865 229.571 44.6225 229.571 44.6945C229.571 44.9825 228.239 45.7025 227.411 45.7025C226.439 45.7025 225.287 45.1265 225.287 43.3985C225.287 40.1945 229.643 36.3785 232.451 34.0385C231.947 34.1465 231.443 34.1825 230.939 34.1825C228.923 34.1825 228.023 33.1745 228.023 31.5545C228.023 29.8265 229.139 27.6665 230.831 25.0025C228.635 25.8665 226.655 26.1905 222.443 26.4065C221.795 27.7745 219.239 32.1305 218.519 33.3185C218.267 33.7145 217.403 33.7505 216.467 33.8945C215.855 34.0025 215.459 34.3985 215.243 34.3985C215.099 34.3985 215.027 34.3625 215.027 34.2185C215.027 34.0745 215.603 33.5345 216.611 31.8785C217.295 30.7985 218.591 28.6385 219.635 26.6945C219.491 25.6865 219.203 25.2545 219.203 24.9305C219.203 24.7505 219.419 24.5345 219.455 24.5345C219.707 24.5345 220.211 24.7145 220.715 24.7505C222.335 21.8705 223.235 20.0345 223.235 18.9545C223.235 18.0185 222.947 17.8025 222.515 17.8025C221.795 17.8025 220.715 18.4505 219.851 19.0265C219.635 19.1705 219.563 19.2425 219.491 19.2425C219.419 19.2425 219.347 19.1705 219.347 19.0985C219.347 19.0265 219.347 18.9545 219.563 18.8105C219.851 18.5945 222.299 16.7945 223.883 16.7945C225.323 16.7945 226.007 17.5505 226.007 18.5585Z" fill="#2F2402"></path></svg> 