<?xml version="1.0" encoding="UTF-8"?> <svg xmlns="http://www.w3.org/2000/svg" width="361" height="117" viewBox="0 0 361 117" fill="none"><path d="M15.4948 2.45849C21.6868 2.45849 40.2268 3.28649 46.6348 3.28649C50.0188 3.28649 51.9988 2.35049 52.2148 1.19849C52.2508 0.982491 52.3948 0.55049 52.5748 0.55049C52.7908 0.55049 52.8628 0.766491 52.8628 0.87449C52.8628 2.38649 49.0108 5.05049 44.8348 5.05049H43.6108C39.8668 11.2425 35.4028 21.5025 33.7828 25.4265C32.9188 27.5145 32.3068 29.3865 32.3068 30.8265C32.3068 31.8345 32.7388 33.4185 34.8988 33.4185C36.4468 33.4185 39.2548 32.4105 41.8468 30.4665C44.0068 28.8105 45.3028 27.2265 46.7428 25.4265C46.8868 25.2105 46.9588 25.2105 47.0308 25.2105C47.1028 25.2105 47.1748 25.2825 47.1748 25.3545C47.1748 25.4265 47.1748 25.4265 47.1028 25.5705C45.3028 28.0185 43.3588 29.8905 42.1348 30.8265C39.7588 32.6265 36.3388 34.9305 32.9548 34.9305C30.5068 34.9305 29.0668 33.7425 29.0668 31.7985C29.0668 30.4665 29.8948 27.8745 30.7588 25.7865C33.2788 19.6665 37.3828 11.6025 40.6588 4.97849C37.9948 4.90649 34.6828 4.79849 31.2268 4.69049C27.6268 13.0425 20.8948 27.5505 18.3388 32.6625C17.4748 34.4265 16.9348 34.2105 15.2788 34.5345C14.3428 34.7145 13.9828 34.9305 13.7308 34.9305C13.5868 34.9305 13.4788 34.9305 13.4788 34.7145C13.4788 34.4985 14.1268 33.7785 14.8108 32.5545C18.8068 25.4625 24.4228 13.7625 28.3828 4.58249C25.2508 4.47449 22.1908 4.36649 19.5988 4.29449C17.2948 9.47849 14.5228 15.2025 12.6868 18.7305C9.91484 23.9505 7.82684 28.0185 5.77484 32.1585C4.73084 34.2465 4.37084 34.1745 2.89484 34.3545C1.31084 34.5345 0.878844 34.9665 0.410844 34.9665C0.230844 34.9665 0.158844 34.8585 0.158844 34.7865C0.158844 34.5705 0.482844 34.4625 1.38284 33.2025C3.07484 30.8265 4.40684 28.6665 6.17084 25.4265C9.55484 19.2345 14.2708 11.0625 16.7188 4.22249C15.6748 4.18649 14.8108 4.18649 14.1268 4.18649C10.7068 4.18649 8.43884 5.12249 7.35884 6.20249C6.92684 6.63449 6.71084 6.92249 6.56684 6.92249C6.42284 6.92249 6.35084 6.85049 6.35084 6.70649C6.35084 6.56249 6.63884 6.20249 7.14284 5.69849C9.08684 3.71849 11.8588 2.45849 15.4948 2.45849ZM55.5876 18.1185C58.3236 18.1185 60.0516 19.9905 60.0516 22.8705C60.0516 29.4585 53.1036 34.9305 47.6676 34.9305C44.9676 34.9305 43.0596 32.9865 43.0596 30.2865C43.0596 24.0945 50.1516 18.1185 55.5876 18.1185ZM54.5436 18.9105C50.6196 18.9105 46.1196 25.0305 46.1196 29.8905C46.1196 32.2305 47.2356 33.9945 48.7836 33.9945C52.7436 33.9945 57.1356 27.7665 57.1356 22.9065C57.1356 20.6025 56.1636 18.9105 54.5436 18.9105ZM77.2801 13.4745C74.9761 13.4745 74.4001 12.0345 74.4001 10.8105C74.4001 10.3065 74.5441 9.80249 74.7601 9.22649C74.9041 8.86649 75.9841 8.29049 76.4161 8.29049C76.4881 8.29049 76.4881 8.36249 76.4881 8.36249C76.4881 8.43449 76.1281 9.15449 76.1281 9.94649C76.1281 11.6025 77.4241 12.4665 78.9361 12.4665C80.0161 12.4665 82.2481 12.0345 84.1201 9.29849C84.2641 9.15449 84.6961 8.79449 85.2001 8.57849C85.5601 8.43449 85.7761 8.36249 85.8481 8.36249H85.9201C85.9201 8.79449 81.5281 13.4745 77.2801 13.4745ZM85.6681 30.8265C82.9321 33.1305 79.1521 34.7505 76.9921 34.7505C75.5521 34.7505 74.7241 33.8505 74.7241 32.7345C74.7241 32.0145 74.8681 31.2585 75.2281 30.3225C73.8601 31.6185 70.6561 34.9665 66.8761 34.9665C65.3281 34.9665 63.3481 34.1745 63.3481 31.7625C63.3481 28.3065 69.0361 22.3665 69.0361 19.9545C69.0361 19.3065 68.9641 18.8025 68.3161 18.8025C67.3081 18.8025 66.5161 19.4505 65.6521 20.0265C65.4361 20.1705 65.3641 20.2425 65.2921 20.2425C65.2201 20.2425 65.1481 20.1705 65.1481 20.0985C65.1481 20.0265 65.1481 19.9545 65.3641 19.8105C66.5161 19.0185 68.2441 17.7945 69.6841 17.7945C71.1241 17.7945 71.7721 18.4425 71.7721 19.8105C71.7721 22.0425 66.2281 28.4865 66.2281 31.2585C66.2281 32.6985 66.9121 33.4185 68.5321 33.4185C70.6561 33.4185 73.5721 31.2225 75.8041 29.0625C77.1361 26.2545 79.5121 21.8985 80.3761 20.4585C81.0241 19.3785 81.6721 18.3345 82.1761 18.3345C82.5721 18.3345 83.8681 18.7305 83.8681 19.4865C83.8681 20.6025 80.9521 23.3745 79.5121 25.9665C78.6121 27.5865 77.3161 29.6025 77.3161 31.7265C77.3161 32.6625 77.8921 33.4545 79.0441 33.4545C80.5921 33.4545 83.3641 32.1225 85.3801 30.4665C87.5401 28.8105 88.8361 27.2265 90.2761 25.4265C90.4201 25.2105 90.4921 25.2105 90.5641 25.2105C90.6361 25.2105 90.7081 25.2825 90.7081 25.3545C90.7081 25.4265 90.7081 25.4265 90.6361 25.5705C88.8361 28.0185 86.8921 29.8905 85.6681 30.8265ZM117.827 30.8265C114.659 33.1305 111.419 35.1465 107.315 35.1465C104.579 35.1465 101.735 34.0665 101.735 30.4305C101.735 24.2025 110.123 18.1185 114.011 18.1185C115.163 18.1185 115.883 18.9825 115.883 20.2065C115.883 21.0705 115.811 21.2865 114.515 22.0065C114.083 22.2225 113.723 22.3665 113.507 22.3665C113.435 22.3665 113.363 22.3665 113.363 22.2945C113.363 22.2225 113.507 22.0065 113.507 21.5025C113.507 20.1345 112.499 19.5585 111.851 19.5585C108.827 19.5585 104.687 26.1105 104.687 30.3225C104.687 32.8065 105.947 34.2105 108.611 34.2105C111.491 34.2105 114.803 32.4825 117.539 30.4665C119.699 28.8105 120.995 27.2265 122.435 25.4265C122.579 25.2105 122.651 25.2105 122.723 25.2105C122.795 25.2105 122.867 25.2825 122.867 25.3545C122.867 25.4265 122.867 25.4265 122.795 25.5705C120.995 28.0185 119.051 29.8905 117.827 30.8265ZM139.847 30.8265C137.543 32.6265 134.447 34.7865 131.495 34.7865C129.731 34.7865 128.687 33.9225 128.687 31.8345C126.239 33.3465 123.755 34.5345 121.955 34.5345C119.723 34.5345 118.787 32.8065 118.787 30.5745C118.787 25.1745 125.447 18.1185 131.027 18.1185C132.935 18.1185 135.023 19.2345 135.671 21.5385C136.031 21.5385 136.607 21.6825 136.607 22.3305C136.607 24.5625 134.807 26.1465 133.439 27.5865C133.007 28.0185 132.359 28.5945 131.783 29.1705C131.423 30.1065 131.351 30.9705 131.351 31.5465C131.351 32.2665 131.567 33.4185 133.367 33.4185C135.383 33.4185 137.543 31.9785 139.559 30.4665C141.719 28.8105 143.015 27.2265 144.455 25.4265C144.599 25.2105 144.671 25.2105 144.743 25.2105C144.815 25.2105 144.887 25.2825 144.887 25.3545C144.887 25.4265 144.887 25.4265 144.815 25.5705C143.015 28.0185 141.071 29.8905 139.847 30.8265ZM130.919 18.9825C126.167 18.9825 121.775 25.7505 121.775 30.5025C121.775 31.7265 122.099 33.3105 123.755 33.3105C125.699 33.3105 127.715 31.9425 128.759 31.1145C129.335 29.0985 130.487 26.6505 131.495 25.2825C132.359 24.0585 133.943 22.1145 135.095 21.6825C134.447 20.0265 132.791 18.9825 130.919 18.9825ZM132.035 28.3785C134.843 25.5705 135.671 23.9865 135.671 23.4105C135.671 23.1945 135.527 23.1225 135.383 23.1225C134.735 23.1225 133.007 26.3625 132.035 28.3785ZM147.778 29.9985C144.178 33.8145 141.586 34.4985 140.65 34.4985C139.498 34.4985 138.274 34.1385 138.274 32.6985C138.274 31.1145 139.21 30.8625 140.074 30.1425C141.19 29.2065 141.694 28.5945 141.91 28.5945C141.946 28.5945 142.018 28.6305 142.018 28.7025C142.018 28.7745 141.91 28.9545 141.73 29.1345C140.866 29.8905 140.434 30.6825 140.434 31.5465C140.434 32.4825 141.046 33.1305 141.982 33.1305C143.206 33.1305 145.618 31.5105 148.102 28.8825C150.622 26.2185 152.458 23.9505 153.646 22.2225C154.51 20.9625 154.798 19.8105 155.59 19.0905C155.842 18.8385 156.49 18.5865 157.246 18.2985C157.786 18.0825 158.254 17.7585 158.434 17.7585C158.578 17.7585 158.65 17.7945 158.65 17.9745C158.65 18.3345 157.21 19.8825 156.238 21.8625C154.582 25.1745 152.926 28.5225 152.926 30.8625C152.926 32.1225 153.214 33.3105 155.014 33.3105C157.174 33.3105 159.658 31.9785 161.602 30.4665C163.762 28.8105 165.058 27.2265 166.498 25.4265C166.642 25.2105 166.714 25.2105 166.786 25.2105C166.858 25.2105 166.93 25.2825 166.93 25.3545C166.93 25.4265 166.93 25.4265 166.858 25.5705C165.058 28.0185 163.114 29.8905 161.89 30.8265C159.946 32.3385 156.562 34.5345 153.034 34.5345C151.018 34.5345 149.866 33.2745 149.866 31.5825C149.866 29.6025 150.91 27.5865 152.926 23.9865C151.882 25.2465 149.686 27.9825 147.778 29.9985ZM171.441 19.5585C171.441 20.6025 170.937 21.8625 170.397 22.8705C171.477 21.9345 174.753 18.4785 176.805 18.4785C177.597 18.4785 178.137 19.1625 178.137 20.1705C178.137 21.5385 177.381 23.2665 177.381 23.2665C177.381 23.2665 182.277 18.2265 185.733 18.2265C186.885 18.2265 187.857 18.9465 187.857 20.0265C187.857 23.0505 179.829 29.3865 179.829 38.8185C179.829 42.0585 181.557 45.7665 185.589 45.7665C189.585 45.7665 194.661 41.4825 196.821 38.3145C196.965 38.0985 197.037 38.0985 197.109 38.0985C197.181 38.0985 197.253 38.1705 197.253 38.2425C197.253 38.3145 197.253 38.3145 197.181 38.4585C194.085 42.6345 188.829 46.8105 184.293 46.8105C180.333 46.8105 177.381 43.7145 177.381 39.2505C177.381 30.6825 184.293 23.8785 184.293 21.0345C184.293 20.5305 184.005 20.0985 183.429 20.0985C181.413 20.0985 178.209 23.0505 176.589 24.7425C175.761 25.6065 174.861 26.6865 173.565 26.6865C173.493 26.6865 173.457 26.6505 173.457 26.5785C173.457 26.1825 173.961 26.1825 174.105 25.7505C174.105 25.7505 175.581 22.5105 175.581 21.3585C175.581 20.9265 175.365 20.3505 174.753 20.3505C173.385 20.3505 171.333 22.4025 169.893 24.3465C168.093 26.7225 166.293 30.3945 164.493 34.0305C164.205 34.6065 163.197 34.2105 162.369 34.4985C161.685 34.7505 161.361 34.9305 161.181 34.9305C161.073 34.9305 161.001 34.8225 161.001 34.7505C161.001 34.6785 161.145 34.5705 161.325 34.3185C162.333 32.8425 165.069 28.0545 166.509 25.4265C167.985 22.7985 168.669 20.7825 168.669 19.9545C168.669 19.0185 168.381 18.8025 167.949 18.8025C167.229 18.8025 166.149 19.4505 165.285 20.0265C165.069 20.1705 164.997 20.2425 164.925 20.2425C164.853 20.2425 164.781 20.1705 164.781 20.0985C164.781 20.0265 164.781 19.9545 164.997 19.8105C165.285 19.5945 167.733 17.7945 169.317 17.7945C170.757 17.7945 171.441 18.5505 171.441 19.5585ZM210.933 30.8265C208.629 32.6265 205.533 34.7865 202.581 34.7865C200.817 34.7865 199.773 33.9225 199.773 31.8345C197.325 33.3465 194.841 34.5345 193.041 34.5345C190.809 34.5345 189.873 32.8065 189.873 30.5745C189.873 25.1745 196.533 18.1185 202.113 18.1185C204.021 18.1185 206.109 19.2345 206.757 21.5385C207.117 21.5385 207.693 21.6825 207.693 22.3305C207.693 24.5625 205.893 26.1465 204.525 27.5865C204.093 28.0185 203.445 28.5945 202.869 29.1705C202.509 30.1065 202.437 30.9705 202.437 31.5465C202.437 32.2665 202.653 33.4185 204.453 33.4185C206.469 33.4185 208.629 31.9785 210.645 30.4665C212.805 28.8105 214.101 27.2265 215.541 25.4265C215.685 25.2105 215.757 25.2105 215.829 25.2105C215.901 25.2105 215.973 25.2825 215.973 25.3545C215.973 25.4265 215.973 25.4265 215.901 25.5705C214.101 28.0185 212.157 29.8905 210.933 30.8265ZM202.005 18.9825C197.253 18.9825 192.861 25.7505 192.861 30.5025C192.861 31.7265 193.185 33.3105 194.841 33.3105C196.785 33.3105 198.801 31.9425 199.845 31.1145C200.421 29.0985 201.573 26.6505 202.581 25.2825C203.445 24.0585 205.029 22.1145 206.181 21.6825C205.533 20.0265 203.877 18.9825 202.005 18.9825ZM203.121 28.3785C205.929 25.5705 206.757 23.9865 206.757 23.4105C206.757 23.1945 206.613 23.1225 206.469 23.1225C205.821 23.1225 204.093 26.3625 203.121 28.3785ZM220.484 19.5585C220.484 21.1065 217.568 26.1105 217.568 26.1105C218.468 26.1825 219.116 26.2185 219.8 26.2185C221.708 26.2185 223.796 25.8225 225.884 24.8865C226.856 23.3025 228.872 20.2785 229.412 19.5585C230.024 18.7305 230.96 18.5505 231.788 18.4065C232.4 18.2985 233.048 18.0825 233.408 18.0825C233.552 18.0825 233.588 18.1545 233.588 18.2265C233.588 18.4425 232.616 18.6945 230.564 21.4305C227.792 25.1385 225.344 29.6025 225.344 31.9065C225.344 33.0945 225.848 33.8865 227.288 33.8865C228.872 33.8865 231.428 32.3385 233.876 30.4665C236.036 28.8105 237.332 27.2265 238.772 25.4265C238.916 25.2105 238.988 25.2105 239.06 25.2105C239.132 25.2105 239.204 25.2825 239.204 25.3545C239.204 25.4265 239.204 25.4265 239.132 25.5705C237.332 28.0185 235.388 29.8905 234.164 30.8265C231.428 33.0585 228.584 35.1825 225.416 35.1825C223.4 35.1825 222.5 34.1745 222.5 32.5545C222.5 30.8265 223.616 28.6665 225.308 26.0025C223.112 26.8665 221.132 27.1905 216.92 27.4065C216.272 28.7745 213.716 33.1305 212.996 34.3185C212.744 34.7145 211.88 34.7505 210.944 34.8945C210.332 35.0025 209.936 35.3985 209.72 35.3985C209.576 35.3985 209.504 35.3625 209.504 35.2185C209.504 35.0745 210.08 34.5345 211.088 32.8785C211.772 31.7985 213.068 29.6385 214.112 27.6945C213.968 26.6865 213.68 26.2545 213.68 25.9305C213.68 25.7505 213.896 25.5345 213.932 25.5345C214.184 25.5345 214.688 25.7145 215.192 25.7505C216.812 22.8705 217.712 21.0345 217.712 19.9545C217.712 19.0185 217.424 18.8025 216.992 18.8025C216.272 18.8025 215.192 19.4505 214.328 20.0265C214.112 20.1705 214.04 20.2425 213.968 20.2425C213.896 20.2425 213.824 20.1705 213.824 20.0985C213.824 20.0265 213.824 19.9545 214.04 19.8105C214.328 19.5945 216.776 17.7945 218.36 17.7945C219.8 17.7945 220.484 18.5505 220.484 19.5585ZM256.179 30.8265C253.875 32.6265 250.779 34.7865 247.827 34.7865C246.063 34.7865 245.019 33.9225 245.019 31.8345C242.571 33.3465 240.087 34.5345 238.287 34.5345C236.055 34.5345 235.119 32.8065 235.119 30.5745C235.119 25.1745 241.779 18.1185 247.359 18.1185C249.267 18.1185 251.355 19.2345 252.003 21.5385C252.363 21.5385 252.939 21.6825 252.939 22.3305C252.939 24.5625 251.139 26.1465 249.771 27.5865C249.339 28.0185 248.691 28.5945 248.115 29.1705C247.755 30.1065 247.683 30.9705 247.683 31.5465C247.683 32.2665 247.899 33.4185 249.699 33.4185C251.715 33.4185 253.875 31.9785 255.891 30.4665C258.051 28.8105 259.347 27.2265 260.787 25.4265C260.931 25.2105 261.003 25.2105 261.075 25.2105C261.147 25.2105 261.219 25.2825 261.219 25.3545C261.219 25.4265 261.219 25.4265 261.147 25.5705C259.347 28.0185 257.403 29.8905 256.179 30.8265ZM247.251 18.9825C242.499 18.9825 238.107 25.7505 238.107 30.5025C238.107 31.7265 238.431 33.3105 240.087 33.3105C242.031 33.3105 244.047 31.9425 245.091 31.1145C245.667 29.0985 246.819 26.6505 247.827 25.2825C248.691 24.0585 250.275 22.1145 251.427 21.6825C250.779 20.0265 249.123 18.9825 247.251 18.9825ZM248.367 28.3785C251.175 25.5705 252.003 23.9865 252.003 23.4105C252.003 23.1945 251.859 23.1225 251.715 23.1225C251.067 23.1225 249.339 26.3625 248.367 28.3785ZM265.73 19.5585C265.73 20.6025 265.226 21.8625 264.686 22.8705C265.766 21.9345 269.042 18.4785 271.094 18.4785C271.886 18.4785 272.426 19.1625 272.426 20.1705C272.426 21.5385 271.67 23.2665 271.67 23.2665C271.67 23.2665 276.566 18.2265 280.022 18.2265C281.174 18.2265 282.146 18.9465 282.146 20.0265C282.146 23.0505 274.118 29.3865 274.118 38.8185C274.118 42.0585 275.846 45.7665 279.878 45.7665C283.874 45.7665 288.95 41.4825 291.11 38.3145C291.254 38.0985 291.326 38.0985 291.398 38.0985C291.47 38.0985 291.542 38.1705 291.542 38.2425C291.542 38.3145 291.542 38.3145 291.47 38.4585C288.374 42.6345 283.118 46.8105 278.582 46.8105C274.622 46.8105 271.67 43.7145 271.67 39.2505C271.67 30.6825 278.582 23.8785 278.582 21.0345C278.582 20.5305 278.294 20.0985 277.718 20.0985C275.702 20.0985 272.498 23.0505 270.878 24.7425C270.05 25.6065 269.15 26.6865 267.854 26.6865C267.782 26.6865 267.746 26.6505 267.746 26.5785C267.746 26.1825 268.25 26.1825 268.394 25.7505C268.394 25.7505 269.87 22.5105 269.87 21.3585C269.87 20.9265 269.654 20.3505 269.042 20.3505C267.674 20.3505 265.622 22.4025 264.182 24.3465C262.382 26.7225 260.582 30.3945 258.782 34.0305C258.494 34.6065 257.486 34.2105 256.658 34.4985C255.974 34.7505 255.65 34.9305 255.47 34.9305C255.362 34.9305 255.29 34.8225 255.29 34.7505C255.29 34.6785 255.434 34.5705 255.614 34.3185C256.622 32.8425 259.358 28.0545 260.798 25.4265C262.274 22.7985 262.958 20.7825 262.958 19.9545C262.958 19.0185 262.67 18.8025 262.238 18.8025C261.518 18.8025 260.438 19.4505 259.574 20.0265C259.358 20.1705 259.286 20.2425 259.214 20.2425C259.142 20.2425 259.07 20.1705 259.07 20.0985C259.07 20.0265 259.07 19.9545 259.286 19.8105C259.574 19.5945 262.022 17.7945 263.606 17.7945C265.046 17.7945 265.73 18.5505 265.73 19.5585ZM306.374 18.5145C306.77 18.5145 307.922 18.7305 307.922 19.4865C307.922 20.8545 305.114 23.1585 303.926 25.7505C303.17 27.4425 301.982 30.3225 301.982 31.6905C301.982 32.8785 302.918 33.3825 303.638 33.3825C305.294 33.3825 308.246 32.1225 310.262 30.4665C312.422 28.8105 313.718 27.2265 315.158 25.4265C315.302 25.2105 315.374 25.2105 315.446 25.2105C315.518 25.2105 315.59 25.2825 315.59 25.3545C315.59 25.4265 315.59 25.4265 315.518 25.5705C313.718 28.0185 311.774 29.8905 310.55 30.8265C307.814 33.1305 303.962 34.8225 301.802 34.8225C300.398 34.8225 299.39 34.0665 299.39 32.7705C299.39 30.7545 301.046 27.6945 302.018 25.6785C301.442 25.9665 300.506 26.1105 299.966 26.1105C299.282 26.1105 298.418 25.8945 298.418 25.8945C297.626 30.4665 292.766 34.6785 288.41 34.6785C285.71 34.6425 284.63 33.3105 284.63 30.6465C284.63 27.1905 288.518 21.6465 289.814 19.8105C290.03 19.4865 290.282 19.3785 290.534 19.3425C292.55 18.9825 293.234 18.5145 294.026 18.5145C294.242 18.5145 294.278 18.6585 294.278 18.8025C294.278 18.9465 293.162 19.1625 292.118 20.5665C290.786 22.3665 287.438 27.1185 287.438 30.5745C287.438 32.5545 288.194 33.7065 289.958 33.7065C293.414 33.7065 296.15 29.0265 296.15 26.6505C296.15 26.0385 296.15 25.4625 295.646 24.8865C295.214 24.5985 294.026 23.8065 294.026 23.5905C294.026 23.1585 294.566 23.0865 295.034 22.7985C295.862 22.2945 296.186 21.9705 296.402 21.9705C296.582 21.9705 296.654 22.5465 296.834 22.7985C297.302 23.4825 298.418 25.3545 300.542 25.3545C301.154 25.3545 301.946 25.2105 302.342 24.9945C303.206 23.1945 305.222 18.5145 306.374 18.5145ZM320.082 19.5585C320.082 21.1065 317.166 26.1105 317.166 26.1105C318.066 26.1825 318.714 26.2185 319.398 26.2185C321.306 26.2185 323.394 25.8225 325.482 24.8865C326.454 23.3025 328.47 20.2785 329.01 19.5585C329.622 18.7305 330.558 18.5505 331.386 18.4065C331.998 18.2985 332.646 18.0825 333.006 18.0825C333.15 18.0825 333.186 18.1545 333.186 18.2265C333.186 18.4425 332.214 18.6945 330.162 21.4305C327.39 25.1385 324.942 29.6025 324.942 31.9065C324.942 33.0945 325.446 33.8865 326.886 33.8865C328.47 33.8865 331.026 32.3385 333.474 30.4665C335.634 28.8105 336.93 27.2265 338.37 25.4265C338.514 25.2105 338.586 25.2105 338.658 25.2105C338.73 25.2105 338.802 25.2825 338.802 25.3545C338.802 25.4265 338.802 25.4265 338.73 25.5705C336.93 28.0185 334.986 29.8905 333.762 30.8265C331.026 33.0585 328.182 35.1825 325.014 35.1825C322.998 35.1825 322.098 34.1745 322.098 32.5545C322.098 30.8265 323.214 28.6665 324.906 26.0025C322.71 26.8665 320.73 27.1905 316.518 27.4065C315.87 28.7745 313.314 33.1305 312.594 34.3185C312.342 34.7145 311.478 34.7505 310.542 34.8945C309.93 35.0025 309.534 35.3985 309.318 35.3985C309.174 35.3985 309.102 35.3625 309.102 35.2185C309.102 35.0745 309.678 34.5345 310.686 32.8785C311.37 31.7985 312.666 29.6385 313.71 27.6945C313.566 26.6865 313.278 26.2545 313.278 25.9305C313.278 25.7505 313.494 25.5345 313.53 25.5345C313.782 25.5345 314.286 25.7145 314.79 25.7505C316.41 22.8705 317.31 21.0345 317.31 19.9545C317.31 19.0185 317.022 18.8025 316.59 18.8025C315.87 18.8025 314.79 19.4505 313.926 20.0265C313.71 20.1705 313.638 20.2425 313.566 20.2425C313.494 20.2425 313.422 20.1705 313.422 20.0985C313.422 20.0265 313.422 19.9545 313.638 19.8105C313.926 19.5945 316.374 17.7945 317.958 17.7945C319.398 17.7945 320.082 18.5505 320.082 19.5585ZM355.777 30.8265C353.473 32.6265 350.377 34.7865 347.425 34.7865C345.661 34.7865 344.617 33.9225 344.617 31.8345C342.169 33.3465 339.685 34.5345 337.885 34.5345C335.653 34.5345 334.717 32.8065 334.717 30.5745C334.717 25.1745 341.377 18.1185 346.957 18.1185C348.865 18.1185 350.953 19.2345 351.601 21.5385C351.961 21.5385 352.537 21.6825 352.537 22.3305C352.537 24.5625 350.737 26.1465 349.369 27.5865C348.937 28.0185 348.289 28.5945 347.713 29.1705C347.353 30.1065 347.281 30.9705 347.281 31.5465C347.281 32.2665 347.497 33.4185 349.297 33.4185C351.313 33.4185 353.473 31.9785 355.489 30.4665C357.649 28.8105 358.945 27.2265 360.385 25.4265C360.529 25.2105 360.601 25.2105 360.673 25.2105C360.745 25.2105 360.817 25.2825 360.817 25.3545C360.817 25.4265 360.817 25.4265 360.745 25.5705C358.945 28.0185 357.001 29.8905 355.777 30.8265ZM346.849 18.9825C342.097 18.9825 337.705 25.7505 337.705 30.5025C337.705 31.7265 338.029 33.3105 339.685 33.3105C341.629 33.3105 343.645 31.9425 344.689 31.1145C345.265 29.0985 346.417 26.6505 347.425 25.2825C348.289 24.0585 349.873 22.1145 351.025 21.6825C350.377 20.0265 348.721 18.9825 346.849 18.9825ZM347.965 28.3785C350.773 25.5705 351.601 23.9865 351.601 23.4105C351.601 23.1945 351.457 23.1225 351.313 23.1225C350.665 23.1225 348.937 26.3625 347.965 28.3785ZM98.4037 116.17C94.5877 116.17 90.5557 113.11 90.5557 108.322C90.5557 97.5945 105.964 92.1945 114.424 89.5305C115.036 89.3505 116.008 89.0265 116.26 89.0265C116.476 89.0265 116.584 89.1345 116.584 89.2785C116.584 89.6745 115.864 89.8185 115.216 90.0345C107.476 92.5185 93.1837 96.2985 93.1837 107.278C93.1837 111.562 96.3877 114.73 100.528 114.73C105.46 114.73 109.312 109.906 112.804 103.858C117.124 96.3345 120.364 90.4665 127.204 79.0185H127.168C124.144 82.2225 119.5 85.3545 115.792 85.3545C113.704 85.3545 112.732 83.7705 112.732 81.6105C112.732 76.3905 119.536 68.6505 124.648 68.6505C127.456 68.6505 129.328 70.8825 130.48 73.4025L130.696 72.9705C131.2 71.9625 131.38 72.2505 131.884 72.1065C131.956 72.1065 132.244 71.9625 132.388 71.9625C132.46 71.9625 132.604 72.1065 132.604 72.1785C132.604 72.3225 132.532 72.4665 132.388 72.6105C132.1 72.9705 131.668 73.9065 131.164 74.7705C131.236 74.9145 131.38 75.3465 131.38 75.4905C131.38 75.6345 131.308 75.7785 131.164 75.7785C131.092 75.7785 130.948 75.4185 130.876 75.2745C130.876 75.3465 115.648 103.606 115.648 103.606C112.804 108.862 105.604 116.17 98.4037 116.17ZM130.192 73.8345C129.112 71.8905 127.312 69.9465 124.72 69.9465C121.156 69.9465 115.72 75.9945 115.72 81.6825C115.72 82.7625 116.584 84.0585 117.736 84.0585C121.84 84.0585 127.672 77.7585 127.744 77.6865C128.608 76.8225 129.472 75.2025 130.192 73.8345ZM138.043 76.2825C144.343 74.7705 145.171 72.5745 145.171 71.0985C145.171 70.6305 144.883 70.0905 144.235 70.0905C142.075 70.0905 139.699 73.0425 138.043 76.2825ZM138.511 85.9305C135.991 85.9305 133.651 84.5625 133.651 81.6465C133.651 75.0225 142.183 69.1185 145.891 69.1185C146.827 69.1185 147.763 69.7305 147.763 70.9185C147.763 71.8905 145.531 75.7065 137.719 77.0385C137.215 78.0465 136.567 79.3785 136.567 81.6105C136.567 83.9145 138.115 84.9945 140.059 84.9945C142.471 84.9945 146.251 83.3385 148.699 81.4665C150.859 79.8105 152.155 78.2265 153.595 76.4265C153.739 76.2105 153.811 76.2105 153.883 76.2105C153.955 76.2105 154.027 76.2825 154.027 76.3545C154.027 76.4265 154.027 76.4265 153.955 76.5705C152.155 79.0185 150.211 80.8905 148.987 81.8265C146.251 84.0585 142.471 85.9305 138.511 85.9305ZM164.011 64.4745C161.707 64.4745 161.131 63.0345 161.131 61.8105C161.131 61.3065 161.275 60.8025 161.491 60.2265C161.635 59.8665 162.715 59.2905 163.147 59.2905C163.219 59.2905 163.219 59.3625 163.219 59.3625C163.219 59.4345 162.859 60.1545 162.859 60.9465C162.859 62.6025 164.155 63.4665 165.667 63.4665C166.747 63.4665 168.979 63.0345 170.851 60.2985C170.995 60.1545 171.427 59.7945 171.931 59.5785C172.291 59.4345 172.507 59.3625 172.579 59.3625H172.651C172.651 59.7945 168.259 64.4745 164.011 64.4745ZM172.399 81.8265C169.663 84.1305 165.883 85.7505 163.723 85.7505C162.283 85.7505 161.455 84.8505 161.455 83.7345C161.455 83.0145 161.599 82.2585 161.959 81.3225C160.591 82.6185 157.387 85.9665 153.607 85.9665C152.059 85.9665 150.079 85.1745 150.079 82.7625C150.079 79.3065 155.767 73.3665 155.767 70.9545C155.767 70.3065 155.695 69.8025 155.047 69.8025C154.039 69.8025 153.247 70.4505 152.383 71.0265C152.167 71.1705 152.095 71.2425 152.023 71.2425C151.951 71.2425 151.879 71.1705 151.879 71.0985C151.879 71.0265 151.879 70.9545 152.095 70.8105C153.247 70.0185 154.975 68.7945 156.415 68.7945C157.855 68.7945 158.503 69.4425 158.503 70.8105C158.503 73.0425 152.959 79.4865 152.959 82.2585C152.959 83.6985 153.643 84.4185 155.263 84.4185C157.387 84.4185 160.303 82.2225 162.535 80.0625C163.867 77.2545 166.243 72.8985 167.107 71.4585C167.755 70.3785 168.403 69.3345 168.907 69.3345C169.303 69.3345 170.599 69.7305 170.599 70.4865C170.599 71.6025 167.683 74.3745 166.243 76.9665C165.343 78.5865 164.047 80.6025 164.047 82.7265C164.047 83.6625 164.623 84.4545 165.775 84.4545C167.323 84.4545 170.095 83.1225 172.111 81.4665C174.271 79.8105 175.567 78.2265 177.007 76.4265C177.151 76.2105 177.223 76.2105 177.295 76.2105C177.367 76.2105 177.439 76.2825 177.439 76.3545C177.439 76.4265 177.439 76.4265 177.367 76.5705C175.567 79.0185 173.623 80.8905 172.399 81.8265ZM185.373 58.9305C186.237 58.9305 186.633 59.7585 186.633 60.4785C186.633 61.6665 185.625 62.6745 184.581 62.6745C183.789 62.6745 183.249 61.9545 183.249 61.0545C183.249 60.1905 184.329 58.9305 185.373 58.9305ZM181.953 70.5585C181.953 73.5825 176.481 79.4145 176.481 82.4385C176.481 83.8785 177.669 84.4185 179.181 84.4185C180.693 84.4185 183.213 82.9785 185.229 81.4665C187.389 79.8105 188.685 78.2265 190.125 76.4265C190.269 76.2105 190.341 76.2105 190.413 76.2105C190.485 76.2105 190.557 76.2825 190.557 76.3545C190.557 76.4265 190.557 76.4265 190.485 76.5705C188.685 79.0185 186.741 80.8905 185.517 81.8265C183.645 83.3385 180.117 85.6425 177.093 85.6425C175.077 85.6425 173.601 84.7425 173.601 82.8705C173.601 79.2705 179.181 72.9345 179.181 70.9545C179.181 70.0185 178.893 69.8025 178.461 69.8025C177.741 69.8025 176.661 70.4505 175.797 71.0265C175.581 71.1705 175.509 71.2425 175.437 71.2425C175.365 71.2425 175.293 71.1705 175.293 71.0985C175.293 71.0265 175.293 70.9545 175.509 70.8105C175.797 70.5945 178.245 68.7945 179.829 68.7945C181.269 68.7945 181.953 69.5505 181.953 70.5585ZM195.066 70.5585C195.066 72.1065 192.15 77.1105 192.15 77.1105C193.05 77.1825 193.698 77.2185 194.382 77.2185C196.29 77.2185 198.378 76.8225 200.466 75.8865C201.438 74.3025 203.454 71.2785 203.994 70.5585C204.606 69.7305 205.542 69.5505 206.37 69.4065C206.982 69.2985 207.63 69.0825 207.99 69.0825C208.134 69.0825 208.17 69.1545 208.17 69.2265C208.17 69.4425 207.198 69.6945 205.146 72.4305C202.374 76.1385 199.926 80.6025 199.926 82.9065C199.926 84.0945 200.43 84.8865 201.87 84.8865C203.454 84.8865 206.01 83.3385 208.458 81.4665C210.618 79.8105 211.914 78.2265 213.354 76.4265C213.498 76.2105 213.57 76.2105 213.642 76.2105C213.714 76.2105 213.786 76.2825 213.786 76.3545C213.786 76.4265 213.786 76.4265 213.714 76.5705C211.914 79.0185 209.97 80.8905 208.746 81.8265C206.01 84.0585 203.166 86.1825 199.998 86.1825C197.982 86.1825 197.082 85.1745 197.082 83.5545C197.082 81.8265 198.198 79.6665 199.89 77.0025C197.694 77.8665 195.714 78.1905 191.502 78.4065C190.854 79.7745 188.298 84.1305 187.578 85.3185C187.326 85.7145 186.462 85.7505 185.526 85.8945C184.914 86.0025 184.518 86.3985 184.302 86.3985C184.158 86.3985 184.086 86.3625 184.086 86.2185C184.086 86.0745 184.662 85.5345 185.67 83.8785C186.354 82.7985 187.65 80.6385 188.694 78.6945C188.55 77.6865 188.262 77.2545 188.262 76.9305C188.262 76.7505 188.478 76.5345 188.514 76.5345C188.766 76.5345 189.27 76.7145 189.774 76.7505C191.394 73.8705 192.294 72.0345 192.294 70.9545C192.294 70.0185 192.006 69.8025 191.574 69.8025C190.854 69.8025 189.774 70.4505 188.91 71.0265C188.694 71.1705 188.622 71.2425 188.55 71.2425C188.478 71.2425 188.406 71.1705 188.406 71.0985C188.406 71.0265 188.406 70.9545 188.622 70.8105C188.91 70.5945 191.358 68.7945 192.942 68.7945C194.382 68.7945 195.066 69.5505 195.066 70.5585ZM211.321 84.3465C211.321 82.8345 212.581 81.1425 214.237 81.1425C215.029 81.1425 215.569 81.6825 215.569 82.5465C215.569 84.0585 213.913 85.6425 212.761 85.6425C211.897 85.6425 211.321 85.2105 211.321 84.3465ZM222.852 84.3465C222.852 82.8345 224.112 81.1425 225.768 81.1425C226.56 81.1425 227.1 81.6825 227.1 82.5465C227.1 84.0585 225.444 85.6425 224.292 85.6425C223.428 85.6425 222.852 85.2105 222.852 84.3465ZM234.384 84.3465C234.384 82.8345 235.644 81.1425 237.3 81.1425C238.092 81.1425 238.632 81.6825 238.632 82.5465C238.632 84.0585 236.976 85.6425 235.824 85.6425C234.96 85.6425 234.384 85.2105 234.384 84.3465Z" fill="#2F2402"></path></svg> 