<?xml version="1.0" encoding="UTF-8"?> <svg xmlns="http://www.w3.org/2000/svg" width="308" height="44" viewBox="0 0 308 44" fill="none"><line x1="0.898438" y1="43.4453" x2="119.641" y2="43.4453" stroke="#353434"></line><path d="M217.377 32.6145H217.497V32.8545H214.089V32.6145H214.209C214.337 32.6145 214.449 32.5665 214.545 32.4705C214.641 32.3745 214.721 32.2625 214.785 32.1345C214.865 32.0065 214.921 31.8705 214.953 31.7265C214.985 31.5665 215.001 31.4225 215.001 31.2945V17.9025H212.217C211.961 17.9025 211.737 17.9585 211.545 18.0705C211.353 18.1825 211.193 18.3265 211.065 18.5025C210.937 18.6625 210.841 18.8465 210.777 19.0545C210.713 19.2465 210.681 19.4385 210.681 19.6305H210.441V17.0145H221.217V19.6305H220.977C220.977 19.4385 220.945 19.2465 220.881 19.0545C220.817 18.8465 220.721 18.6625 220.593 18.5025C220.465 18.3265 220.305 18.1825 220.113 18.0705C219.921 17.9585 219.697 17.9025 219.441 17.9025H216.609V31.2945C216.609 31.4225 216.625 31.5665 216.657 31.7265C216.689 31.8705 216.737 32.0065 216.801 32.1345C216.881 32.2625 216.961 32.3745 217.041 32.4705C217.137 32.5665 217.249 32.6145 217.377 32.6145ZM229.473 32.6145H229.593C229.977 32.6145 230.169 32.4385 230.169 32.0865C230.169 31.9585 230.145 31.8225 230.097 31.6785L227.937 25.8465H223.737L221.649 31.5825C221.601 31.7105 221.577 31.8305 221.577 31.9425C221.577 32.1505 221.633 32.3185 221.745 32.4465C221.857 32.5585 221.977 32.6145 222.105 32.6145H222.225V32.8545H219.561V32.6145H219.681C219.889 32.6145 220.089 32.4945 220.281 32.2545C220.489 31.9985 220.657 31.7025 220.785 31.3665L226.281 16.7265L231.657 31.2225C231.769 31.5425 231.921 31.8545 232.113 32.1585C232.321 32.4625 232.585 32.6145 232.905 32.6145H233.025V32.8545H229.473V32.6145ZM223.977 25.0305H227.673L225.825 20.0145L223.977 25.0305ZM247.373 32.6145H247.493C247.605 32.6145 247.709 32.5665 247.805 32.4705C247.901 32.3745 247.981 32.2625 248.045 32.1345C248.125 32.0065 248.181 31.8705 248.213 31.7265C248.245 31.5665 248.261 31.4225 248.261 31.2945V18.6705L242.069 33.1185L236.189 19.4145V31.2945C236.189 31.4225 236.205 31.5665 236.237 31.7265C236.269 31.8705 236.317 32.0065 236.381 32.1345C236.461 32.2625 236.549 32.3745 236.645 32.4705C236.741 32.5665 236.853 32.6145 236.981 32.6145H237.101V32.8545H234.485V32.6145H234.605C234.717 32.6145 234.821 32.5665 234.917 32.4705C235.013 32.3745 235.093 32.2625 235.157 32.1345C235.221 32.0065 235.269 31.8705 235.301 31.7265C235.333 31.5665 235.349 31.4225 235.349 31.2945V18.5025C235.349 18.3905 235.333 18.2625 235.301 18.1185C235.269 17.9745 235.221 17.8385 235.157 17.7105C235.093 17.5825 235.013 17.4785 234.917 17.3985C234.821 17.3025 234.717 17.2545 234.605 17.2545H234.485V17.0145H236.933L242.501 30.1425L248.069 17.0145H250.781V17.2545H250.661C250.533 17.2545 250.421 17.3025 250.325 17.3985C250.229 17.4785 250.141 17.5825 250.061 17.7105C249.997 17.8385 249.949 17.9745 249.917 18.1185C249.885 18.2625 249.869 18.3905 249.869 18.5025V31.2945C249.869 31.4225 249.885 31.5665 249.917 31.7265C249.949 31.8705 249.997 32.0065 250.061 32.1345C250.141 32.2625 250.229 32.3745 250.325 32.4705C250.421 32.5665 250.533 32.6145 250.661 32.6145H250.781V32.8545H247.373V32.6145ZM253.165 32.6145H253.285C253.397 32.6145 253.501 32.5745 253.597 32.4945C253.693 32.3985 253.773 32.2865 253.837 32.1585C253.901 32.0305 253.949 31.8945 253.981 31.7505C254.029 31.6065 254.053 31.4785 254.053 31.3665V18.5745C254.053 18.4625 254.037 18.3265 254.005 18.1665C253.973 18.0065 253.917 17.8625 253.837 17.7345C253.773 17.6065 253.693 17.4945 253.597 17.3985C253.501 17.3025 253.397 17.2545 253.285 17.2545H253.165V17.0145H256.549V17.2545H256.381C256.157 17.2865 255.981 17.4625 255.853 17.7825C255.725 18.0865 255.661 18.3505 255.661 18.5745V23.7345H257.005C257.741 23.7345 258.461 23.8145 259.165 23.9745C259.885 24.1185 260.517 24.3745 261.061 24.7425C261.621 25.0945 262.069 25.5665 262.405 26.1585C262.741 26.7345 262.909 27.4545 262.909 28.3185C262.909 29.0225 262.765 29.6545 262.477 30.2145C262.189 30.7745 261.797 31.2545 261.301 31.6545C260.805 32.0385 260.213 32.3345 259.525 32.5425C258.853 32.7505 258.125 32.8545 257.341 32.8545H253.165V32.6145ZM256.021 32.0145C257.877 32.0145 259.205 31.6945 260.005 31.0545C260.821 30.4145 261.229 29.5345 261.229 28.4145C261.229 27.2785 260.821 26.3505 260.005 25.6305C259.205 24.9105 258.021 24.5505 256.453 24.5505H255.661V32.0145H256.021ZM264.517 17.0145H267.901V17.2545H267.709C267.597 17.2705 267.493 17.3265 267.397 17.4225C267.317 17.5185 267.245 17.6305 267.181 17.7585C267.133 17.8705 267.093 17.9985 267.061 18.1425C267.029 18.2705 267.013 18.3905 267.013 18.5025V31.2945C267.013 31.4225 267.029 31.5585 267.061 31.7025C267.093 31.8465 267.141 31.9905 267.205 32.1345C267.269 32.2625 267.341 32.3745 267.421 32.4705C267.517 32.5505 267.621 32.5985 267.733 32.6145H267.901V32.8545H264.517V32.6145H264.637C264.765 32.6145 264.877 32.5745 264.973 32.4945C265.069 32.3985 265.149 32.2865 265.213 32.1585C265.277 32.0145 265.325 31.8705 265.357 31.7265C265.389 31.5665 265.405 31.4225 265.405 31.2945V18.5025C265.405 18.3905 265.389 18.2625 265.357 18.1185C265.325 17.9745 265.277 17.8385 265.213 17.7105C265.149 17.5825 265.069 17.4785 264.973 17.3985C264.877 17.3025 264.765 17.2545 264.637 17.2545H264.517V17.0145ZM270.011 17.4465H270.227C270.355 17.4465 270.499 17.4305 270.659 17.3985C270.819 17.3505 270.987 17.2945 271.163 17.2305C271.467 17.1345 271.827 17.0385 272.243 16.9425C272.659 16.8305 273.163 16.7745 273.755 16.7745C274.507 16.7745 275.171 16.8785 275.747 17.0865C276.339 17.2945 276.835 17.5745 277.235 17.9265C277.651 18.2785 277.963 18.6865 278.171 19.1505C278.379 19.6145 278.483 20.1105 278.483 20.6385C278.483 21.3905 278.267 22.0625 277.835 22.6545C277.419 23.2305 276.827 23.7185 276.059 24.1185C277.147 24.5985 277.939 25.2145 278.435 25.9665C278.947 26.7025 279.203 27.5025 279.203 28.3665C279.203 28.9905 279.067 29.5905 278.795 30.1665C278.539 30.7425 278.163 31.2465 277.667 31.6785C277.171 32.1105 276.563 32.4545 275.843 32.7105C275.123 32.9665 274.299 33.0945 273.371 33.0945C272.699 33.0945 272.155 33.0385 271.739 32.9265C271.323 32.8145 270.963 32.6945 270.659 32.5665C270.467 32.4865 270.283 32.4225 270.107 32.3745C269.947 32.3265 269.779 32.3025 269.603 32.3025H269.387V29.6385H269.627C269.771 30.0865 269.963 30.4785 270.203 30.8145C270.459 31.1345 270.747 31.3985 271.067 31.6065C271.387 31.8145 271.731 31.9745 272.099 32.0865C272.467 32.1825 272.843 32.2305 273.227 32.2305C273.723 32.2305 274.211 32.1505 274.691 31.9905C275.187 31.8145 275.619 31.5745 275.987 31.2705C276.371 30.9665 276.675 30.5985 276.899 30.1665C277.139 29.7185 277.259 29.2225 277.259 28.6785C277.259 28.1345 277.155 27.6145 276.947 27.1185C276.739 26.6065 276.443 26.1665 276.059 25.7985C275.691 25.4305 275.251 25.1345 274.739 24.9105C274.227 24.6865 273.667 24.5745 273.059 24.5745H272.195V23.7585H273.179C273.659 23.7585 274.115 23.6945 274.547 23.5665C274.979 23.4225 275.355 23.2225 275.675 22.9665C276.011 22.6945 276.275 22.3745 276.467 22.0065C276.659 21.6385 276.755 21.2145 276.755 20.7345C276.755 20.2545 276.659 19.8225 276.467 19.4385C276.275 19.0545 276.019 18.7345 275.699 18.4785C275.395 18.2065 275.043 17.9985 274.643 17.8545C274.259 17.7105 273.859 17.6385 273.443 17.6385C273.107 17.6385 272.779 17.6865 272.459 17.7825C272.139 17.8785 271.835 18.0305 271.547 18.2385C271.259 18.4465 271.003 18.7025 270.779 19.0065C270.555 19.3105 270.379 19.6785 270.251 20.1105H270.011V17.4465Z" fill="#353434"></path><line x1="186.9" y1="43.4453" x2="305.643" y2="43.4453" stroke="#353434"></line><path d="M24.1134 32.0145V35.0145H23.8734C23.8574 34.8065 23.8014 34.5745 23.7054 34.3185C23.6094 34.0625 23.4734 33.8225 23.2974 33.5985C23.1374 33.3905 22.9454 33.2145 22.7214 33.0705C22.4974 32.9265 22.2494 32.8545 21.9774 32.8545H10.9134C10.6414 32.8545 10.3934 32.9265 10.1694 33.0705C9.94544 33.2305 9.74544 33.4145 9.56944 33.6225C9.40944 33.8465 9.27344 34.0865 9.16144 34.3425C9.06544 34.5985 9.00944 34.8225 8.99344 35.0145H8.75344V32.0145H9.80944C10.3214 32.0145 10.6814 31.7185 10.8894 31.1265L16.4094 16.6545L21.9774 31.0545C22.0894 31.2945 22.2414 31.5185 22.4334 31.7265C22.6254 31.9185 22.8494 32.0145 23.1054 32.0145H24.1134ZM11.4174 32.0145H20.6574L16.0254 20.0865L11.4174 32.0145ZM25.2244 17.0145H28.5364V17.2545C28.4244 17.2705 28.3204 17.3185 28.2244 17.3985C28.1284 17.4785 28.0804 17.5985 28.0804 17.7585C28.0804 17.8385 28.1044 17.9265 28.1524 18.0225L31.7524 24.3345L35.2084 18.3585C35.2724 18.2305 35.3124 18.1345 35.3284 18.0705C35.3604 18.0065 35.3764 17.9265 35.3764 17.8305C35.3444 17.5745 35.2484 17.4145 35.0884 17.3505C34.9444 17.2865 34.8564 17.2545 34.8244 17.2545V17.0145H37.3924V17.2545C37.1524 17.2545 36.9044 17.4065 36.6484 17.7105C36.4084 17.9985 36.2004 18.2945 36.0244 18.5985L32.2804 25.0785V31.2945C32.2804 31.4225 32.2964 31.5585 32.3284 31.7025C32.3764 31.8465 32.4324 31.9905 32.4964 32.1345C32.5604 32.2625 32.6404 32.3745 32.7364 32.4705C32.8324 32.5665 32.9444 32.6145 33.0724 32.6145H33.1924V32.8545H29.7604V32.6145H29.8804C30.0084 32.6145 30.1204 32.5745 30.2164 32.4945C30.3124 32.3985 30.3924 32.2865 30.4564 32.1585C30.5364 32.0145 30.5924 31.8705 30.6244 31.7265C30.6564 31.5665 30.6724 31.4225 30.6724 31.2945V25.2945L26.8084 18.6705C26.7284 18.5425 26.6324 18.3985 26.5204 18.2385C26.4084 18.0785 26.2884 17.9265 26.1604 17.7825C26.0324 17.6385 25.8964 17.5185 25.7524 17.4225C25.6084 17.3105 25.4724 17.2545 25.3444 17.2545H25.2244V17.0145ZM47.9115 13.8705C47.9115 14.1425 47.8475 14.4225 47.7195 14.7105C47.5915 14.9985 47.4075 15.2705 47.1675 15.5265C46.9435 15.7825 46.6635 15.9905 46.3275 16.1505C46.0075 16.3105 45.6475 16.3905 45.2475 16.3905C44.8635 16.3905 44.5035 16.3185 44.1675 16.1745C43.8475 16.0145 43.5675 15.8145 43.3275 15.5745C43.0875 15.3345 42.8955 15.0625 42.7515 14.7585C42.6075 14.4545 42.5355 14.1585 42.5355 13.8705H42.6795C42.6955 13.9665 42.7435 14.1025 42.8235 14.2785C42.9195 14.4545 43.0635 14.6305 43.2555 14.8065C43.4475 14.9825 43.7035 15.1345 44.0235 15.2625C44.3435 15.3905 44.7435 15.4545 45.2235 15.4545C45.7195 15.4545 46.1195 15.3905 46.4235 15.2625C46.7435 15.1345 46.9995 14.9825 47.1915 14.8065C47.3835 14.6305 47.5195 14.4545 47.5995 14.2785C47.6795 14.1025 47.7355 13.9665 47.7675 13.8705H47.9115ZM48.3195 32.6145H48.4395C48.5675 32.6145 48.6795 32.5745 48.7755 32.4945C48.8715 32.3985 48.9515 32.2865 49.0155 32.1585C49.0955 32.0145 49.1515 31.8705 49.1835 31.7265C49.2155 31.5665 49.2315 31.4225 49.2315 31.2945V20.3025L41.2635 31.0785V31.2945C41.2635 31.4225 41.2795 31.5665 41.3115 31.7265C41.3595 31.8705 41.4155 32.0065 41.4795 32.1345C41.5435 32.2625 41.6235 32.3745 41.7195 32.4705C41.8155 32.5665 41.9275 32.6145 42.0555 32.6145H42.1755V32.8545H38.7675V32.6145H38.8875C39.0155 32.6145 39.1275 32.5745 39.2235 32.4945C39.3195 32.3985 39.3995 32.2865 39.4635 32.1585C39.5435 32.0145 39.5995 31.8705 39.6315 31.7265C39.6635 31.5665 39.6795 31.4225 39.6795 31.2945V18.5025C39.6795 18.3905 39.6635 18.2625 39.6315 18.1185C39.5995 17.9745 39.5435 17.8385 39.4635 17.7105C39.3995 17.5825 39.3195 17.4785 39.2235 17.3985C39.1275 17.3025 39.0155 17.2545 38.8875 17.2545H38.7675V17.0145H42.1755V17.2545H41.9835C41.8715 17.2705 41.7675 17.3265 41.6715 17.4225C41.5915 17.5185 41.5195 17.6305 41.4555 17.7585C41.3915 17.8705 41.3435 17.9985 41.3115 18.1425C41.2795 18.2705 41.2635 18.3905 41.2635 18.5025V29.5905L49.2315 18.8145V18.5025C49.2315 18.3905 49.2155 18.2625 49.1835 18.1185C49.1515 17.9745 49.0955 17.8385 49.0155 17.7105C48.9515 17.5825 48.8715 17.4785 48.7755 17.3985C48.6795 17.3025 48.5675 17.2545 48.4395 17.2545H48.3195V17.0145H51.7275V17.2545H51.6075C51.4795 17.2545 51.3675 17.3025 51.2715 17.3985C51.1755 17.4785 51.0955 17.5825 51.0315 17.7105C50.9675 17.8385 50.9115 17.9745 50.8635 18.1185C50.8315 18.2625 50.8155 18.3905 50.8155 18.5025V31.2945C50.8155 31.4225 50.8315 31.5585 50.8635 31.7025C50.9115 31.8465 50.9675 31.9905 51.0315 32.1345C51.0955 32.2625 51.1755 32.3745 51.2715 32.4705C51.3675 32.5665 51.4795 32.6145 51.6075 32.6145H51.7275V32.8545H48.3195V32.6145ZM62.4499 17.6385C61.2659 17.6385 60.2339 17.8545 59.3539 18.2865C58.4899 18.7025 57.7699 19.2545 57.1939 19.9425C56.6179 20.6145 56.1859 21.3745 55.8979 22.2225C55.6259 23.0705 55.4899 23.9105 55.4899 24.7425C55.4899 25.6865 55.6739 26.6145 56.0419 27.5265C56.4099 28.4225 56.9139 29.2225 57.5539 29.9265C58.2099 30.6145 58.9699 31.1745 59.8339 31.6065C60.6979 32.0225 61.6339 32.2305 62.6419 32.2305C62.9299 32.2305 63.2659 32.1985 63.6499 32.1345C64.0499 32.0705 64.4419 31.9505 64.8259 31.7745C65.2099 31.5825 65.5619 31.3185 65.8819 30.9825C66.2179 30.6465 66.4739 30.2065 66.6499 29.6625H66.8899V32.3265C66.6499 32.3265 66.3939 32.3585 66.1219 32.4225C65.8659 32.4865 65.5779 32.5585 65.2579 32.6385C64.8419 32.7505 64.3779 32.8545 63.8659 32.9505C63.3699 33.0465 62.8419 33.0945 62.2819 33.0945C60.8899 33.0945 59.6659 32.8545 58.6099 32.3745C57.5539 31.8945 56.6739 31.2705 55.9699 30.5025C55.2659 29.7345 54.7379 28.8705 54.3859 27.9105C54.0339 26.9345 53.8579 25.9505 53.8579 24.9585C53.8579 23.9665 54.0339 22.9825 54.3859 22.0065C54.7379 21.0305 55.2739 20.1585 55.9939 19.3905C56.7139 18.6065 57.6179 17.9745 58.7059 17.4945C59.7939 17.0145 61.0739 16.7745 62.5459 16.7745C63.0739 16.7745 63.5459 16.8225 63.9619 16.9185C64.3939 17.0145 64.7779 17.1105 65.1139 17.2065C65.3539 17.2865 65.5699 17.3505 65.7619 17.3985C65.9699 17.4305 66.1699 17.4465 66.3619 17.4465V20.1105H66.1219C66.0259 19.6145 65.8499 19.2065 65.5939 18.8865C65.3379 18.5505 65.0339 18.2945 64.6819 18.1185C64.3459 17.9425 63.9779 17.8225 63.5779 17.7585C63.1939 17.6785 62.8179 17.6385 62.4499 17.6385ZM68.955 32.6145H69.075C69.203 32.6145 69.315 32.5745 69.411 32.4945C69.507 32.3985 69.587 32.2865 69.651 32.1585C69.731 32.0305 69.787 31.8945 69.819 31.7505C69.867 31.6065 69.891 31.4705 69.891 31.3425V18.5025C69.891 18.3905 69.867 18.2625 69.819 18.1185C69.787 17.9745 69.731 17.8385 69.651 17.7105C69.587 17.5825 69.507 17.4785 69.411 17.3985C69.315 17.3025 69.203 17.2545 69.075 17.2545H68.955V17.0145H78.195V19.2465H77.955C77.923 18.8785 77.779 18.5585 77.523 18.2865C77.267 17.9985 76.867 17.8545 76.323 17.8545H71.499V23.9265H75.483C75.851 23.9265 76.155 23.8145 76.395 23.5905C76.651 23.3665 76.779 23.1025 76.779 22.7985H77.019V25.7985H76.779C76.779 25.5105 76.659 25.2625 76.419 25.0545C76.179 24.8465 75.867 24.7425 75.483 24.7425H71.499V32.0145H76.755C77.059 32.0145 77.323 31.9425 77.547 31.7985C77.771 31.6545 77.955 31.4865 78.099 31.2945C78.259 31.0865 78.371 30.8705 78.435 30.6465C78.515 30.4065 78.555 30.2065 78.555 30.0465H78.795V32.8545H68.955V32.6145ZM90.1794 32.6145H90.2994C90.4114 32.6145 90.5154 32.5745 90.6114 32.4945C90.7074 32.3985 90.7874 32.2865 90.8514 32.1585C90.9314 32.0145 90.9874 31.8705 91.0194 31.7265C91.0514 31.5665 91.0674 31.4225 91.0674 31.2945V24.7665H83.3874V31.2945C83.3874 31.4225 83.4034 31.5665 83.4354 31.7265C83.4674 31.8705 83.5154 32.0065 83.5794 32.1345C83.6434 32.2625 83.7154 32.3745 83.7954 32.4705C83.8914 32.5665 84.0034 32.6145 84.1314 32.6145H84.2514V32.8545H80.8914V32.6145H81.0114C81.1234 32.6145 81.2274 32.5745 81.3234 32.4945C81.4194 32.3985 81.4994 32.2865 81.5634 32.1585C81.6434 32.0145 81.6994 31.8705 81.7314 31.7265C81.7634 31.5665 81.7794 31.4225 81.7794 31.2945V18.5025C81.7794 18.3905 81.7634 18.2625 81.7314 18.1185C81.6994 17.9745 81.6514 17.8385 81.5874 17.7105C81.5234 17.5825 81.4434 17.4785 81.3474 17.3985C81.2514 17.3025 81.1394 17.2545 81.0114 17.2545H80.8914V17.0145H84.2514V17.2545H84.1314C84.0034 17.2545 83.8914 17.3025 83.7954 17.3985C83.6994 17.4785 83.6194 17.5825 83.5554 17.7105C83.5074 17.8385 83.4674 17.9745 83.4354 18.1185C83.4034 18.2625 83.3874 18.3905 83.3874 18.5025V23.9265H91.0674V18.5025C91.0674 18.3905 91.0514 18.2625 91.0194 18.1185C90.9874 17.9745 90.9394 17.8385 90.8754 17.7105C90.8114 17.5825 90.7314 17.4785 90.6354 17.3985C90.5394 17.3025 90.4274 17.2545 90.2994 17.2545H90.1794V17.0145H93.5394V17.2545H93.4194C93.2914 17.2545 93.1794 17.3025 93.0834 17.3985C92.9874 17.4785 92.9074 17.5825 92.8434 17.7105C92.7954 17.8385 92.7554 17.9745 92.7234 18.1185C92.6914 18.2625 92.6754 18.3905 92.6754 18.5025V31.2945C92.6754 31.4225 92.6914 31.5665 92.7234 31.7265C92.7714 31.8705 92.8274 32.0065 92.8914 32.1345C92.9554 32.2625 93.0274 32.3745 93.1074 32.4705C93.2034 32.5665 93.3074 32.6145 93.4194 32.6145H93.5394V32.8545H90.1794V32.6145ZM95.5331 32.6145H95.6531C95.7811 32.6145 95.8931 32.5745 95.9891 32.4945C96.0851 32.3985 96.1651 32.2865 96.2291 32.1585C96.3091 32.0305 96.3651 31.8945 96.3971 31.7505C96.4451 31.6065 96.4691 31.4705 96.4691 31.3425V18.5025C96.4691 18.3905 96.4451 18.2625 96.3971 18.1185C96.3651 17.9745 96.3091 17.8385 96.2291 17.7105C96.1651 17.5825 96.0851 17.4785 95.9891 17.3985C95.8931 17.3025 95.7811 17.2545 95.6531 17.2545H95.5331V17.0145H104.317V19.2945H104.077C104.077 18.9265 103.949 18.6065 103.693 18.3345C103.437 18.0465 103.045 17.9025 102.517 17.9025H98.0771V23.7345H99.1811C99.9171 23.7345 100.645 23.8065 101.365 23.9505C102.101 24.0945 102.757 24.3425 103.333 24.6945C103.925 25.0305 104.397 25.4945 104.749 26.0865C105.117 26.6785 105.301 27.4225 105.301 28.3185C105.301 29.0225 105.165 29.6545 104.893 30.2145C104.637 30.7745 104.269 31.2545 103.789 31.6545C103.309 32.0385 102.733 32.3345 102.061 32.5425C101.405 32.7505 100.685 32.8545 99.9011 32.8545H95.5331V32.6145ZM99.0131 32.0145C99.8131 32.0145 100.501 31.9265 101.077 31.7505C101.669 31.5745 102.157 31.3345 102.541 31.0305C102.925 30.7105 103.205 30.3425 103.381 29.9265C103.573 29.4945 103.669 29.0305 103.669 28.5345C103.669 27.3665 103.253 26.4145 102.421 25.6785C101.589 24.9265 100.405 24.5505 98.8691 24.5505H98.0771V32.0145H99.0131ZM107.606 17.0145H111.062V17.2545H110.87C110.646 17.2865 110.47 17.4465 110.342 17.7345C110.214 18.0225 110.15 18.2785 110.15 18.5025V31.2945C110.15 31.4225 110.166 31.5665 110.198 31.7265C110.23 31.8705 110.278 32.0065 110.342 32.1345C110.406 32.2625 110.478 32.3745 110.558 32.4705C110.654 32.5665 110.758 32.6145 110.87 32.6145H111.062V32.8545H107.606V32.6145H107.726C107.854 32.6145 107.966 32.5745 108.062 32.4945C108.158 32.3985 108.238 32.2865 108.302 32.1585C108.382 32.0145 108.438 31.8705 108.47 31.7265C108.502 31.5665 108.518 31.4225 108.518 31.2945V18.5025C108.518 18.3905 108.502 18.2625 108.47 18.1185C108.438 17.9745 108.382 17.8385 108.302 17.7105C108.238 17.5825 108.158 17.4785 108.062 17.3985C107.966 17.3025 107.854 17.2545 107.726 17.2545H107.606V17.0145Z" fill="#353434"></path><path d="M153.819 36.6045V36.1845C154.211 36.1845 154.505 36.1285 154.701 36.0165C154.925 35.8765 155.079 35.7085 155.163 35.5125C155.275 35.2885 155.331 35.0505 155.331 34.7985C155.359 34.5185 155.373 34.2385 155.373 33.9585V29.8425H143.907L158.103 9.72449V27.7425H160.665V29.8425H158.103V33.9585C158.103 34.5185 158.201 35.0365 158.397 35.5125C158.621 35.9605 159.069 36.1845 159.741 36.1845V36.6045H153.819ZM155.373 15.9825C153.973 17.9705 152.573 19.9305 151.173 21.8625C149.801 23.7945 148.415 25.7545 147.015 27.7425H155.373V15.9825Z" fill="#353434"></path><line x1="0.898438" y1="43.4453" x2="119.641" y2="43.4453" stroke="#353434"></line><line x1="186.9" y1="43.4453" x2="305.643" y2="43.4453" stroke="#353434"></line><line x1="0.898438" y1="6.44531" x2="119.641" y2="6.44531" stroke="#353434"></line><line x1="186.9" y1="6.44531" x2="305.643" y2="6.44531" stroke="#353434"></line></svg> 