<?xml version="1.0" encoding="UTF-8"?> <svg xmlns="http://www.w3.org/2000/svg" width="181" height="67" viewBox="0 0 181 67" fill="none"><path d="M39.3958 38.3919C38.3158 39.2559 34.3558 42.2079 30.9718 42.2079C28.0198 42.2079 27.5158 40.1919 27.5158 36.3759C27.5158 34.6479 27.7318 32.7759 27.9478 31.2639C25.3558 31.5519 24.4918 31.6239 23.6278 31.6239C20.9638 31.6239 18.2998 30.8319 16.7878 30.8319C16.4998 30.8319 16.2838 30.8319 16.0678 30.9039C12.0358 35.5119 8.43578 39.3999 6.34778 41.1279C5.48378 41.7759 4.61978 41.9919 3.25178 42.1359C2.67578 42.2079 2.02778 42.3879 1.30778 42.3879C1.09178 42.3879 0.875781 42.3519 0.875781 42.1359C0.875781 41.8479 1.16378 41.8479 1.45178 41.7759C2.09978 41.5599 3.10778 40.9119 3.75578 40.3359C9.80378 35.0799 17.0038 28.3119 29.5318 13.6959C32.1238 10.6719 32.2678 10.8879 34.2118 10.0959C34.6438 9.95192 35.4358 9.44792 35.7958 9.44792C35.9758 9.44792 36.0838 9.62792 36.0838 9.80792C36.0838 10.4559 35.4358 11.6439 35.2918 12.0399C33.9598 15.4959 32.0518 23.4879 31.1878 29.9679C33.7798 29.2119 36.0118 27.2319 36.3718 27.2319C36.5158 27.2319 36.5878 27.3039 36.5878 27.4479C36.5878 27.7719 33.7438 29.7159 31.1158 30.6159C30.8998 32.4879 30.7558 34.1439 30.7558 35.5119C30.7558 39.6879 31.5838 40.8759 32.9518 40.8759C34.4638 40.8759 37.0918 39.5439 39.1078 38.0319C41.2678 36.3759 42.5638 34.7919 44.0038 32.9919C44.1478 32.7759 44.2198 32.7759 44.2918 32.7759C44.3638 32.7759 44.4358 32.8479 44.4358 32.9199C44.4358 32.9919 44.4358 32.9919 44.3638 33.1359C42.5638 35.5839 40.6198 37.4559 39.3958 38.3919ZM17.2198 29.6079H18.4438C21.2518 29.6079 24.1318 30.4719 26.6518 30.4719C27.0118 30.4719 27.5158 30.4719 28.0918 30.3999C29.0278 22.9839 31.6918 13.1919 31.6918 13.0479C31.6918 12.9039 31.6558 12.8319 31.5838 12.8319C31.4398 12.8319 30.8638 13.4079 30.3958 13.9839L17.2198 29.6079ZM48.7007 44.9799C45.5687 46.0239 42.4007 46.9239 39.6647 47.8959C32.2127 50.5239 24.8687 55.4199 24.8687 61.2159C24.8687 63.6639 25.9127 65.6079 29.1527 65.6079C33.7607 65.6079 39.1247 61.9359 43.5167 54.1239C43.5167 54.1239 46.3967 49.0839 48.7007 44.9799ZM62.0927 38.3919C59.3567 40.6959 55.8647 42.4239 51.3647 44.0439C48.7367 48.3639 45.2087 53.9439 45.2087 53.9439C40.4927 61.5039 33.8687 66.9039 27.6047 66.9039C23.6807 66.9039 22.1687 63.9159 22.1687 61.6839C22.1687 53.6199 33.0047 49.4439 39.4847 47.2119C43.0127 46.0239 46.1447 45.0879 49.1687 44.1159C49.9607 42.7119 52.0847 38.8959 52.0847 38.8959C48.7727 41.5599 45.7847 42.2439 43.6247 42.2439C42.2927 42.2439 40.7807 41.4159 40.7807 39.9039C40.7807 35.6559 46.3967 30.9759 46.3967 27.5919C46.3967 26.9439 46.0367 26.6559 45.3887 26.6559C44.3807 26.6559 43.6607 27.0159 42.7967 27.5919C42.5807 27.7359 42.5087 27.8079 42.4367 27.8079C42.3647 27.8079 42.2927 27.7359 42.2927 27.6639C42.2927 27.5919 42.2927 27.5199 42.5087 27.3759C43.6607 26.5839 45.0287 25.7919 46.4687 25.7919C47.9087 25.7919 48.9887 26.5119 48.9887 28.0959C48.9887 30.4719 43.5527 36.4839 43.5527 39.2199C43.5527 40.4439 44.2007 41.0559 45.3527 41.0559C47.4047 41.0559 50.8607 39.3279 52.6607 37.8159L56.5487 30.3279C57.7727 28.0239 57.9887 26.8719 59.1407 26.7279C59.8607 26.6559 60.7967 26.5839 61.1567 26.5839C61.3007 26.5839 61.3727 26.7279 61.3727 26.7999C61.3727 27.1599 59.2487 30.4719 58.1327 32.4159C58.1327 32.4159 54.2447 39.3279 51.9047 43.2159C55.2527 42.0279 58.4207 40.5519 61.8047 38.0319C63.9647 36.3759 65.2607 34.7919 66.7007 32.9919C66.8447 32.7759 66.9167 32.7759 66.9887 32.7759C67.0607 32.7759 67.1327 32.8479 67.1327 32.9199C67.1327 32.9919 67.1327 32.9919 67.0607 33.1359C65.2607 35.5839 63.3167 37.4559 62.0927 38.3919ZM84.1204 38.3919C81.8164 40.1919 78.7204 42.3519 75.7684 42.3519C74.0044 42.3519 72.9604 41.4879 72.9604 39.3999C70.5124 40.9119 68.0284 42.0999 66.2284 42.0999C63.9964 42.0999 63.0604 40.3719 63.0604 38.1399C63.0604 32.7399 69.7204 25.6839 75.3004 25.6839C77.2084 25.6839 79.2964 26.7999 79.9444 29.1039C80.3044 29.1039 80.8804 29.2479 80.8804 29.8959C80.8804 32.1279 79.0804 33.7119 77.7124 35.1519C77.2804 35.5839 76.6324 36.1599 76.0564 36.7359C75.6964 37.6719 75.6244 38.5359 75.6244 39.1119C75.6244 39.8319 75.8404 40.9839 77.6404 40.9839C79.6564 40.9839 81.8164 39.5439 83.8324 38.0319C85.9924 36.3759 87.2884 34.7919 88.7284 32.9919C88.8724 32.7759 88.9444 32.7759 89.0164 32.7759C89.0884 32.7759 89.1604 32.8479 89.1604 32.9199C89.1604 32.9919 89.1604 32.9919 89.0884 33.1359C87.2884 35.5839 85.3444 37.4559 84.1204 38.3919ZM75.1924 26.5479C70.4404 26.5479 66.0484 33.3159 66.0484 38.0679C66.0484 39.2919 66.3724 40.8759 68.0284 40.8759C69.9724 40.8759 71.9884 39.5079 73.0324 38.6799C73.6084 36.6639 74.7604 34.2159 75.7684 32.8479C76.6324 31.6239 78.2164 29.6799 79.3684 29.2479C78.7204 27.5919 77.0644 26.5479 75.1924 26.5479ZM76.3084 35.9439C79.1164 33.1359 79.9444 31.5519 79.9444 30.9759C79.9444 30.7599 79.8004 30.6879 79.6564 30.6879C79.0084 30.6879 77.2804 33.9279 76.3084 35.9439ZM107.531 38.3919C104.795 40.6959 101.015 42.3159 98.8554 42.3159C97.4154 42.3159 96.5874 41.4159 96.5874 40.2999C96.5874 39.5799 96.7314 38.8239 97.0914 37.8879C95.7234 39.1839 92.5194 42.5319 88.7394 42.5319C87.1914 42.5319 85.2114 41.7399 85.2114 39.3279C85.2114 35.8719 90.8994 29.9319 90.8994 27.5199C90.8994 26.8719 90.8274 26.3679 90.1794 26.3679C89.1714 26.3679 88.3794 27.0159 87.5154 27.5919C87.2994 27.7359 87.2274 27.8079 87.1554 27.8079C87.0834 27.8079 87.0114 27.7359 87.0114 27.6639C87.0114 27.5919 87.0114 27.5199 87.2274 27.3759C88.3794 26.5839 90.1074 25.3599 91.5474 25.3599C92.9874 25.3599 93.6354 26.0079 93.6354 27.3759C93.6354 29.6079 88.0914 36.0519 88.0914 38.8239C88.0914 40.2639 88.7754 40.9839 90.3954 40.9839C92.5194 40.9839 95.4354 38.7879 97.6674 36.6279C98.9994 33.8199 101.375 29.4639 102.239 28.0239C102.887 26.9439 103.535 25.8999 104.039 25.8999C104.435 25.8999 105.731 26.2959 105.731 27.0519C105.731 28.1679 102.815 30.9399 101.375 33.5319C100.475 35.1519 99.1794 37.1679 99.1794 39.2919C99.1794 40.2279 99.7554 41.0199 100.907 41.0199C102.455 41.0199 105.227 39.6879 107.243 38.0319C109.403 36.3759 110.699 34.7919 112.139 32.9919C112.283 32.7759 112.355 32.7759 112.427 32.7759C112.499 32.7759 112.571 32.8479 112.571 32.9199C112.571 32.9919 112.571 32.9919 112.499 33.1359C110.699 35.5839 108.755 37.4559 107.531 38.3919ZM115.249 31.9119C113.305 35.7279 112.369 37.3839 112.369 39.4719C112.369 40.6239 113.161 41.6679 114.457 41.6679C119.965 41.6679 123.925 36.3759 126.625 32.9919C126.769 32.7759 126.841 32.7759 126.913 32.7759C126.985 32.7759 127.057 32.8479 127.057 32.9199C127.057 32.9919 127.057 32.9919 126.985 33.1359C123.493 37.8519 119.137 42.7479 112.873 42.7479C110.785 42.7479 109.453 41.7759 109.453 39.9039C109.453 38.0319 110.353 36.1959 112.153 32.9919C114.673 28.5639 116.797 24.7119 119.353 20.1039C121.585 16.1799 126.229 8.18792 126.229 4.37192C126.229 2.85992 125.221 1.41992 123.961 1.41992C123.097 1.41992 121.693 1.85192 119.821 3.36392C119.461 3.65192 119.245 3.86792 119.137 3.86792C119.029 3.86792 118.957 3.79592 118.957 3.68792C118.957 3.57992 119.209 3.36392 119.641 3.00392C122.017 1.13192 123.925 0.483921 125.473 0.483921C128.281 0.483921 128.929 2.85992 128.929 4.44392C128.929 7.50392 125.401 13.6959 121.189 21.0759C118.885 25.0719 117.625 27.3759 115.249 31.9119ZM131.318 44.9799C128.186 46.0239 125.018 46.9239 122.282 47.8959C114.83 50.5239 107.486 55.4199 107.486 61.2159C107.486 63.6639 108.53 65.6079 111.77 65.6079C116.378 65.6079 121.742 61.9359 126.134 54.1239C126.134 54.1239 129.014 49.0839 131.318 44.9799ZM144.71 38.3919C141.974 40.6959 138.482 42.4239 133.982 44.0439C131.354 48.3639 127.826 53.9439 127.826 53.9439C123.11 61.5039 116.486 66.9039 110.222 66.9039C106.298 66.9039 104.786 63.9159 104.786 61.6839C104.786 53.6199 115.622 49.4439 122.102 47.2119C125.63 46.0239 128.762 45.0879 131.786 44.1159C132.578 42.7119 134.702 38.8959 134.702 38.8959C131.39 41.5599 128.402 42.2439 126.242 42.2439C124.91 42.2439 123.398 41.4159 123.398 39.9039C123.398 35.6559 129.014 30.9759 129.014 27.5919C129.014 26.9439 128.654 26.6559 128.006 26.6559C126.998 26.6559 126.278 27.0159 125.414 27.5919C125.198 27.7359 125.126 27.8079 125.054 27.8079C124.982 27.8079 124.91 27.7359 124.91 27.6639C124.91 27.5919 124.91 27.5199 125.126 27.3759C126.278 26.5839 127.646 25.7919 129.086 25.7919C130.526 25.7919 131.606 26.5119 131.606 28.0959C131.606 30.4719 126.17 36.4839 126.17 39.2199C126.17 40.4439 126.818 41.0559 127.97 41.0559C130.022 41.0559 133.478 39.3279 135.278 37.8159L139.166 30.3279C140.39 28.0239 140.606 26.8719 141.758 26.7279C142.478 26.6559 143.414 26.5839 143.774 26.5839C143.918 26.5839 143.99 26.7279 143.99 26.7999C143.99 27.1599 141.866 30.4719 140.75 32.4159C140.75 32.4159 136.862 39.3279 134.522 43.2159C137.87 42.0279 141.038 40.5519 144.422 38.0319C146.582 36.3759 147.878 34.7919 149.318 32.9919C149.462 32.7759 149.534 32.7759 149.606 32.7759C149.678 32.7759 149.75 32.8479 149.75 32.9199C149.75 32.9919 149.75 32.9919 149.678 33.1359C147.878 35.5839 145.934 37.4559 144.71 38.3919ZM154.246 27.1239C154.246 28.1679 153.742 29.4279 153.202 30.4359C154.282 29.4999 157.558 26.0439 159.61 26.0439C160.402 26.0439 160.942 26.7279 160.942 27.7359C160.942 29.1039 160.186 30.8319 160.186 30.8319C160.186 30.8319 165.082 25.7919 168.538 25.7919C169.69 25.7919 170.662 26.5119 170.662 27.5919C170.662 30.6159 162.634 36.9519 162.634 46.3839C162.634 49.6239 164.362 53.3319 168.394 53.3319C172.39 53.3319 177.466 49.0479 179.626 45.8799C179.77 45.6639 179.842 45.6639 179.914 45.6639C179.986 45.6639 180.058 45.7359 180.058 45.8079C180.058 45.8799 180.058 45.8799 179.986 46.0239C176.89 50.1999 171.634 54.3759 167.098 54.3759C163.138 54.3759 160.186 51.2799 160.186 46.8159C160.186 38.2479 167.098 31.4439 167.098 28.5999C167.098 28.0959 166.81 27.6639 166.234 27.6639C164.218 27.6639 161.014 30.6159 159.394 32.3079C158.566 33.1719 157.666 34.2519 156.37 34.2519C156.298 34.2519 156.262 34.2159 156.262 34.1439C156.262 33.7479 156.766 33.7479 156.91 33.3159C156.91 33.3159 158.386 30.0759 158.386 28.9239C158.386 28.4919 158.17 27.9159 157.558 27.9159C156.19 27.9159 154.138 29.9679 152.698 31.9119C150.898 34.2879 149.098 37.9599 147.298 41.5959C147.01 42.1719 146.002 41.7759 145.174 42.0639C144.49 42.3159 144.166 42.4959 143.986 42.4959C143.878 42.4959 143.806 42.3879 143.806 42.3159C143.806 42.2439 143.95 42.1359 144.13 41.8839C145.138 40.4079 147.874 35.6199 149.314 32.9919C150.79 30.3639 151.474 28.3479 151.474 27.5199C151.474 26.5839 151.186 26.3679 150.754 26.3679C150.034 26.3679 148.954 27.0159 148.09 27.5919C147.874 27.7359 147.802 27.8079 147.73 27.8079C147.658 27.8079 147.586 27.7359 147.586 27.6639C147.586 27.5919 147.586 27.5199 147.802 27.3759C148.09 27.1599 150.538 25.3599 152.122 25.3599C153.562 25.3599 154.246 26.1159 154.246 27.1239Z" fill="url(#paint0_linear_6464_49)"></path><defs><linearGradient id="paint0_linear_6464_49" x1="94.6854" y1="12.9199" x2="86.4707" y2="69.4911" gradientUnits="userSpaceOnUse"><stop stop-color="#E0B171"></stop><stop offset="0.528846" stop-color="#E6D69E"></stop><stop offset="1" stop-color="#A77737"></stop></linearGradient></defs></svg> 