<?xml version="1.0" encoding="UTF-8"?> <svg xmlns="http://www.w3.org/2000/svg" width="496" height="153" viewBox="0 0 496 153" fill="none"><path d="M17.6828 15.3868C19.6988 16.6108 21.0668 19.2748 21.9308 21.6148C23.4428 25.7548 24.1268 30.7228 26.4308 34.1788C28.3028 37.0228 30.6068 38.9668 33.8828 38.9668C36.4748 38.9668 38.4188 38.0308 40.5788 36.3748C40.6508 36.3028 40.7948 36.2308 40.8668 36.2308C40.8668 36.2308 40.9388 36.2308 40.9388 36.3028C40.9388 37.6708 36.6908 39.7588 33.0908 39.7588C29.0228 39.7588 26.2508 38.7148 23.9828 36.0148C21.1028 32.5588 21.2468 29.4988 19.1228 23.7028C18.0068 20.6428 16.3868 17.8348 14.1188 17.0068C12.1028 20.9308 7.24279 29.7868 5.62279 32.4148C5.33479 32.8828 4.93879 33.3508 0.978789 33.3508C0.546789 33.3508 0.474789 33.3508 0.474789 33.1348C0.474789 32.9188 1.33879 32.9188 2.27479 31.7668C4.39879 29.1748 6.59479 25.8268 8.75479 22.0108C10.4108 19.1308 11.9948 16.2148 13.5428 13.3348C14.7308 11.1028 16.4948 7.64677 16.4948 5.05477C16.4948 3.03877 15.7028 1.67077 14.0108 1.67077C13.4708 1.67077 11.5628 2.03077 9.40279 4.19077C8.97079 4.62277 8.75479 4.91077 8.61079 4.91077C8.46679 4.91077 8.39479 4.83877 8.39479 4.69477C8.39479 4.55077 8.68279 4.19077 9.18679 3.68677C11.5628 1.23877 14.5148 0.446772 15.8828 0.446772C18.6908 0.446772 19.7708 2.42677 19.7708 4.26277C19.7708 6.49477 15.7748 13.7308 14.4788 16.1788C18.9068 13.4788 21.5708 11.8228 25.9988 8.90677C30.4268 5.99077 33.1988 4.08277 37.5548 1.27477C37.9508 1.02277 38.6348 0.734773 38.8868 0.734773C39.1028 0.734773 39.3908 0.806772 40.0748 1.13077C40.5428 1.34677 40.9388 1.34677 40.9388 1.52677C40.9388 1.67077 40.3628 1.74277 40.0028 1.88677C39.5348 2.06677 39.1028 2.28277 38.7788 2.46277C34.2068 4.91077 31.1468 6.67477 26.7188 9.44677C23.0108 11.7508 20.9948 13.0828 17.6828 15.3508V15.3868ZM37.7114 23.2708C44.0114 21.7588 44.8394 19.5628 44.8394 18.0868C44.8394 17.6188 44.5514 17.0788 43.9034 17.0788C41.7434 17.0788 39.3674 20.0308 37.7114 23.2708ZM38.1794 32.9188C35.6594 32.9188 33.3194 31.5508 33.3194 28.6348C33.3194 22.0108 41.8514 16.1068 45.5594 16.1068C46.4954 16.1068 47.4314 16.7188 47.4314 17.9068C47.4314 18.8788 45.1994 22.6948 37.3874 24.0268C36.8834 25.0348 36.2354 26.3668 36.2354 28.5988C36.2354 30.9028 37.7834 31.9828 39.7274 31.9828C42.1394 31.9828 45.9194 30.3268 48.3674 28.4548C50.5274 26.7988 51.8234 25.2148 53.2634 23.4148C53.4074 23.1988 53.4794 23.1988 53.5514 23.1988C53.6234 23.1988 53.6954 23.2708 53.6954 23.3428C53.6954 23.4148 53.6954 23.4148 53.6234 23.5588C51.8234 26.0068 49.8794 27.8788 48.6554 28.8148C45.9194 31.0468 42.1394 32.9188 38.1794 32.9188ZM72.0675 28.3108C70.6275 29.6068 66.7035 32.8108 63.0315 32.8108C61.8795 32.8108 60.5835 32.4868 60.5835 30.8668C60.5835 30.0748 60.7995 28.8868 61.0515 28.2388C59.6115 29.5348 55.6875 32.9548 52.2675 32.9548C51.1155 32.9548 49.8195 32.3788 49.8195 30.5788C49.8195 27.1228 55.4355 20.3548 55.4355 17.9428C55.4355 17.2948 55.3635 16.7908 54.7155 16.7908C53.7075 16.7908 52.9155 17.4388 52.0515 18.0148C51.8355 18.1588 51.7635 18.2308 51.6915 18.2308C51.6195 18.2308 51.5475 18.1588 51.5475 18.0868C51.5475 18.0148 51.5475 17.9428 51.7635 17.7988C52.9155 17.0068 54.6435 15.7828 56.0835 15.7828C57.5235 15.7828 58.1715 16.4308 58.1715 17.7988C58.1715 20.0308 52.6995 26.8348 52.6995 29.8588C52.6995 31.1188 53.2035 31.4428 54.2475 31.4428C56.9835 31.4428 60.7635 27.8068 61.4835 26.9428C62.5635 24.5668 65.5515 18.2308 66.2355 17.5108C67.3515 16.3228 68.1795 16.2868 68.6835 16.2868C68.8275 16.2868 69.0075 16.4308 69.0075 16.5748C69.0075 18.2668 63.2115 25.4308 63.2115 29.6068C63.2115 30.8308 63.6795 31.5508 65.0835 31.5508C68.1075 31.5508 71.9235 27.7348 72.6435 26.8708C73.9035 24.0628 75.9555 19.8868 76.7115 18.4468C77.2875 17.3308 77.6475 16.5028 78.1515 16.5028C78.5475 16.5028 79.6995 16.7188 79.6995 17.4748C79.6995 18.8428 77.2515 21.1468 76.0635 23.7388C75.3075 25.4308 74.1915 28.1668 74.1915 29.5708C74.1915 30.8668 74.7315 31.3708 75.6675 31.3708C77.1075 31.3708 79.8435 30.1108 81.8595 28.4548C84.0195 26.7988 85.3155 25.2148 86.7555 23.4148C86.8995 23.1988 86.9715 23.1988 87.0435 23.1988C87.1155 23.1988 87.1875 23.2708 87.1875 23.3428C87.1875 23.4148 87.1875 23.4148 87.1155 23.5588C85.3155 26.0068 83.3715 27.8788 82.1475 28.8148C79.4115 31.1188 76.0275 32.7748 73.8675 32.7748C72.4995 32.7748 71.5275 32.1628 71.5275 30.8668C71.5275 30.1468 71.7075 29.2468 72.0675 28.3108ZM87.1763 23.2708C93.4763 21.7588 94.3043 19.5628 94.3043 18.0868C94.3043 17.6188 94.0163 17.0788 93.3683 17.0788C91.2083 17.0788 88.8323 20.0308 87.1763 23.2708ZM87.6443 32.9188C85.1243 32.9188 82.7843 31.5508 82.7843 28.6348C82.7843 22.0108 91.3163 16.1068 95.0243 16.1068C95.9603 16.1068 96.8963 16.7188 96.8963 17.9068C96.8963 18.8788 94.6643 22.6948 86.8523 24.0268C86.3483 25.0348 85.7003 26.3668 85.7003 28.5988C85.7003 30.9028 87.2483 31.9828 89.1923 31.9828C91.6043 31.9828 95.3843 30.3268 97.8323 28.4548C99.9923 26.7988 101.288 25.2148 102.728 23.4148C102.872 23.1988 102.944 23.1988 103.016 23.1988C103.088 23.1988 103.16 23.2708 103.16 23.3428C103.16 23.4148 103.16 23.4148 103.088 23.5588C101.288 26.0068 99.3443 27.8788 98.1203 28.8148C95.3843 31.0468 91.6043 32.9188 87.6443 32.9188ZM103.784 32.6308C100.652 32.6308 98.1324 31.0468 98.1324 28.8868C98.1324 25.7908 100.94 24.2068 103.928 22.6588C106.556 21.2908 107.24 19.5268 107.24 18.5908C107.24 17.7268 106.664 16.9348 105.512 16.9348C104.504 16.9348 103.496 17.4388 102.632 18.0148C102.416 18.1588 102.344 18.2308 102.272 18.2308C102.2 18.2308 102.128 18.1588 102.128 18.0868C102.128 18.0148 102.128 17.9428 102.344 17.7988C103.208 17.1508 105.08 15.9268 107.096 15.9268C108.32 15.9268 109.904 16.6468 109.904 18.2308C109.904 20.9308 107.096 21.9748 104.18 23.8828C102.74 24.8188 101.048 26.4028 101.048 28.0948C101.048 29.8228 102.56 31.5508 105.512 31.5508C107.888 31.5508 110.336 30.3268 112.784 28.4548C114.944 26.7988 116.24 25.2148 117.68 23.4148C117.824 23.1988 117.896 23.1988 117.968 23.1988C118.04 23.1988 118.112 23.2708 118.112 23.3428C118.112 23.4148 118.112 23.4148 118.04 23.5588C116.24 26.0068 114.296 27.8788 113.072 28.8148C110.336 31.0468 107.744 32.6308 103.784 32.6308ZM126.034 5.91877C126.898 5.91877 127.294 6.74677 127.294 7.46677C127.294 8.65477 126.286 9.66277 125.242 9.66277C124.45 9.66277 123.91 8.94277 123.91 8.04277C123.91 7.17877 124.99 5.91877 126.034 5.91877ZM122.614 17.5468C122.614 20.5708 117.142 26.4028 117.142 29.4268C117.142 30.8668 118.33 31.4068 119.842 31.4068C121.354 31.4068 123.874 29.9668 125.89 28.4548C128.05 26.7988 129.346 25.2148 130.786 23.4148C130.93 23.1988 131.002 23.1988 131.074 23.1988C131.146 23.1988 131.218 23.2708 131.218 23.3428C131.218 23.4148 131.218 23.4148 131.146 23.5588C129.346 26.0068 127.402 27.8788 126.178 28.8148C124.306 30.3268 120.778 32.6308 117.754 32.6308C115.738 32.6308 114.262 31.7308 114.262 29.8588C114.262 26.2588 119.842 19.9228 119.842 17.9428C119.842 17.0068 119.554 16.7908 119.122 16.7908C118.402 16.7908 117.322 17.4388 116.458 18.0148C116.242 18.1588 116.17 18.2308 116.098 18.2308C116.026 18.2308 115.954 18.1588 115.954 18.0868C115.954 18.0148 115.954 17.9428 116.17 17.7988C116.458 17.5828 118.906 15.7828 120.49 15.7828C121.93 15.7828 122.614 16.5388 122.614 17.5468ZM146.344 23.2708C152.644 21.7588 153.472 19.5628 153.472 18.0868C153.472 17.6188 153.184 17.0788 152.536 17.0788C150.376 17.0788 148 20.0308 146.344 23.2708ZM146.812 32.9188C144.292 32.9188 141.952 31.5508 141.952 28.6348C141.952 22.0108 150.484 16.1068 154.192 16.1068C155.128 16.1068 156.064 16.7188 156.064 17.9068C156.064 18.8788 153.832 22.6948 146.02 24.0268C145.516 25.0348 144.868 26.3668 144.868 28.5988C144.868 30.9028 146.416 31.9828 148.36 31.9828C150.772 31.9828 154.552 30.3268 157 28.4548C159.16 26.7988 160.456 25.2148 161.896 23.4148C162.04 23.1988 162.112 23.1988 162.184 23.1988C162.256 23.1988 162.328 23.2708 162.328 23.3428C162.328 23.4148 162.328 23.4148 162.256 23.5588C160.456 26.0068 158.512 27.8788 157.288 28.8148C154.552 31.0468 150.772 32.9188 146.812 32.9188ZM179.008 28.8148C175.336 31.7668 171.556 33.4948 169.396 33.4948C168.208 33.4948 167.092 32.7748 167.092 31.4788C167.092 27.0868 173.464 23.2348 173.464 20.4268C173.464 18.6268 172.204 18.3388 171.556 18.3388C169.324 18.3388 165.112 22.3348 162.124 26.0068C162.124 26.0068 160.144 29.4988 158.92 31.7668C152.584 43.6468 149.848 49.7308 142.828 62.2948C140.74 66.0388 136.312 66.4708 136.024 66.4708C135.844 66.4708 135.7 66.4708 135.7 66.3268C135.7 65.9668 136.276 66.2188 137.572 65.2108C138.796 64.2748 143.62 57.2908 157.66 31.4788C161.188 24.9988 162.412 22.2628 162.412 20.7508C162.412 19.2748 162.088 18.6988 161.692 18.4108C161.512 18.2668 161.404 18.2308 161.404 18.1588C161.404 18.0148 161.764 17.8708 162.052 17.6548C162.916 17.0068 162.844 16.7188 163.492 16.7188C164.14 16.7188 164.716 17.5108 164.716 19.2388C164.716 20.3908 164.14 22.1908 163.564 23.2708C168.784 18.0868 172.204 16.1428 174.58 16.1428C175.3 16.1428 176.632 16.5748 176.632 18.6628C176.632 22.4068 169.612 27.9508 169.612 30.4708C169.612 31.6948 170.26 32.0548 171.196 32.0548C173.356 32.0548 177.136 29.6788 178.72 28.4548C180.88 26.7988 182.176 25.2148 183.616 23.4148C183.796 23.1988 183.832 23.1988 183.904 23.1988C183.976 23.1988 184.048 23.2708 184.048 23.3428C184.048 23.4148 184.084 23.4148 183.976 23.5588C182.176 26.0068 180.232 27.8788 179.008 28.8148ZM188.568 17.9068C188.568 19.6708 185.148 24.8908 184.572 25.9708H184.644L185.256 25.3588C189.144 21.3268 195.408 16.1428 198.216 16.1428C199.008 16.1428 199.8 16.3228 199.8 16.8988C199.8 17.2948 199.296 17.5828 198.648 18.0868C198.18 18.4468 198 18.8068 197.784 18.8068C197.64 18.8068 197.64 18.7348 197.64 18.5908C197.64 18.3748 197.172 18.1948 196.452 18.1948C194.652 18.1948 193.032 19.2748 189.576 22.1908C190.332 23.1268 191.016 23.9548 191.592 26.4028C192.492 30.1468 192.708 31.4788 194.616 31.4788C195.984 31.4788 199.008 29.8228 200.664 28.4548C202.824 26.7988 204.12 25.2148 205.56 23.4148C205.704 23.1988 205.776 23.1988 205.848 23.1988C205.92 23.1988 205.992 23.2708 205.992 23.3428C205.992 23.4148 205.992 23.4148 205.92 23.5588C204.12 26.0068 202.176 27.8788 200.952 28.8148C199.224 30.2548 195.336 32.9188 192.564 32.9188C190.008 32.9188 189.612 30.7948 188.964 27.5548C188.604 25.8628 187.776 24.6028 187.308 24.1708C186.768 24.6748 185.292 26.1508 183.492 28.4188C182.916 29.3908 182.34 30.3628 181.512 32.0548C181.368 32.3428 180.072 32.3428 179.424 32.4148C178.848 32.4868 178.488 32.8108 178.272 32.8108C178.272 32.8108 178.128 32.8108 178.128 32.6668C178.128 32.3068 179.64 30.9748 183.6 23.4148C184.896 20.9668 185.904 19.0948 185.904 18.2308C185.904 17.2948 185.616 16.7908 185.04 16.7908C184.32 16.7908 183.24 17.4388 182.376 18.0148C182.16 18.1588 182.088 18.2308 182.016 18.2308C181.944 18.2308 181.872 18.1588 181.872 18.0868C181.872 18.0148 181.872 17.9428 182.088 17.7988C182.376 17.5828 184.824 15.7828 186.408 15.7828C187.848 15.7828 188.568 16.7188 188.568 17.9068ZM206.004 23.2708C212.304 21.7588 213.132 19.5628 213.132 18.0868C213.132 17.6188 212.844 17.0788 212.196 17.0788C210.036 17.0788 207.66 20.0308 206.004 23.2708ZM206.472 32.9188C203.952 32.9188 201.612 31.5508 201.612 28.6348C201.612 22.0108 210.144 16.1068 213.852 16.1068C214.788 16.1068 215.724 16.7188 215.724 17.9068C215.724 18.8788 213.492 22.6948 205.68 24.0268C205.176 25.0348 204.528 26.3668 204.528 28.5988C204.528 30.9028 206.076 31.9828 208.02 31.9828C210.432 31.9828 214.212 30.3268 216.66 28.4548C218.82 26.7988 220.116 25.2148 221.556 23.4148C221.7 23.1988 221.772 23.1988 221.844 23.1988C221.916 23.1988 221.988 23.2708 221.988 23.3428C221.988 23.4148 221.988 23.4148 221.916 23.5588C220.116 26.0068 218.172 27.8788 216.948 28.8148C214.212 31.0468 210.432 32.9188 206.472 32.9188ZM224.881 27.9868C221.281 31.8028 218.689 32.4868 217.753 32.4868C216.601 32.4868 215.377 32.1268 215.377 30.6868C215.377 29.1028 216.313 28.8508 217.177 28.1308C218.293 27.1948 218.797 26.5828 219.013 26.5828C219.049 26.5828 219.121 26.6188 219.121 26.6908C219.121 26.7628 219.013 26.9428 218.833 27.1228C217.969 27.8788 217.537 28.6708 217.537 29.5348C217.537 30.4708 218.149 31.1188 219.085 31.1188C220.309 31.1188 222.721 29.4988 225.205 26.8708C227.725 24.2068 229.561 21.9388 230.749 20.2108C231.613 18.9508 231.901 17.7988 232.693 17.0788C232.945 16.8268 233.593 16.5748 234.349 16.2868C234.889 16.0708 235.357 15.7468 235.537 15.7468C235.681 15.7468 235.753 15.7828 235.753 15.9628C235.753 16.3228 234.313 17.8708 233.341 19.8508C231.685 23.1628 230.029 26.5108 230.029 28.8508C230.029 30.1108 230.317 31.2988 232.117 31.2988C234.277 31.2988 236.761 29.9668 238.705 28.4548C240.865 26.7988 242.161 25.2148 243.601 23.4148C243.745 23.1988 243.817 23.1988 243.889 23.1988C243.961 23.1988 244.033 23.2708 244.033 23.3428C244.033 23.4148 244.033 23.4148 243.961 23.5588C242.161 26.0068 240.217 27.8788 238.993 28.8148C237.049 30.3268 233.665 32.5228 230.137 32.5228C228.121 32.5228 226.969 31.2628 226.969 29.5708C226.969 27.5908 228.013 25.5748 230.029 21.9748C228.985 23.2348 226.789 25.9708 224.881 27.9868ZM251.963 5.91877C252.827 5.91877 253.223 6.74677 253.223 7.46677C253.223 8.65477 252.215 9.66277 251.171 9.66277C250.379 9.66277 249.839 8.94277 249.839 8.04277C249.839 7.17877 250.919 5.91877 251.963 5.91877ZM248.543 17.5468C248.543 20.5708 243.071 26.4028 243.071 29.4268C243.071 30.8668 244.259 31.4068 245.771 31.4068C247.283 31.4068 249.803 29.9668 251.819 28.4548C253.979 26.7988 255.275 25.2148 256.715 23.4148C256.859 23.1988 256.931 23.1988 257.003 23.1988C257.075 23.1988 257.147 23.2708 257.147 23.3428C257.147 23.4148 257.147 23.4148 257.075 23.5588C255.275 26.0068 253.331 27.8788 252.107 28.8148C250.235 30.3268 246.707 32.6308 243.683 32.6308C241.667 32.6308 240.191 31.7308 240.191 29.8588C240.191 26.2588 245.771 19.9228 245.771 17.9428C245.771 17.0068 245.483 16.7908 245.051 16.7908C244.331 16.7908 243.251 17.4388 242.387 18.0148C242.171 18.1588 242.099 18.2308 242.027 18.2308C241.955 18.2308 241.883 18.1588 241.883 18.0868C241.883 18.0148 241.883 17.9428 242.099 17.7988C242.387 17.5828 244.835 15.7828 246.419 15.7828C247.859 15.7828 248.543 16.5388 248.543 17.5468ZM261.693 17.9068C261.693 19.6708 258.273 24.8908 257.697 25.9708H257.769L258.381 25.3588C262.269 21.3268 268.533 16.1428 271.341 16.1428C272.133 16.1428 272.925 16.3228 272.925 16.8988C272.925 17.2948 272.421 17.5828 271.773 18.0868C271.305 18.4468 271.125 18.8068 270.909 18.8068C270.765 18.8068 270.765 18.7348 270.765 18.5908C270.765 18.3748 270.297 18.1948 269.577 18.1948C267.777 18.1948 266.157 19.2748 262.701 22.1908C263.457 23.1268 264.141 23.9548 264.717 26.4028C265.617 30.1468 265.833 31.4788 267.741 31.4788C269.109 31.4788 272.133 29.8228 273.789 28.4548C275.949 26.7988 277.245 25.2148 278.685 23.4148C278.829 23.1988 278.901 23.1988 278.973 23.1988C279.045 23.1988 279.117 23.2708 279.117 23.3428C279.117 23.4148 279.117 23.4148 279.045 23.5588C277.245 26.0068 275.301 27.8788 274.077 28.8148C272.349 30.2548 268.461 32.9188 265.689 32.9188C263.133 32.9188 262.737 30.7948 262.089 27.5548C261.729 25.8628 260.901 24.6028 260.433 24.1708C259.893 24.6748 258.417 26.1508 256.617 28.4188C256.041 29.3908 255.465 30.3628 254.637 32.0548C254.493 32.3428 253.197 32.3428 252.549 32.4148C251.973 32.4868 251.613 32.8108 251.397 32.8108C251.397 32.8108 251.253 32.8108 251.253 32.6668C251.253 32.3068 252.765 30.9748 256.725 23.4148C258.021 20.9668 259.029 19.0948 259.029 18.2308C259.029 17.2948 258.741 16.7908 258.165 16.7908C257.445 16.7908 256.365 17.4388 255.501 18.0148C255.285 18.1588 255.213 18.2308 255.141 18.2308C255.069 18.2308 254.997 18.1588 254.997 18.0868C254.997 18.0148 254.997 17.9428 255.213 17.7988C255.501 17.5828 257.949 15.7828 259.533 15.7828C260.973 15.7828 261.693 16.7188 261.693 17.9068ZM283.629 17.5468C283.629 18.5908 283.125 19.8508 282.585 20.8588C283.665 19.9228 286.941 16.4668 288.993 16.4668C289.785 16.4668 290.325 17.1508 290.325 18.1588C290.325 19.5268 289.569 21.2548 289.569 21.2548C289.569 21.2548 294.465 16.2148 297.921 16.2148C299.073 16.2148 300.045 16.9348 300.045 18.0148C300.045 21.0388 292.017 27.3748 292.017 36.8068C292.017 40.0468 293.745 43.7548 297.777 43.7548C301.773 43.7548 306.849 39.4708 309.009 36.3028C309.153 36.0868 309.225 36.0868 309.297 36.0868C309.369 36.0868 309.441 36.1588 309.441 36.2308C309.441 36.3028 309.441 36.3028 309.369 36.4468C306.273 40.6228 301.017 44.7988 296.481 44.7988C292.521 44.7988 289.569 41.7028 289.569 37.2388C289.569 28.6708 296.481 21.8668 296.481 19.0228C296.481 18.5188 296.193 18.0868 295.617 18.0868C293.601 18.0868 290.397 21.0388 288.777 22.7308C287.949 23.5948 287.049 24.6748 285.753 24.6748C285.681 24.6748 285.645 24.6388 285.645 24.5668C285.645 24.1708 286.149 24.1708 286.293 23.7388C286.293 23.7388 287.769 20.4988 287.769 19.3468C287.769 18.9148 287.553 18.3388 286.941 18.3388C285.573 18.3388 283.521 20.3908 282.081 22.3348C280.281 24.7108 278.481 28.3828 276.681 32.0188C276.393 32.5948 275.385 32.1988 274.557 32.4868C273.873 32.7388 273.549 32.9188 273.369 32.9188C273.261 32.9188 273.189 32.8108 273.189 32.7388C273.189 32.6668 273.333 32.5588 273.513 32.3068C274.521 30.8308 277.257 26.0428 278.697 23.4148C280.173 20.7868 280.857 18.7708 280.857 17.9428C280.857 17.0068 280.569 16.7908 280.137 16.7908C279.417 16.7908 278.337 17.4388 277.473 18.0148C277.257 18.1588 277.185 18.2308 277.113 18.2308C277.041 18.2308 276.969 18.1588 276.969 18.0868C276.969 18.0148 276.969 17.9428 277.185 17.7988C277.473 17.5828 279.921 15.7828 281.505 15.7828C282.945 15.7828 283.629 16.5388 283.629 17.5468ZM314.049 5.91877C314.913 5.91877 315.309 6.74677 315.309 7.46677C315.309 8.65477 314.301 9.66277 313.257 9.66277C312.465 9.66277 311.925 8.94277 311.925 8.04277C311.925 7.17877 313.005 5.91877 314.049 5.91877ZM310.629 17.5468C310.629 20.5708 305.157 26.4028 305.157 29.4268C305.157 30.8668 306.345 31.4068 307.857 31.4068C309.369 31.4068 311.889 29.9668 313.905 28.4548C316.065 26.7988 317.361 25.2148 318.801 23.4148C318.945 23.1988 319.017 23.1988 319.089 23.1988C319.161 23.1988 319.233 23.2708 319.233 23.3428C319.233 23.4148 319.233 23.4148 319.161 23.5588C317.361 26.0068 315.417 27.8788 314.193 28.8148C312.321 30.3268 308.793 32.6308 305.769 32.6308C303.753 32.6308 302.277 31.7308 302.277 29.8588C302.277 26.2588 307.857 19.9228 307.857 17.9428C307.857 17.0068 307.569 16.7908 307.137 16.7908C306.417 16.7908 305.337 17.4388 304.473 18.0148C304.257 18.1588 304.185 18.2308 304.113 18.2308C304.041 18.2308 303.969 18.1588 303.969 18.0868C303.969 18.0148 303.969 17.9428 304.185 17.7988C304.473 17.5828 306.921 15.7828 308.505 15.7828C309.945 15.7828 310.629 16.5388 310.629 17.5468ZM323.743 17.5468C323.743 19.0948 320.827 24.0988 320.827 24.0988C321.727 24.1708 322.375 24.2068 323.059 24.2068C324.967 24.2068 327.055 23.8108 329.143 22.8748C330.115 21.2908 332.131 18.2668 332.671 17.5468C333.283 16.7188 334.219 16.5388 335.047 16.3948C335.659 16.2868 336.307 16.0708 336.667 16.0708C336.811 16.0708 336.847 16.1428 336.847 16.2148C336.847 16.4308 335.875 16.6828 333.823 19.4188C331.051 23.1268 328.603 27.5908 328.603 29.8948C328.603 31.0828 329.107 31.8748 330.547 31.8748C332.131 31.8748 334.687 30.3268 337.135 28.4548C339.295 26.7988 340.591 25.2148 342.031 23.4148C342.175 23.1988 342.247 23.1988 342.319 23.1988C342.391 23.1988 342.463 23.2708 342.463 23.3428C342.463 23.4148 342.463 23.4148 342.391 23.5588C340.591 26.0068 338.647 27.8788 337.423 28.8148C335.371 30.4708 333.247 32.0908 330.979 32.8108C328.135 35.5108 325.183 39.3988 325.183 42.2428C325.183 43.2508 325.651 44.0068 326.407 44.0068C326.839 44.0068 327.055 43.5748 327.199 43.5748C327.271 43.5748 327.307 43.6108 327.307 43.6828C327.307 43.9708 325.975 44.6908 325.147 44.6908C324.175 44.6908 323.023 44.1148 323.023 42.3868C323.023 39.1828 327.379 35.3668 330.187 33.0268C329.683 33.1348 329.179 33.1708 328.675 33.1708C326.659 33.1708 325.759 32.1628 325.759 30.5428C325.759 28.8148 326.875 26.6548 328.567 23.9908C326.371 24.8548 324.391 25.1788 320.179 25.3948C319.531 26.7628 316.975 31.1188 316.255 32.3068C316.003 32.7028 315.139 32.7388 314.203 32.8828C313.591 32.9908 313.195 33.3868 312.979 33.3868C312.835 33.3868 312.763 33.3508 312.763 33.2068C312.763 33.0628 313.339 32.5228 314.347 30.8668C315.031 29.7868 316.327 27.6268 317.371 25.6828C317.227 24.6748 316.939 24.2428 316.939 23.9188C316.939 23.7388 317.155 23.5228 317.191 23.5228C317.443 23.5228 317.947 23.7028 318.451 23.7388C320.071 20.8588 320.971 19.0228 320.971 17.9428C320.971 17.0068 320.683 16.7908 320.251 16.7908C319.531 16.7908 318.451 17.4388 317.587 18.0148C317.371 18.1588 317.299 18.2308 317.227 18.2308C317.155 18.2308 317.083 18.1588 317.083 18.0868C317.083 18.0148 317.083 17.9428 317.299 17.7988C317.587 17.5828 320.035 15.7828 321.619 15.7828C323.059 15.7828 323.743 16.5388 323.743 17.5468ZM375.923 28.8148C373.187 31.1188 369.407 32.7388 367.247 32.7388C365.807 32.7388 364.979 31.8388 364.979 30.7228C364.979 30.0028 365.123 29.2468 365.483 28.3108C364.115 29.6068 360.911 32.9548 357.131 32.9548C355.583 32.9548 353.603 32.1628 353.603 29.7508C353.603 26.2948 359.291 20.3548 359.291 17.9428C359.291 17.2948 359.219 16.7908 358.571 16.7908C357.563 16.7908 356.771 17.4388 355.907 18.0148C355.691 18.1588 355.619 18.2308 355.547 18.2308C355.475 18.2308 355.403 18.1588 355.403 18.0868C355.403 18.0148 355.403 17.9428 355.619 17.7988C356.771 17.0068 358.499 15.7828 359.939 15.7828C361.379 15.7828 362.027 16.4308 362.027 17.7988C362.027 20.0308 356.483 26.4748 356.483 29.2468C356.483 30.6868 357.167 31.4068 358.787 31.4068C360.911 31.4068 363.827 29.2108 366.059 27.0508C367.391 24.2428 369.767 19.8868 370.631 18.4468C371.279 17.3668 371.927 16.3228 372.431 16.3228C372.827 16.3228 374.123 16.7188 374.123 17.4748C374.123 18.5908 371.207 21.3628 369.767 23.9548C368.867 25.5748 367.571 27.5908 367.571 29.7148C367.571 30.6508 368.147 31.4428 369.299 31.4428C370.847 31.4428 373.619 30.1108 375.635 28.4548C377.795 26.7988 379.091 25.2148 380.531 23.4148C380.675 23.1988 380.747 23.1988 380.819 23.1988C380.891 23.1988 380.963 23.2708 380.963 23.3428C380.963 23.4148 380.963 23.4148 380.891 23.5588C379.091 26.0068 377.147 27.8788 375.923 28.8148ZM380.977 23.2708C387.277 21.7588 388.105 19.5628 388.105 18.0868C388.105 17.6188 387.817 17.0788 387.169 17.0788C385.009 17.0788 382.633 20.0308 380.977 23.2708ZM381.445 32.9188C378.925 32.9188 376.585 31.5508 376.585 28.6348C376.585 22.0108 385.117 16.1068 388.825 16.1068C389.761 16.1068 390.697 16.7188 390.697 17.9068C390.697 18.8788 388.465 22.6948 380.653 24.0268C380.149 25.0348 379.501 26.3668 379.501 28.5988C379.501 30.9028 381.049 31.9828 382.993 31.9828C385.405 31.9828 389.185 30.3268 391.633 28.4548C393.793 26.7988 395.089 25.2148 396.529 23.4148C396.673 23.1988 396.745 23.1988 396.817 23.1988C396.889 23.1988 396.961 23.2708 396.961 23.3428C396.961 23.4148 396.961 23.4148 396.889 23.5588C395.089 26.0068 393.145 27.8788 391.921 28.8148C389.185 31.0468 385.405 32.9188 381.445 32.9188ZM408.961 28.8148C405.793 31.1188 402.553 33.1348 398.449 33.1348C395.713 33.1348 392.869 32.0548 392.869 28.4188C392.869 22.1908 401.257 16.1068 405.145 16.1068C406.297 16.1068 407.017 16.9708 407.017 18.1948C407.017 19.0588 406.945 19.2748 405.649 19.9948C405.217 20.2108 404.857 20.3548 404.641 20.3548C404.569 20.3548 404.497 20.3548 404.497 20.2828C404.497 20.2108 404.641 19.9948 404.641 19.4908C404.641 18.1228 403.633 17.5468 402.985 17.5468C399.961 17.5468 395.821 24.0988 395.821 28.3108C395.821 30.7948 397.081 32.1988 399.745 32.1988C402.625 32.1988 405.937 30.4708 408.673 28.4548C410.833 26.7988 412.129 25.2148 413.569 23.4148C413.713 23.1988 413.785 23.1988 413.857 23.1988C413.929 23.1988 414.001 23.2708 414.001 23.3428C414.001 23.4148 414.001 23.4148 413.929 23.5588C412.129 26.0068 410.185 27.8788 408.961 28.8148ZM421.909 5.91877C422.773 5.91877 423.169 6.74677 423.169 7.46677C423.169 8.65477 422.161 9.66277 421.117 9.66277C420.325 9.66277 419.785 8.94277 419.785 8.04277C419.785 7.17877 420.865 5.91877 421.909 5.91877ZM418.489 17.5468C418.489 20.5708 413.017 26.4028 413.017 29.4268C413.017 30.8668 414.205 31.4068 415.717 31.4068C417.229 31.4068 419.749 29.9668 421.765 28.4548C423.925 26.7988 425.221 25.2148 426.661 23.4148C426.805 23.1988 426.877 23.1988 426.949 23.1988C427.021 23.1988 427.093 23.2708 427.093 23.3428C427.093 23.4148 427.093 23.4148 427.021 23.5588C425.221 26.0068 423.277 27.8788 422.053 28.8148C420.181 30.3268 416.653 32.6308 413.629 32.6308C411.613 32.6308 410.137 31.7308 410.137 29.8588C410.137 26.2588 415.717 19.9228 415.717 17.9428C415.717 17.0068 415.429 16.7908 414.997 16.7908C414.277 16.7908 413.197 17.4388 412.333 18.0148C412.117 18.1588 412.045 18.2308 411.973 18.2308C411.901 18.2308 411.829 18.1588 411.829 18.0868C411.829 18.0148 411.829 17.9428 412.045 17.7988C412.333 17.5828 414.781 15.7828 416.365 15.7828C417.805 15.7828 418.489 16.5388 418.489 17.5468ZM470.551 19.7428C474.403 19.7428 487.759 19.6708 488.263 19.6708C488.335 19.6708 488.443 19.6708 488.443 19.7428C488.443 19.8148 488.371 19.8868 488.083 20.5348C487.795 21.2188 487.579 21.6148 487.363 21.6148C486.427 21.6148 473.791 21.3988 464.719 21.3988C457.879 21.3988 446.395 21.4708 445.063 21.4708C444.991 21.4708 444.919 21.4708 444.919 21.3988C444.919 21.3268 445.063 21.2188 445.459 20.5348C445.747 20.0308 445.999 19.5988 446.251 19.5988C448.591 19.5988 462.775 19.7428 470.551 19.7428ZM27.0706 71.8148C24.7666 73.6148 21.6706 75.7748 18.7186 75.7748C16.9546 75.7748 15.9106 74.9108 15.9106 72.8228C13.4626 74.3348 10.9786 75.5228 9.17863 75.5228C6.94663 75.5228 6.01063 73.7948 6.01063 71.5628C6.01063 66.1628 12.6706 59.1068 18.2506 59.1068C20.1586 59.1068 22.2466 60.2228 22.8946 62.5268C23.2546 62.5268 23.8306 62.6708 23.8306 63.3188C23.8306 65.5508 22.0306 67.1348 20.6626 68.5748C20.2306 69.0068 19.5826 69.5828 19.0066 70.1588C18.6466 71.0948 18.5746 71.9588 18.5746 72.5348C18.5746 73.2548 18.7906 74.4068 20.5906 74.4068C22.6066 74.4068 24.7666 72.9668 26.7826 71.4548C28.9426 69.7988 30.2386 68.2148 31.6786 66.4148C31.8226 66.1988 31.8946 66.1988 31.9666 66.1988C32.0386 66.1988 32.1106 66.2708 32.1106 66.3428C32.1106 66.4148 32.1106 66.4148 32.0386 66.5588C30.2386 69.0068 28.2946 70.8788 27.0706 71.8148ZM18.1426 59.9708C13.3906 59.9708 8.99863 66.7388 8.99863 71.4908C8.99863 72.7148 9.32263 74.2988 10.9786 74.2988C12.9226 74.2988 14.9386 72.9308 15.9826 72.1028C16.5586 70.0868 17.7106 67.6388 18.7186 66.2708C19.5826 65.0468 21.1666 63.1028 22.3186 62.6708C21.6706 61.0148 20.0146 59.9708 18.1426 59.9708ZM19.2586 69.3668C22.0666 66.5588 22.8946 64.9748 22.8946 64.3988C22.8946 64.1828 22.7506 64.1108 22.6066 64.1108C21.9586 64.1108 20.2306 67.3508 19.2586 69.3668ZM36.6576 60.9068C36.6576 62.6708 33.2376 67.8908 32.6616 68.9708H32.7336L33.3456 68.3588C37.2336 64.3268 43.4976 59.1428 46.3056 59.1428C47.0976 59.1428 47.8896 59.3228 47.8896 59.8988C47.8896 60.2948 47.3856 60.5828 46.7376 61.0868C46.2696 61.4468 46.0896 61.8068 45.8736 61.8068C45.7296 61.8068 45.7296 61.7348 45.7296 61.5908C45.7296 61.3748 45.2616 61.1948 44.5416 61.1948C42.7416 61.1948 41.1216 62.2748 37.6656 65.1908C38.4216 66.1268 39.1056 66.9548 39.6816 69.4028C40.5816 73.1468 40.7976 74.4788 42.7056 74.4788C44.0736 74.4788 47.0976 72.8228 48.7536 71.4548C50.9136 69.7988 52.2096 68.2148 53.6496 66.4148C53.7936 66.1988 53.8656 66.1988 53.9376 66.1988C54.0096 66.1988 54.0816 66.2708 54.0816 66.3428C54.0816 66.4148 54.0816 66.4148 54.0096 66.5588C52.2096 69.0068 50.2656 70.8788 49.0416 71.8148C47.8896 72.7868 45.7656 74.2988 43.6416 75.1988C40.6176 77.8628 37.1616 82.1828 37.1616 85.2428C37.1616 86.2508 37.6296 87.0068 38.3856 87.0068C38.8176 87.0068 39.0336 86.5748 39.1776 86.5748C39.2496 86.5748 39.2856 86.6108 39.2856 86.6828C39.2856 86.9708 37.9536 87.6908 37.1256 87.6908C36.1536 87.6908 35.0016 87.1148 35.0016 85.3868C35.0016 81.9308 40.0056 77.7548 42.7416 75.5228C42.0216 75.7748 41.3016 75.9188 40.6536 75.9188C38.0976 75.9188 37.7016 73.7948 37.0536 70.5548C36.6936 68.8628 35.8656 67.6028 35.3976 67.1708C34.8576 67.6748 33.3816 69.1508 31.5816 71.4188C31.0056 72.3908 30.4296 73.3628 29.6016 75.0548C29.4576 75.3428 28.1616 75.3428 27.5136 75.4148C26.9376 75.4868 26.5776 75.8108 26.3616 75.8108C26.3616 75.8108 26.2176 75.8108 26.2176 75.6668C26.2176 75.3068 27.7296 73.9748 31.6896 66.4148C32.9856 63.9668 33.9936 62.0948 33.9936 61.2308C33.9936 60.2948 33.7056 59.7908 33.1296 59.7908C32.4096 59.7908 31.3296 60.4388 30.4656 61.0148C30.2496 61.1588 30.1776 61.2308 30.1056 61.2308C30.0336 61.2308 29.9616 61.1588 29.9616 61.0868C29.9616 61.0148 29.9616 60.9428 30.1776 60.7988C30.4656 60.5828 32.9136 58.7828 34.4976 58.7828C35.9376 58.7828 36.6576 59.7188 36.6576 60.9068ZM86.2034 71.8148C83.8994 73.6148 80.8034 75.7748 77.8514 75.7748C76.0874 75.7748 75.0434 74.9108 75.0434 72.8228C72.5954 74.3348 70.1114 75.5228 68.3114 75.5228C66.0794 75.5228 65.1434 73.7948 65.1434 71.5628C65.1434 66.1628 71.8034 59.1068 77.3834 59.1068C79.2914 59.1068 81.3794 60.2228 82.0274 62.5268C82.3874 62.5268 82.9634 62.6708 82.9634 63.3188C82.9634 65.5508 81.1634 67.1348 79.7954 68.5748C79.3634 69.0068 78.7154 69.5828 78.1394 70.1588C77.7794 71.0948 77.7074 71.9588 77.7074 72.5348C77.7074 73.2548 77.9234 74.4068 79.7234 74.4068C81.7394 74.4068 83.8994 72.9668 85.9154 71.4548C88.0754 69.7988 89.3714 68.2148 90.8114 66.4148C90.9554 66.1988 91.0274 66.1988 91.0994 66.1988C91.1714 66.1988 91.2434 66.2708 91.2434 66.3428C91.2434 66.4148 91.2434 66.4148 91.1714 66.5588C89.3714 69.0068 87.4274 70.8788 86.2034 71.8148ZM77.2754 59.9708C72.5234 59.9708 68.1314 66.7388 68.1314 71.4908C68.1314 72.7148 68.4554 74.2988 70.1114 74.2988C72.0554 74.2988 74.0714 72.9308 75.1154 72.1028C75.6914 70.0868 76.8434 67.6388 77.8514 66.2708C78.7154 65.0468 80.2994 63.1028 81.4514 62.6708C80.8034 61.0148 79.1474 59.9708 77.2754 59.9708ZM78.3914 69.3668C81.1994 66.5588 82.0274 64.9748 82.0274 64.3988C82.0274 64.1828 81.8834 64.1108 81.7394 64.1108C81.0914 64.1108 79.3634 67.3508 78.3914 69.3668ZM107.922 71.8148C104.25 74.7668 100.47 76.4948 98.3104 76.4948C97.1224 76.4948 96.0064 75.7748 96.0064 74.4788C96.0064 70.0868 102.378 66.2348 102.378 63.4268C102.378 61.6268 101.118 61.3388 100.47 61.3388C98.2384 61.3388 94.0264 65.3348 91.0384 69.0068C91.0384 69.0068 89.0584 72.4988 87.8344 74.7668C81.4984 86.6468 78.7624 92.7308 71.7424 105.295C69.6544 109.039 65.2264 109.471 64.9384 109.471C64.7584 109.471 64.6144 109.471 64.6144 109.327C64.6144 108.967 65.1904 109.219 66.4864 108.211C67.7104 107.275 72.5344 100.291 86.5744 74.4788C90.1024 67.9988 91.3264 65.2628 91.3264 63.7508C91.3264 62.2748 91.0024 61.6988 90.6064 61.4108C90.4264 61.2668 90.3184 61.2308 90.3184 61.1588C90.3184 61.0148 90.6784 60.8708 90.9664 60.6548C91.8304 60.0068 91.7584 59.7188 92.4064 59.7188C93.0544 59.7188 93.6304 60.5108 93.6304 62.2388C93.6304 63.3908 93.0544 65.1908 92.4784 66.2708C97.6984 61.0868 101.118 59.1428 103.494 59.1428C104.214 59.1428 105.546 59.5748 105.546 61.6628C105.546 65.4068 98.5264 70.9508 98.5264 73.4708C98.5264 74.6948 99.1744 75.0548 100.11 75.0548C102.27 75.0548 106.05 72.6788 107.634 71.4548C109.794 69.7988 111.09 68.2148 112.53 66.4148C112.71 66.1988 112.746 66.1988 112.818 66.1988C112.89 66.1988 112.962 66.2708 112.962 66.3428C112.962 66.4148 112.998 66.4148 112.89 66.5588C111.09 69.0068 109.146 70.8788 107.922 71.8148ZM131.63 71.8508C131.63 73.1108 131.99 74.2988 133.79 74.2988C135.95 74.2988 138.434 72.9668 140.378 71.4548C142.538 69.7988 143.834 68.2148 145.274 66.4148C145.418 66.1988 145.49 66.1988 145.562 66.1988C145.634 66.1988 145.706 66.2708 145.706 66.3428C145.706 66.4148 145.706 66.4148 145.634 66.5588C143.834 69.0068 141.89 70.8788 140.666 71.8148C138.722 73.3268 135.338 75.5228 131.81 75.5228C129.794 75.5228 128.606 74.2628 128.606 72.5708C128.606 70.8428 129.47 69.0068 130.73 66.5948C129.758 67.7468 128.57 69.0428 126.95 70.8068C124.106 73.9028 121.766 75.3428 120.038 75.3428C118.814 75.3428 117.842 74.7308 117.842 73.0388C117.842 71.3108 118.454 68.7188 120.326 65.1188C119.39 66.3788 117.734 68.9708 115.826 70.9868C112.226 74.8028 109.634 75.4868 108.698 75.4868C107.546 75.4868 106.322 75.1268 106.322 73.6868C106.322 72.1028 107.258 71.8508 108.122 71.1308C109.238 70.1948 109.742 69.5828 109.958 69.5828C109.994 69.5828 110.066 69.6188 110.066 69.6908C110.066 69.7628 109.958 69.9428 109.778 70.1228C108.914 70.8788 108.482 71.6708 108.482 72.5348C108.482 73.4708 109.094 74.1188 110.03 74.1188C111.254 74.1188 113.666 72.4988 116.15 69.8708C118.67 67.2068 119.894 64.9388 121.01 63.2108C121.838 61.9148 122.09 60.7628 122.882 60.0428C123.134 59.7908 123.998 59.3948 124.754 59.1428C125.186 58.9988 125.33 58.7828 125.51 58.7828C125.618 58.7828 125.654 58.8548 125.654 58.9988C125.654 59.3588 124.574 60.8708 123.602 62.8508C121.982 66.1628 120.866 70.0508 120.866 72.3908C120.866 73.5068 121.586 73.6868 121.946 73.6868C123.026 73.6868 124.682 72.6068 126.626 70.5188C127.85 69.2228 130.442 66.2348 132.062 63.7508C132.89 62.4548 133.682 60.7628 134.438 60.0068C134.69 59.7548 135.194 59.5028 135.95 59.2148C136.49 58.9988 137.318 58.8188 137.498 58.8188C137.642 58.8188 137.714 58.9628 137.714 59.1428C137.714 59.5028 136.022 60.8708 135.014 62.8508C133.322 66.1628 131.63 69.5108 131.63 71.8508ZM162.703 71.8148C160.399 73.6148 157.303 75.7748 154.351 75.7748C152.587 75.7748 151.543 74.9108 151.543 72.8228C149.095 74.3348 146.611 75.5228 144.811 75.5228C142.579 75.5228 141.643 73.7948 141.643 71.5628C141.643 66.1628 148.303 59.1068 153.883 59.1068C155.791 59.1068 157.879 60.2228 158.527 62.5268C158.887 62.5268 159.463 62.6708 159.463 63.3188C159.463 65.5508 157.663 67.1348 156.295 68.5748C155.863 69.0068 155.215 69.5828 154.639 70.1588C154.279 71.0948 154.207 71.9588 154.207 72.5348C154.207 73.2548 154.423 74.4068 156.223 74.4068C158.239 74.4068 160.399 72.9668 162.415 71.4548C164.575 69.7988 165.871 68.2148 167.311 66.4148C167.455 66.1988 167.527 66.1988 167.599 66.1988C167.671 66.1988 167.743 66.2708 167.743 66.3428C167.743 66.4148 167.743 66.4148 167.671 66.5588C165.871 69.0068 163.927 70.8788 162.703 71.8148ZM153.775 59.9708C149.023 59.9708 144.631 66.7388 144.631 71.4908C144.631 72.7148 144.955 74.2988 146.611 74.2988C148.555 74.2988 150.571 72.9308 151.615 72.1028C152.191 70.0868 153.343 67.6388 154.351 66.2708C155.215 65.0468 156.799 63.1028 157.951 62.6708C157.303 61.0148 155.647 59.9708 153.775 59.9708ZM154.891 69.3668C157.699 66.5588 158.527 64.9748 158.527 64.3988C158.527 64.1828 158.383 64.1108 158.239 64.1108C157.591 64.1108 155.863 67.3508 154.891 69.3668ZM172.254 60.5468C172.254 62.0948 169.338 67.0988 169.338 67.0988C170.238 67.1708 170.886 67.2068 171.57 67.2068C173.478 67.2068 175.566 66.8108 177.654 65.8748C178.626 64.2908 180.642 61.2668 181.182 60.5468C181.794 59.7188 182.73 59.5388 183.558 59.3948C184.17 59.2868 184.818 59.0708 185.178 59.0708C185.322 59.0708 185.358 59.1428 185.358 59.2148C185.358 59.4308 184.386 59.6828 182.334 62.4188C179.562 66.1268 177.114 70.5908 177.114 72.8948C177.114 74.0828 177.618 74.8748 179.058 74.8748C180.642 74.8748 183.198 73.3268 185.646 71.4548C187.806 69.7988 189.102 68.2148 190.542 66.4148C190.686 66.1988 190.758 66.1988 190.83 66.1988C190.902 66.1988 190.974 66.2708 190.974 66.3428C190.974 66.4148 190.974 66.4148 190.902 66.5588C189.102 69.0068 187.158 70.8788 185.934 71.8148C183.198 74.0468 180.354 76.1708 177.186 76.1708C175.17 76.1708 174.27 75.1628 174.27 73.5428C174.27 71.8148 175.386 69.6548 177.078 66.9908C174.882 67.8548 172.902 68.1788 168.69 68.3948C168.042 69.7628 165.486 74.1188 164.766 75.3068C164.514 75.7028 163.65 75.7388 162.714 75.8828C162.102 75.9908 161.706 76.3868 161.49 76.3868C161.346 76.3868 161.274 76.3508 161.274 76.2068C161.274 76.0628 161.85 75.5228 162.858 73.8668C163.542 72.7868 164.838 70.6268 165.882 68.6828C165.738 67.6748 165.45 67.2428 165.45 66.9188C165.45 66.7388 165.666 66.5228 165.702 66.5228C165.954 66.5228 166.458 66.7028 166.962 66.7388C168.582 63.8588 169.482 62.0228 169.482 60.9428C169.482 60.0068 169.194 59.7908 168.762 59.7908C168.042 59.7908 166.962 60.4388 166.098 61.0148C165.882 61.1588 165.81 61.2308 165.738 61.2308C165.666 61.2308 165.594 61.1588 165.594 61.0868C165.594 61.0148 165.594 60.9428 165.81 60.7988C166.098 60.5828 168.546 58.7828 170.13 58.7828C171.57 58.7828 172.254 59.5388 172.254 60.5468ZM195.458 60.5468C195.458 62.0948 192.542 67.0988 192.542 67.0988C193.442 67.1708 194.09 67.2068 194.774 67.2068C196.682 67.2068 198.77 66.8108 200.858 65.8748C201.83 64.2908 203.846 61.2668 204.386 60.5468C204.998 59.7188 205.934 59.5388 206.762 59.3948C207.374 59.2868 208.022 59.0708 208.382 59.0708C208.526 59.0708 208.562 59.1428 208.562 59.2148C208.562 59.4308 207.59 59.6828 205.538 62.4188C202.766 66.1268 200.318 70.5908 200.318 72.8948C200.318 74.0828 200.822 74.8748 202.262 74.8748C203.846 74.8748 206.402 73.3268 208.85 71.4548C211.01 69.7988 212.306 68.2148 213.746 66.4148C213.89 66.1988 213.962 66.1988 214.034 66.1988C214.106 66.1988 214.178 66.2708 214.178 66.3428C214.178 66.4148 214.178 66.4148 214.106 66.5588C212.306 69.0068 210.362 70.8788 209.138 71.8148C206.402 74.0468 203.558 76.1708 200.39 76.1708C198.374 76.1708 197.474 75.1628 197.474 73.5428C197.474 71.8148 198.59 69.6548 200.282 66.9908C198.086 67.8548 196.106 68.1788 191.894 68.3948C191.246 69.7628 188.69 74.1188 187.97 75.3068C187.718 75.7028 186.854 75.7388 185.918 75.8828C185.306 75.9908 184.91 76.3868 184.694 76.3868C184.55 76.3868 184.478 76.3508 184.478 76.2068C184.478 76.0628 185.054 75.5228 186.062 73.8668C186.746 72.7868 188.042 70.6268 189.086 68.6828C188.942 67.6748 188.654 67.2428 188.654 66.9188C188.654 66.7388 188.87 66.5228 188.906 66.5228C189.158 66.5228 189.662 66.7028 190.166 66.7388C191.786 63.8588 192.686 62.0228 192.686 60.9428C192.686 60.0068 192.398 59.7908 191.966 59.7908C191.246 59.7908 190.166 60.4388 189.302 61.0148C189.086 61.1588 189.014 61.2308 188.942 61.2308C188.87 61.2308 188.798 61.1588 188.798 61.0868C188.798 61.0148 188.798 60.9428 189.014 60.7988C189.302 60.5828 191.75 58.7828 193.334 58.7828C194.774 58.7828 195.458 59.5388 195.458 60.5468ZM232.305 59.5028C232.701 59.5028 233.853 59.7188 233.853 60.4748C233.853 61.8428 231.045 64.1468 229.857 66.7388C229.101 68.4308 227.913 71.3108 227.913 72.6788C227.913 73.8668 228.849 74.3708 229.569 74.3708C231.225 74.3708 234.177 73.1108 236.193 71.4548C238.353 69.7988 239.649 68.2148 241.089 66.4148C241.233 66.1988 241.305 66.1988 241.377 66.1988C241.449 66.1988 241.521 66.2708 241.521 66.3428C241.521 66.4148 241.521 66.4148 241.449 66.5588C239.649 69.0068 237.705 70.8788 236.481 71.8148C233.745 74.1188 229.893 75.8108 227.733 75.8108C226.329 75.8108 225.321 75.0548 225.321 73.7588C225.321 71.7428 226.977 68.6828 227.949 66.6668C227.373 66.9548 226.437 67.0988 225.897 67.0988C225.213 67.0988 224.349 66.8828 224.349 66.8828C223.557 71.4548 218.697 75.6668 214.341 75.6668C211.641 75.6308 210.561 74.2988 210.561 71.6348C210.561 68.1788 214.449 62.6348 215.745 60.7988C215.961 60.4748 216.213 60.3668 216.465 60.3308C218.481 59.9708 219.165 59.5028 219.957 59.5028C220.173 59.5028 220.209 59.6468 220.209 59.7908C220.209 59.9348 219.093 60.1508 218.049 61.5548C216.717 63.3548 213.369 68.1068 213.369 71.5628C213.369 73.5428 214.125 74.6948 215.889 74.6948C219.345 74.6948 222.081 70.0148 222.081 67.6388C222.081 67.0268 222.081 66.4508 221.577 65.8748C221.145 65.5868 219.957 64.7948 219.957 64.5788C219.957 64.1468 220.497 64.0748 220.965 63.7868C221.793 63.2828 222.117 62.9588 222.333 62.9588C222.513 62.9588 222.585 63.5348 222.765 63.7868C223.233 64.4708 224.349 66.3428 226.473 66.3428C227.085 66.3428 227.877 66.1988 228.273 65.9828C229.137 64.1828 231.153 59.5028 232.305 59.5028ZM246.012 60.5468C246.012 62.0948 243.096 67.0988 243.096 67.0988C243.996 67.1708 244.644 67.2068 245.328 67.2068C247.236 67.2068 249.324 66.8108 251.412 65.8748C252.384 64.2908 254.4 61.2668 254.94 60.5468C255.552 59.7188 256.488 59.5388 257.316 59.3948C257.928 59.2868 258.576 59.0708 258.936 59.0708C259.08 59.0708 259.116 59.1428 259.116 59.2148C259.116 59.4308 258.144 59.6828 256.092 62.4188C253.32 66.1268 250.872 70.5908 250.872 72.8948C250.872 74.0828 251.376 74.8748 252.816 74.8748C254.4 74.8748 256.956 73.3268 259.404 71.4548C261.564 69.7988 262.86 68.2148 264.3 66.4148C264.444 66.1988 264.516 66.1988 264.588 66.1988C264.66 66.1988 264.732 66.2708 264.732 66.3428C264.732 66.4148 264.732 66.4148 264.66 66.5588C262.86 69.0068 260.916 70.8788 259.692 71.8148C257.64 73.4708 255.516 75.0908 253.248 75.8108C250.404 78.5108 247.452 82.3988 247.452 85.2428C247.452 86.2508 247.92 87.0068 248.676 87.0068C249.108 87.0068 249.324 86.5748 249.468 86.5748C249.54 86.5748 249.576 86.6108 249.576 86.6828C249.576 86.9708 248.244 87.6908 247.416 87.6908C246.444 87.6908 245.292 87.1148 245.292 85.3868C245.292 82.1828 249.648 78.3668 252.456 76.0268C251.952 76.1348 251.448 76.1708 250.944 76.1708C248.928 76.1708 248.028 75.1628 248.028 73.5428C248.028 71.8148 249.144 69.6548 250.836 66.9908C248.64 67.8548 246.66 68.1788 242.448 68.3948C241.8 69.7628 239.244 74.1188 238.524 75.3068C238.272 75.7028 237.408 75.7388 236.472 75.8828C235.86 75.9908 235.464 76.3868 235.248 76.3868C235.104 76.3868 235.032 76.3508 235.032 76.2068C235.032 76.0628 235.608 75.5228 236.616 73.8668C237.3 72.7868 238.596 70.6268 239.64 68.6828C239.496 67.6748 239.208 67.2428 239.208 66.9188C239.208 66.7388 239.424 66.5228 239.46 66.5228C239.712 66.5228 240.216 66.7028 240.72 66.7388C242.34 63.8588 243.24 62.0228 243.24 60.9428C243.24 60.0068 242.952 59.7908 242.52 59.7908C241.8 59.7908 240.72 60.4388 239.856 61.0148C239.64 61.1588 239.568 61.2308 239.496 61.2308C239.424 61.2308 239.352 61.1588 239.352 61.0868C239.352 61.0148 239.352 60.9428 239.568 60.7988C239.856 60.5828 242.304 58.7828 243.888 58.7828C245.328 58.7828 246.012 59.5388 246.012 60.5468ZM296.825 71.8148C294.521 73.6148 291.425 75.7748 288.473 75.7748C286.709 75.7748 285.665 74.9108 285.665 72.8228C283.217 74.3348 280.733 75.5228 278.933 75.5228C276.701 75.5228 275.765 73.7948 275.765 71.5628C275.765 66.1628 282.425 59.1068 288.005 59.1068C289.913 59.1068 292.001 60.2228 292.649 62.5268C293.009 62.5268 293.585 62.6708 293.585 63.3188C293.585 65.5508 291.785 67.1348 290.417 68.5748C289.985 69.0068 289.337 69.5828 288.761 70.1588C288.401 71.0948 288.329 71.9588 288.329 72.5348C288.329 73.2548 288.545 74.4068 290.345 74.4068C292.361 74.4068 294.521 72.9668 296.537 71.4548C298.697 69.7988 299.993 68.2148 301.433 66.4148C301.577 66.1988 301.649 66.1988 301.721 66.1988C301.793 66.1988 301.865 66.2708 301.865 66.3428C301.865 66.4148 301.865 66.4148 301.793 66.5588C299.993 69.0068 298.049 70.8788 296.825 71.8148ZM287.897 59.9708C283.145 59.9708 278.753 66.7388 278.753 71.4908C278.753 72.7148 279.077 74.2988 280.733 74.2988C282.677 74.2988 284.693 72.9308 285.737 72.1028C286.313 70.0868 287.465 67.6388 288.473 66.2708C289.337 65.0468 290.921 63.1028 292.073 62.6708C291.425 61.0148 289.769 59.9708 287.897 59.9708ZM289.013 69.3668C291.821 66.5588 292.649 64.9748 292.649 64.3988C292.649 64.1828 292.505 64.1108 292.361 64.1108C291.713 64.1108 289.985 67.3508 289.013 69.3668ZM306.412 60.9068C306.412 62.6708 302.992 67.8908 302.416 68.9708H302.488L303.1 68.3588C306.988 64.3268 313.252 59.1428 316.06 59.1428C316.852 59.1428 317.644 59.3228 317.644 59.8988C317.644 60.2948 317.14 60.5828 316.492 61.0868C316.024 61.4468 315.844 61.8068 315.628 61.8068C315.484 61.8068 315.484 61.7348 315.484 61.5908C315.484 61.3748 315.016 61.1948 314.296 61.1948C312.496 61.1948 310.876 62.2748 307.42 65.1908C308.176 66.1268 308.86 66.9548 309.436 69.4028C310.336 73.1468 310.552 74.4788 312.46 74.4788C313.828 74.4788 316.852 72.8228 318.508 71.4548C320.668 69.7988 321.964 68.2148 323.404 66.4148C323.548 66.1988 323.62 66.1988 323.692 66.1988C323.764 66.1988 323.836 66.2708 323.836 66.3428C323.836 66.4148 323.836 66.4148 323.764 66.5588C321.964 69.0068 320.02 70.8788 318.796 71.8148C317.644 72.7868 315.52 74.2988 313.396 75.1988C310.372 77.8628 306.916 82.1828 306.916 85.2428C306.916 86.2508 307.384 87.0068 308.14 87.0068C308.572 87.0068 308.788 86.5748 308.932 86.5748C309.004 86.5748 309.04 86.6108 309.04 86.6828C309.04 86.9708 307.708 87.6908 306.88 87.6908C305.908 87.6908 304.756 87.1148 304.756 85.3868C304.756 81.9308 309.76 77.7548 312.496 75.5228C311.776 75.7748 311.056 75.9188 310.408 75.9188C307.852 75.9188 307.456 73.7948 306.808 70.5548C306.448 68.8628 305.62 67.6028 305.152 67.1708C304.612 67.6748 303.136 69.1508 301.336 71.4188C300.76 72.3908 300.184 73.3628 299.356 75.0548C299.212 75.3428 297.916 75.3428 297.268 75.4148C296.692 75.4868 296.332 75.8108 296.116 75.8108C296.116 75.8108 295.972 75.8108 295.972 75.6668C295.972 75.3068 297.484 73.9748 301.444 66.4148C302.74 63.9668 303.748 62.0948 303.748 61.2308C303.748 60.2948 303.46 59.7908 302.884 59.7908C302.164 59.7908 301.084 60.4388 300.22 61.0148C300.004 61.1588 299.932 61.2308 299.86 61.2308C299.788 61.2308 299.716 61.1588 299.716 61.0868C299.716 61.0148 299.716 60.9428 299.932 60.7988C300.22 60.5828 302.668 58.7828 304.252 58.7828C305.692 58.7828 306.412 59.7188 306.412 60.9068ZM343.501 60.9068C343.501 62.6708 340.081 67.8908 339.505 68.9708H339.577L340.189 68.3588C344.077 64.3268 350.341 59.1428 353.149 59.1428C353.941 59.1428 354.733 59.3228 354.733 59.8988C354.733 60.2948 354.229 60.5828 353.581 61.0868C353.113 61.4468 352.933 61.8068 352.717 61.8068C352.573 61.8068 352.573 61.7348 352.573 61.5908C352.573 61.3748 352.105 61.1948 351.385 61.1948C349.585 61.1948 347.965 62.2748 344.509 65.1908C345.265 66.1268 345.949 66.9548 346.525 69.4028C347.425 73.1468 347.641 74.4788 349.549 74.4788C350.917 74.4788 353.941 72.8228 355.597 71.4548C357.757 69.7988 359.053 68.2148 360.493 66.4148C360.637 66.1988 360.709 66.1988 360.781 66.1988C360.853 66.1988 360.925 66.2708 360.925 66.3428C360.925 66.4148 360.925 66.4148 360.853 66.5588C359.053 69.0068 357.109 70.8788 355.885 71.8148C354.157 73.2548 350.269 75.9188 347.497 75.9188C344.941 75.9188 344.545 73.7948 343.897 70.5548C343.537 68.8628 342.709 67.6028 342.241 67.1708C341.701 67.6748 340.225 69.1508 338.425 71.4188C337.849 72.3908 337.273 73.3628 336.445 75.0548C336.301 75.3428 335.005 75.3428 334.357 75.4148C333.781 75.4868 333.421 75.8108 333.205 75.8108C333.205 75.8108 333.061 75.8108 333.061 75.6668C333.061 75.3068 334.573 73.9748 338.533 66.4148C339.829 63.9668 340.837 62.0948 340.837 61.2308C340.837 60.2948 340.549 59.7908 339.973 59.7908C339.253 59.7908 338.173 60.4388 337.309 61.0148C337.093 61.1588 337.021 61.2308 336.949 61.2308C336.877 61.2308 336.805 61.1588 336.805 61.0868C336.805 61.0148 336.805 60.9428 337.021 60.7988C337.309 60.5828 339.757 58.7828 341.341 58.7828C342.781 58.7828 343.501 59.7188 343.501 60.9068ZM360.938 66.2708C367.238 64.7588 368.066 62.5628 368.066 61.0868C368.066 60.6188 367.778 60.0788 367.13 60.0788C364.97 60.0788 362.594 63.0308 360.938 66.2708ZM361.406 75.9188C358.886 75.9188 356.546 74.5508 356.546 71.6348C356.546 65.0108 365.078 59.1068 368.786 59.1068C369.722 59.1068 370.658 59.7188 370.658 60.9068C370.658 61.8788 368.426 65.6948 360.614 67.0268C360.11 68.0348 359.462 69.3668 359.462 71.5988C359.462 73.9028 361.01 74.9828 362.954 74.9828C365.366 74.9828 369.146 73.3268 371.594 71.4548C373.754 69.7988 375.05 68.2148 376.49 66.4148C376.634 66.1988 376.706 66.1988 376.778 66.1988C376.85 66.1988 376.922 66.2708 376.922 66.3428C376.922 66.4148 376.922 66.4148 376.85 66.5588C375.05 69.0068 373.106 70.8788 371.882 71.8148C369.146 74.0468 365.366 75.9188 361.406 75.9188ZM395.618 71.8508C395.618 73.1108 395.978 74.2988 397.778 74.2988C399.938 74.2988 402.422 72.9668 404.366 71.4548C406.526 69.7988 407.822 68.2148 409.262 66.4148C409.406 66.1988 409.478 66.1988 409.55 66.1988C409.622 66.1988 409.694 66.2708 409.694 66.3428C409.694 66.4148 409.694 66.4148 409.622 66.5588C407.822 69.0068 405.878 70.8788 404.654 71.8148C402.71 73.3268 399.326 75.5228 395.798 75.5228C393.782 75.5228 392.594 74.2628 392.594 72.5708C392.594 70.8428 393.458 69.0068 394.718 66.5948C393.746 67.7468 392.558 69.0428 390.938 70.8068C388.094 73.9028 385.754 75.3428 384.026 75.3428C382.802 75.3428 381.83 74.7308 381.83 73.0388C381.83 71.3108 382.442 68.7188 384.314 65.1188C383.378 66.3788 381.722 68.9708 379.814 70.9868C376.214 74.8028 373.622 75.4868 372.686 75.4868C371.534 75.4868 370.31 75.1268 370.31 73.6868C370.31 72.1028 371.246 71.8508 372.11 71.1308C373.226 70.1948 373.73 69.5828 373.946 69.5828C373.982 69.5828 374.054 69.6188 374.054 69.6908C374.054 69.7628 373.946 69.9428 373.766 70.1228C372.902 70.8788 372.47 71.6708 372.47 72.5348C372.47 73.4708 373.082 74.1188 374.018 74.1188C375.242 74.1188 377.654 72.4988 380.138 69.8708C382.658 67.2068 383.882 64.9388 384.998 63.2108C385.826 61.9148 386.078 60.7628 386.87 60.0428C387.122 59.7908 387.986 59.3948 388.742 59.1428C389.174 58.9988 389.318 58.7828 389.498 58.7828C389.606 58.7828 389.642 58.8548 389.642 58.9988C389.642 59.3588 388.562 60.8708 387.59 62.8508C385.97 66.1628 384.854 70.0508 384.854 72.3908C384.854 73.5068 385.574 73.6868 385.934 73.6868C387.014 73.6868 388.67 72.6068 390.614 70.5188C391.838 69.2228 394.43 66.2348 396.05 63.7508C396.878 62.4548 397.67 60.7628 398.426 60.0068C398.678 59.7548 399.182 59.5028 399.938 59.2148C400.478 58.9988 401.306 58.8188 401.486 58.8188C401.63 58.8188 401.702 58.9628 401.702 59.1428C401.702 59.5028 400.01 60.8708 399.002 62.8508C397.31 66.1628 395.618 69.5108 395.618 71.8508ZM409.7 66.2708C416 64.7588 416.828 62.5628 416.828 61.0868C416.828 60.6188 416.54 60.0788 415.892 60.0788C413.732 60.0788 411.356 63.0308 409.7 66.2708ZM410.168 75.9188C407.648 75.9188 405.308 74.5508 405.308 71.6348C405.308 65.0108 413.84 59.1068 417.548 59.1068C418.484 59.1068 419.42 59.7188 419.42 60.9068C419.42 61.8788 417.188 65.6948 409.376 67.0268C408.872 68.0348 408.224 69.3668 408.224 71.5988C408.224 73.9028 409.772 74.9828 411.716 74.9828C414.128 74.9828 417.908 73.3268 420.356 71.4548C422.516 69.7988 423.812 68.2148 425.252 66.4148C425.396 66.1988 425.468 66.1988 425.54 66.1988C425.612 66.1988 425.684 66.2708 425.684 66.3428C425.684 66.4148 425.684 66.4148 425.612 66.5588C423.812 69.0068 421.868 70.8788 420.644 71.8148C417.908 74.0468 414.128 75.9188 410.168 75.9188ZM437.684 71.8148C434.516 74.1188 431.276 76.1348 427.172 76.1348C424.436 76.1348 421.592 75.0548 421.592 71.4188C421.592 65.1908 429.98 59.1068 433.868 59.1068C435.02 59.1068 435.74 59.9708 435.74 61.1948C435.74 62.0588 435.668 62.2748 434.372 62.9948C433.94 63.2108 433.58 63.3548 433.364 63.3548C433.292 63.3548 433.22 63.3548 433.22 63.2828C433.22 63.2108 433.364 62.9948 433.364 62.4908C433.364 61.1228 432.356 60.5468 431.708 60.5468C428.684 60.5468 424.544 67.0988 424.544 71.3108C424.544 73.7948 425.804 75.1988 428.468 75.1988C431.348 75.1988 434.66 73.4708 437.396 71.4548C439.556 69.7988 440.852 68.2148 442.292 66.4148C442.436 66.1988 442.508 66.1988 442.58 66.1988C442.652 66.1988 442.724 66.2708 442.724 66.3428C442.724 66.4148 442.724 66.4148 442.652 66.5588C440.852 69.0068 438.908 70.8788 437.684 71.8148ZM450.631 48.9188C451.495 48.9188 451.891 49.7468 451.891 50.4668C451.891 51.6548 450.883 52.6628 449.839 52.6628C449.047 52.6628 448.507 51.9428 448.507 51.0428C448.507 50.1788 449.587 48.9188 450.631 48.9188ZM447.211 60.5468C447.211 63.5708 441.739 69.4028 441.739 72.4268C441.739 73.8668 442.927 74.4068 444.439 74.4068C445.951 74.4068 448.471 72.9668 450.487 71.4548C452.647 69.7988 453.943 68.2148 455.383 66.4148C455.527 66.1988 455.599 66.1988 455.671 66.1988C455.743 66.1988 455.815 66.2708 455.815 66.3428C455.815 66.4148 455.815 66.4148 455.743 66.5588C453.943 69.0068 451.999 70.8788 450.775 71.8148C448.903 73.3268 445.375 75.6308 442.351 75.6308C440.335 75.6308 438.859 74.7308 438.859 72.8588C438.859 69.2588 444.439 62.9228 444.439 60.9428C444.439 60.0068 444.151 59.7908 443.719 59.7908C442.999 59.7908 441.919 60.4388 441.055 61.0148C440.839 61.1588 440.767 61.2308 440.695 61.2308C440.623 61.2308 440.551 61.1588 440.551 61.0868C440.551 61.0148 440.551 60.9428 440.767 60.7988C441.055 60.5828 443.503 58.7828 445.087 58.7828C446.527 58.7828 447.211 59.5388 447.211 60.5468ZM460.325 60.5468C460.325 62.0948 457.409 67.0988 457.409 67.0988C458.309 67.1708 458.957 67.2068 459.641 67.2068C461.549 67.2068 463.637 66.8108 465.725 65.8748C466.697 64.2908 468.713 61.2668 469.253 60.5468C469.865 59.7188 470.801 59.5388 471.629 59.3948C472.241 59.2868 472.889 59.0708 473.249 59.0708C473.393 59.0708 473.429 59.1428 473.429 59.2148C473.429 59.4308 472.457 59.6828 470.405 62.4188C467.633 66.1268 465.185 70.5908 465.185 72.8948C465.185 74.0828 465.689 74.8748 467.129 74.8748C468.713 74.8748 471.269 73.3268 473.717 71.4548C475.877 69.7988 477.173 68.2148 478.613 66.4148C478.757 66.1988 478.829 66.1988 478.901 66.1988C478.973 66.1988 479.045 66.2708 479.045 66.3428C479.045 66.4148 479.045 66.4148 478.973 66.5588C477.173 69.0068 475.229 70.8788 474.005 71.8148C471.269 74.0468 468.425 76.1708 465.257 76.1708C463.241 76.1708 462.341 75.1628 462.341 73.5428C462.341 71.8148 463.457 69.6548 465.149 66.9908C462.953 67.8548 460.973 68.1788 456.761 68.3948C456.113 69.7628 453.557 74.1188 452.837 75.3068C452.585 75.7028 451.721 75.7388 450.785 75.8828C450.173 75.9908 449.777 76.3868 449.561 76.3868C449.417 76.3868 449.345 76.3508 449.345 76.2068C449.345 76.0628 449.921 75.5228 450.929 73.8668C451.613 72.7868 452.909 70.6268 453.953 68.6828C453.809 67.6748 453.521 67.2428 453.521 66.9188C453.521 66.7388 453.737 66.5228 453.773 66.5228C454.025 66.5228 454.529 66.7028 455.033 66.7388C456.653 63.8588 457.553 62.0228 457.553 60.9428C457.553 60.0068 457.265 59.7908 456.833 59.7908C456.113 59.7908 455.033 60.4388 454.169 61.0148C453.953 61.1588 453.881 61.2308 453.809 61.2308C453.737 61.2308 453.665 61.1588 453.665 61.0868C453.665 61.0148 453.665 60.9428 453.881 60.7988C454.169 60.5828 456.617 58.7828 458.201 58.7828C459.641 58.7828 460.325 59.5388 460.325 60.5468ZM479.028 66.2708C485.328 64.7588 486.156 62.5628 486.156 61.0868C486.156 60.6188 485.868 60.0788 485.22 60.0788C483.06 60.0788 480.684 63.0308 479.028 66.2708ZM479.496 75.9188C476.976 75.9188 474.636 74.5508 474.636 71.6348C474.636 65.0108 483.168 59.1068 486.876 59.1068C487.812 59.1068 488.748 59.7188 488.748 60.9068C488.748 61.8788 486.516 65.6948 478.704 67.0268C478.2 68.0348 477.552 69.3668 477.552 71.5988C477.552 73.9028 479.1 74.9828 481.044 74.9828C483.456 74.9828 487.236 73.3268 489.684 71.4548C491.844 69.7988 493.14 68.2148 494.58 66.4148C494.724 66.1988 494.796 66.1988 494.868 66.1988C494.94 66.1988 495.012 66.2708 495.012 66.3428C495.012 66.4148 495.012 66.4148 494.94 66.5588C493.14 69.0068 491.196 70.8788 489.972 71.8148C487.236 74.0468 483.456 75.9188 479.496 75.9188ZM137.642 114.851C137.642 116.111 138.002 117.299 139.802 117.299C141.962 117.299 144.446 115.967 146.39 114.455C148.55 112.799 149.846 111.215 151.286 109.415C151.43 109.199 151.502 109.199 151.574 109.199C151.646 109.199 151.718 109.271 151.718 109.343C151.718 109.415 151.718 109.415 151.646 109.559C149.846 112.007 147.902 113.879 146.678 114.815C144.734 116.327 141.35 118.523 137.822 118.523C135.806 118.523 134.618 117.263 134.618 115.571C134.618 113.843 135.482 112.007 136.742 109.595C135.77 110.747 134.582 112.043 132.962 113.807C130.118 116.903 127.778 118.343 126.05 118.343C124.826 118.343 123.854 117.731 123.854 116.039C123.854 114.311 124.466 111.719 126.338 108.119C125.402 109.379 123.746 111.971 121.838 113.987C118.238 117.803 115.646 118.487 114.71 118.487C113.558 118.487 112.334 118.127 112.334 116.687C112.334 115.103 113.27 114.851 114.134 114.131C115.25 113.195 115.754 112.583 115.97 112.583C116.006 112.583 116.078 112.619 116.078 112.691C116.078 112.763 115.97 112.943 115.79 113.123C114.926 113.879 114.494 114.671 114.494 115.535C114.494 116.471 115.106 117.119 116.042 117.119C117.266 117.119 119.678 115.499 122.162 112.871C124.682 110.207 125.906 107.939 127.022 106.211C127.85 104.915 128.102 103.763 128.894 103.043C129.146 102.791 130.01 102.395 130.766 102.143C131.198 101.999 131.342 101.783 131.522 101.783C131.63 101.783 131.666 101.855 131.666 101.999C131.666 102.359 130.586 103.871 129.614 105.851C127.994 109.163 126.878 113.051 126.878 115.391C126.878 116.507 127.598 116.687 127.958 116.687C129.038 116.687 130.694 115.607 132.638 113.519C133.862 112.223 136.454 109.235 138.074 106.751C138.902 105.455 139.694 103.763 140.45 103.007C140.702 102.755 141.206 102.503 141.962 102.215C142.502 101.999 143.33 101.819 143.51 101.819C143.654 101.819 143.726 101.963 143.726 102.143C143.726 102.503 142.034 103.871 141.026 105.851C139.334 109.163 137.642 112.511 137.642 114.851ZM159.643 91.9188C160.507 91.9188 160.903 92.7468 160.903 93.4668C160.903 94.6548 159.895 95.6628 158.851 95.6628C158.059 95.6628 157.519 94.9428 157.519 94.0428C157.519 93.1788 158.599 91.9188 159.643 91.9188ZM156.223 103.547C156.223 106.571 150.751 112.403 150.751 115.427C150.751 116.867 151.939 117.407 153.451 117.407C154.963 117.407 157.483 115.967 159.499 114.455C161.659 112.799 162.955 111.215 164.395 109.415C164.539 109.199 164.611 109.199 164.683 109.199C164.755 109.199 164.827 109.271 164.827 109.343C164.827 109.415 164.827 109.415 164.755 109.559C162.955 112.007 161.011 113.879 159.787 114.815C157.915 116.327 154.387 118.631 151.363 118.631C149.347 118.631 147.871 117.731 147.871 115.859C147.871 112.259 153.451 105.923 153.451 103.943C153.451 103.007 153.163 102.791 152.731 102.791C152.011 102.791 150.931 103.439 150.067 104.015C149.851 104.159 149.779 104.231 149.707 104.231C149.635 104.231 149.563 104.159 149.563 104.087C149.563 104.015 149.563 103.943 149.779 103.799C150.067 103.583 152.515 101.783 154.099 101.783C155.539 101.783 156.223 102.539 156.223 103.547ZM169.336 103.547C169.336 105.095 166.42 110.099 166.42 110.099C167.32 110.171 167.968 110.207 168.652 110.207C170.56 110.207 172.648 109.811 174.736 108.875C175.708 107.291 177.724 104.267 178.264 103.547C178.876 102.719 179.812 102.539 180.64 102.395C181.252 102.287 181.9 102.071 182.26 102.071C182.404 102.071 182.44 102.143 182.44 102.215C182.44 102.431 181.468 102.683 179.416 105.419C176.644 109.127 174.196 113.591 174.196 115.895C174.196 117.083 174.7 117.875 176.14 117.875C177.724 117.875 180.28 116.327 182.728 114.455C184.888 112.799 186.184 111.215 187.624 109.415C187.768 109.199 187.84 109.199 187.912 109.199C187.984 109.199 188.056 109.271 188.056 109.343C188.056 109.415 188.056 109.415 187.984 109.559C186.184 112.007 184.24 113.879 183.016 114.815C180.28 117.047 177.436 119.171 174.268 119.171C172.252 119.171 171.352 118.163 171.352 116.543C171.352 114.815 172.468 112.655 174.16 109.991C171.964 110.855 169.984 111.179 165.772 111.395C165.124 112.763 162.568 117.119 161.848 118.307C161.596 118.703 160.732 118.739 159.796 118.883C159.184 118.991 158.788 119.387 158.572 119.387C158.428 119.387 158.356 119.351 158.356 119.207C158.356 119.063 158.932 118.523 159.94 116.867C160.624 115.787 161.92 113.627 162.964 111.683C162.82 110.675 162.532 110.243 162.532 109.919C162.532 109.739 162.748 109.523 162.784 109.523C163.036 109.523 163.54 109.703 164.044 109.739C165.664 106.859 166.564 105.023 166.564 103.943C166.564 103.007 166.276 102.791 165.844 102.791C165.124 102.791 164.044 103.439 163.18 104.015C162.964 104.159 162.892 104.231 162.82 104.231C162.748 104.231 162.676 104.159 162.676 104.087C162.676 104.015 162.676 103.943 162.892 103.799C163.18 103.583 165.628 101.783 167.212 101.783C168.652 101.783 169.336 102.539 169.336 103.547ZM195.96 91.9188C196.824 91.9188 197.22 92.7468 197.22 93.4668C197.22 94.6548 196.212 95.6628 195.168 95.6628C194.376 95.6628 193.836 94.9428 193.836 94.0428C193.836 93.1788 194.916 91.9188 195.96 91.9188ZM192.54 103.547C192.54 106.571 187.068 112.403 187.068 115.427C187.068 116.867 188.256 117.407 189.768 117.407C191.28 117.407 193.8 115.967 195.816 114.455C197.976 112.799 199.272 111.215 200.712 109.415C200.856 109.199 200.928 109.199 201 109.199C201.072 109.199 201.144 109.271 201.144 109.343C201.144 109.415 201.144 109.415 201.072 109.559C199.272 112.007 197.328 113.879 196.104 114.815C194.232 116.327 190.704 118.631 187.68 118.631C185.664 118.631 184.188 117.731 184.188 115.859C184.188 112.259 189.768 105.923 189.768 103.943C189.768 103.007 189.48 102.791 189.048 102.791C188.328 102.791 187.248 103.439 186.384 104.015C186.168 104.159 186.096 104.231 186.024 104.231C185.952 104.231 185.88 104.159 185.88 104.087C185.88 104.015 185.88 103.943 186.096 103.799C186.384 103.583 188.832 101.783 190.416 101.783C191.856 101.783 192.54 102.539 192.54 103.547ZM205.653 103.547C205.653 104.267 205.221 105.743 204.501 107.039C206.589 105.023 210.657 102.071 213.105 102.071C214.617 102.071 215.877 103.295 215.877 104.735C215.877 107.759 210.513 113.663 210.513 116.255C210.513 116.975 210.945 117.623 211.665 117.623C213.825 117.623 216.921 115.679 218.505 114.455C220.665 112.799 221.961 111.215 223.401 109.415C223.545 109.199 223.617 109.199 223.689 109.199C223.761 109.199 223.833 109.271 223.833 109.343C223.833 109.415 223.833 109.415 223.761 109.559C221.961 112.007 220.017 113.879 218.793 114.815C215.121 117.767 211.413 119.063 209.685 119.063C208.461 119.063 207.525 118.307 207.525 117.011C207.525 113.483 212.853 107.867 212.853 105.059C212.853 104.015 212.097 103.439 211.413 103.439C209.469 103.439 206.949 105.311 203.889 108.623L198.561 118.055C198.309 118.487 197.661 118.307 196.725 118.487C195.897 118.667 195.573 118.883 195.285 118.883C195.213 118.883 195.141 118.847 195.141 118.739C195.141 118.631 195.321 118.595 195.573 118.235C196.005 117.623 196.689 116.471 197.409 115.247C198.417 113.519 199.137 112.367 200.721 109.415C201.297 108.335 202.881 104.879 202.881 103.943C202.881 103.007 202.593 102.791 202.161 102.791C201.441 102.791 200.361 103.439 199.497 104.015C199.281 104.159 199.209 104.231 199.137 104.231C199.065 104.231 198.993 104.159 198.993 104.087C198.993 104.015 198.993 103.943 199.209 103.799C199.497 103.583 201.945 101.783 203.529 101.783C204.969 101.783 205.653 102.539 205.653 103.547ZM259.61 84.4668C260.294 83.2428 263.678 76.9428 269.114 76.9428C271.634 76.9428 273.506 78.3468 276.35 78.3468C279.554 78.3468 279.806 77.1588 280.202 77.1588C280.274 77.1588 280.31 77.2308 280.31 77.3388C280.31 77.4108 278.762 79.9668 274.73 79.9668C271.418 79.9668 270.482 78.7788 267.854 78.7788C264.902 78.7788 262.634 80.1108 260.87 86.1948C258.71 93.5748 257.594 98.2188 253.526 106.355C250.754 111.935 244.706 118.991 238.586 118.991C236.138 118.991 234.698 117.839 234.698 115.319C234.698 109.271 242.114 102.431 247.226 102.431C250.178 102.431 250.754 104.699 250.754 104.843C250.754 104.987 250.394 105.131 249.962 105.419C249.674 105.563 249.17 106.067 249.026 106.067C248.954 106.067 248.882 105.995 248.882 105.707C248.882 105.347 248.234 103.439 246.074 103.439C241.394 103.439 237.506 110.207 237.506 114.959C237.506 116.831 238.586 117.695 240.242 117.695C245.174 117.695 249.314 110.387 251.294 106.031C255.506 96.8148 256.622 89.7588 259.61 84.4668ZM277.594 114.815C275.29 116.615 272.194 118.775 269.242 118.775C267.478 118.775 266.434 117.911 266.434 115.823C263.986 117.335 261.502 118.523 259.702 118.523C257.47 118.523 256.534 116.795 256.534 114.563C256.534 109.163 263.194 102.107 268.774 102.107C270.682 102.107 272.77 103.223 273.418 105.527C273.778 105.527 274.354 105.671 274.354 106.319C274.354 108.551 272.554 110.135 271.186 111.575C270.754 112.007 270.106 112.583 269.53 113.159C269.17 114.095 269.098 114.959 269.098 115.535C269.098 116.255 269.314 117.407 271.114 117.407C273.13 117.407 275.29 115.967 277.306 114.455C279.466 112.799 280.762 111.215 282.202 109.415C282.346 109.199 282.418 109.199 282.49 109.199C282.562 109.199 282.634 109.271 282.634 109.343C282.634 109.415 282.634 109.415 282.562 109.559C280.762 112.007 278.818 113.879 277.594 114.815ZM268.666 102.971C263.914 102.971 259.522 109.739 259.522 114.491C259.522 115.715 259.846 117.299 261.502 117.299C263.446 117.299 265.462 115.931 266.506 115.103C267.082 113.087 268.234 110.639 269.242 109.271C270.106 108.047 271.69 106.103 272.842 105.671C272.194 104.015 270.538 102.971 268.666 102.971ZM269.782 112.367C272.59 109.559 273.418 107.975 273.418 107.399C273.418 107.183 273.274 107.111 273.13 107.111C272.482 107.111 270.754 110.351 269.782 112.367ZM299.313 114.815C295.641 117.767 291.861 119.495 289.701 119.495C288.513 119.495 287.397 118.775 287.397 117.479C287.397 113.087 293.769 109.235 293.769 106.427C293.769 104.627 292.509 104.339 291.861 104.339C289.629 104.339 285.417 108.335 282.429 112.007C282.429 112.007 280.449 115.499 279.225 117.767C272.889 129.647 270.153 135.731 263.133 148.295C261.045 152.039 256.617 152.471 256.329 152.471C256.149 152.471 256.005 152.471 256.005 152.327C256.005 151.967 256.581 152.219 257.877 151.211C259.101 150.275 263.925 143.291 277.965 117.479C281.493 110.999 282.717 108.263 282.717 106.751C282.717 105.275 282.393 104.699 281.997 104.411C281.817 104.267 281.709 104.231 281.709 104.159C281.709 104.015 282.069 103.871 282.357 103.655C283.221 103.007 283.149 102.719 283.797 102.719C284.445 102.719 285.021 103.511 285.021 105.239C285.021 106.391 284.445 108.191 283.869 109.271C289.089 104.087 292.509 102.143 294.885 102.143C295.605 102.143 296.937 102.575 296.937 104.663C296.937 108.407 289.917 113.951 289.917 116.471C289.917 117.695 290.565 118.055 291.501 118.055C293.661 118.055 297.441 115.679 299.025 114.455C301.185 112.799 302.481 111.215 303.921 109.415C304.101 109.199 304.137 109.199 304.209 109.199C304.281 109.199 304.353 109.271 304.353 109.343C304.353 109.415 304.389 109.415 304.281 109.559C302.481 112.007 300.537 113.879 299.313 114.815ZM321.328 114.815C319.024 116.615 315.928 118.775 312.976 118.775C311.212 118.775 310.168 117.911 310.168 115.823C307.72 117.335 305.236 118.523 303.436 118.523C301.204 118.523 300.268 116.795 300.268 114.563C300.268 109.163 306.928 102.107 312.508 102.107C314.416 102.107 316.504 103.223 317.152 105.527C317.512 105.527 318.088 105.671 318.088 106.319C318.088 108.551 316.288 110.135 314.92 111.575C314.488 112.007 313.84 112.583 313.264 113.159C312.904 114.095 312.832 114.959 312.832 115.535C312.832 116.255 313.048 117.407 314.848 117.407C316.864 117.407 319.024 115.967 321.04 114.455C323.2 112.799 324.496 111.215 325.936 109.415C326.08 109.199 326.152 109.199 326.224 109.199C326.296 109.199 326.368 109.271 326.368 109.343C326.368 109.415 326.368 109.415 326.296 109.559C324.496 112.007 322.552 113.879 321.328 114.815ZM312.4 102.971C307.648 102.971 303.256 109.739 303.256 114.491C303.256 115.715 303.58 117.299 305.236 117.299C307.18 117.299 309.196 115.931 310.24 115.103C310.816 113.087 311.968 110.639 312.976 109.271C313.84 108.047 315.424 106.103 316.576 105.671C315.928 104.015 314.272 102.971 312.4 102.971ZM313.516 112.367C316.324 109.559 317.152 107.975 317.152 107.399C317.152 107.183 317.008 107.111 316.864 107.111C316.216 107.111 314.488 110.351 313.516 112.367ZM307.623 149.159C303.807 149.159 299.775 146.099 299.775 141.311C299.775 130.583 315.183 125.183 323.643 122.519C324.255 122.339 325.227 122.015 325.479 122.015C325.695 122.015 325.803 122.123 325.803 122.267C325.803 122.663 325.083 122.807 324.435 123.023C316.695 125.507 302.403 129.287 302.403 140.267C302.403 144.551 305.607 147.719 309.747 147.719C314.679 147.719 318.531 142.895 322.023 136.847C326.343 129.323 329.583 123.455 336.423 112.007H336.387C333.363 115.211 328.719 118.343 325.011 118.343C322.923 118.343 321.951 116.759 321.951 114.599C321.951 109.379 328.755 101.639 333.867 101.639C336.675 101.639 338.547 103.871 339.699 106.391L339.915 105.959C340.419 104.951 340.599 105.239 341.103 105.095C341.175 105.095 341.463 104.951 341.607 104.951C341.679 104.951 341.823 105.095 341.823 105.167C341.823 105.311 341.751 105.455 341.607 105.599C341.319 105.959 340.887 106.895 340.383 107.759C340.455 107.903 340.599 108.335 340.599 108.479C340.599 108.623 340.527 108.767 340.383 108.767C340.311 108.767 340.167 108.407 340.095 108.263C340.095 108.335 324.867 136.595 324.867 136.595C322.023 141.851 314.823 149.159 307.623 149.159ZM339.411 106.823C338.331 104.879 336.531 102.935 333.939 102.935C330.375 102.935 324.939 108.983 324.939 114.671C324.939 115.751 325.803 117.047 326.955 117.047C331.059 117.047 336.891 110.747 336.963 110.675C337.827 109.811 338.691 108.191 339.411 106.823ZM365.406 102.503C365.802 102.503 366.954 102.719 366.954 103.475C366.954 104.843 364.146 107.147 362.958 109.739C362.202 111.431 361.014 114.311 361.014 115.679C361.014 116.867 361.95 117.371 362.67 117.371C364.326 117.371 367.278 116.111 369.294 114.455C371.454 112.799 372.75 111.215 374.19 109.415C374.334 109.199 374.406 109.199 374.478 109.199C374.55 109.199 374.622 109.271 374.622 109.343C374.622 109.415 374.622 109.415 374.55 109.559C372.75 112.007 370.806 113.879 369.582 114.815C366.846 117.119 362.994 118.811 360.834 118.811C359.43 118.811 358.422 118.055 358.422 116.759C358.422 114.743 360.078 111.683 361.05 109.667C360.474 109.955 359.538 110.099 358.998 110.099C358.314 110.099 357.45 109.883 357.45 109.883C356.658 114.455 351.798 118.667 347.442 118.667C344.742 118.631 343.662 117.299 343.662 114.635C343.662 111.179 347.55 105.635 348.846 103.799C349.062 103.475 349.314 103.367 349.566 103.331C351.582 102.971 352.266 102.503 353.058 102.503C353.274 102.503 353.31 102.647 353.31 102.791C353.31 102.935 352.194 103.151 351.15 104.555C349.818 106.355 346.47 111.107 346.47 114.563C346.47 116.543 347.226 117.695 348.99 117.695C352.446 117.695 355.182 113.015 355.182 110.639C355.182 110.027 355.182 109.451 354.678 108.875C354.246 108.587 353.058 107.795 353.058 107.579C353.058 107.147 353.598 107.075 354.066 106.787C354.894 106.283 355.218 105.959 355.434 105.959C355.614 105.959 355.686 106.535 355.866 106.787C356.334 107.471 357.45 109.343 359.574 109.343C360.186 109.343 360.978 109.199 361.374 108.983C362.238 107.183 364.254 102.503 365.406 102.503ZM372.166 117.335C372.166 115.823 373.426 114.131 375.082 114.131C375.874 114.131 376.414 114.671 376.414 115.535C376.414 117.047 374.758 118.631 373.606 118.631C372.742 118.631 372.166 118.199 372.166 117.335Z" fill="#2F2402"></path></svg> 